<svg width="72" height="82" viewBox="0 0 72 82" fill="none" xmlns="http://www.w3.org/2000/svg">
<path d="M71.9493 52.2262L71.8478 52.2005H71.7209L71.4926 52.0721L71.2896 51.6867L70.9852 50.9417L70.4271 49.9655L70.63 49.9398V49.8371L70.5539 49.683L70.4524 49.5545L70.4271 49.4774L70.4778 49.2976L70.3763 49.2462L70.3002 49.1949L70.2241 49.1178L70.148 49.0407L70.0973 48.9123V48.8095V48.5526V48.4499V48.3214L70.0719 48.1673L70.0211 48.0132L69.945 47.9361L69.8182 47.8847L69.7167 47.859L69.5645 47.8847L69.4123 47.9361H69.1839L68.9556 47.859L68.778 47.782L68.5243 47.5764L68.4482 47.5508L68.2452 47.448L68.1945 47.3966L68.0169 47.2168L67.9408 47.1654L67.8901 47.1397H67.814L67.7378 47.114L67.6364 47.037L67.5349 46.8315L67.4841 46.7544L67.4334 46.7287L67.3319 46.703H67.2812L67.2304 46.6516L67.129 46.5746L67.0529 46.5232H67.0021L66.8245 46.4975L66.5962 46.369L66.4947 46.1892L66.444 45.9323V45.3929L66.4186 45.2644L66.3679 45.136L66.3171 45.0332L66.2918 44.6222L66.241 44.4937L66.1649 44.3139L66.0888 44.0056V43.9286L66.1142 43.8772L66.1649 43.7487V43.7231V43.4662L66.0381 43.0038L66.0127 42.7469L66.0634 42.5414L66.1649 42.3358L66.7484 41.6679L66.8245 41.4367L66.6977 41.2055V41.1028L66.8499 40.9743L66.8753 40.8972L66.8499 40.3064L66.7738 40.255L66.5201 40.2293L66.4947 40.255L66.3932 40.4091L66.3679 40.4862L66.241 40.5376L66.1142 40.5633L65.6829 40.5376L64.5412 40.5119L63.4249 40.4605L62.3087 40.4091L61.1924 40.3835L60.0507 40.3321L58.9345 40.3064L57.8182 40.255L56.6765 40.2036H56.2706L56.093 40.1523L55.9915 39.8697L55.9408 39.1761L55.8901 38.5081L55.814 37.609L55.7125 36.3502L55.6364 35.4511L55.5856 35.297L55.5095 35.1429L54.9767 34.5006L54.3171 33.7299L53.9112 33.2419L53.6068 32.9593L54.7484 32.9336H55.408L55.4588 32.8565L55.4334 32.4712L55.408 31.9574L55.3827 31.4436L55.3573 30.9555L55.3319 30.4417V30.0821L55.2558 29.9279L54.9514 29.7481L54.8753 29.5426L55.0529 29.4655L55.0021 29.2343L54.8245 28.7976L54.7484 28.4123L54.6723 28.3095L54.3679 28.0269L54.2918 27.9242V27.7444L54.3171 27.5902V27.4361L54.241 27.282L54.2156 27.2049V27.0764L54.241 26.9223L54.2918 26.8452L54.3171 26.8195L54.4693 26.7682L54.5708 26.6911L54.6216 26.5627L54.6977 26.2544L54.7484 26.1516V26.1002V26.0489L54.6977 26.0232H54.6469L54.6216 25.9718L54.6469 25.9204L54.6216 25.869L54.4947 25.7663L54.444 25.7149L54.3932 25.5865L54.3425 25.4323L54.3171 25.2525L54.2918 25.0984L54.2664 24.9699L54.1395 24.9185L53.7082 24.8158L53.6575 24.7901L53.6321 24.7644L53.5814 24.6873V24.6617L53.5307 24.636L53.4038 24.6103L53.2008 24.4818L52.3129 23.7882L51.907 23.6084L51.8562 23.5827L51.7548 23.4799L51.5518 23.4286H51.2727L51.019 23.3772L50.8922 23.2487V22.9919L50.8668 22.9405L50.7907 22.9662L50.7146 22.9919L50.6892 23.0175L50.4355 23.0689L50.3594 23.1203L50.3087 23.2487L50.2579 23.2744H49.8774L49.7505 23.3001H49.6744L49.5983 23.2744L49.4715 23.1974L49.2685 23.1717L49.1924 23.1203H49.0909L48.685 23.3258L48.4313 23.4286L48.1776 23.4543L47.8985 23.3772L47.8224 23.3515L47.6702 23.1974H47.6195L47.1882 23.2231L47.0613 23.2744L46.9091 23.3258L46.8076 23.3772L46.6808 23.3515H46.5793L46.4524 23.4029L46.3256 23.4286L46.1987 23.4029L46.148 23.3515L46.0211 22.9405L45.9958 22.8891L45.945 22.8377L45.8436 22.7863L45.7674 22.735L45.4884 22.4524L45.3869 22.3753L45.26 22.3239L45.2347 22.2982L45.1332 22.1698V22.1441L45.0317 22.0927L44.778 21.8101L44.6512 21.7074L44.6004 21.6303L44.5751 21.5276V21.1165V21.0138H44.5243L44.4736 21.0395L44.4228 21.0138L44.296 20.834H44.2199V20.9624L44.0423 20.8596L43.9915 20.834H43.9408L43.7125 20.911L43.6364 20.9624H43.5349L43.408 20.911L43.3319 20.9881H43.2558L42.9767 20.9624L42.9514 20.9367L42.8499 20.8853H42.8245H42.7484L42.723 20.8596V20.8083L42.6977 20.7826L42.5455 20.5771L42.4693 20.5257L42.3425 20.5L41.9619 20.5257L41.4545 20.2945L41.4292 20.2688V20.1147L41.4038 20.0633L41.3531 20.0119L41.3023 19.9605L41.1755 19.8835L41.1247 19.9091L41.0486 19.9605L40.9725 20.0119H40.871H40.7696L40.6934 20.0633V20.166L40.592 20.1147L40.4905 20.0376L40.4144 19.9605L40.3636 19.8578V19.8064L40.3383 19.7807L40.2875 19.755H40.2368H40.1607L40.1353 19.7036L40.1099 19.6779L39.8055 19.2669L39.7801 19.2155L39.7548 19.1642L39.704 19.1898L39.6533 19.2155L39.6025 19.2412H39.5518L39.4757 19.2155L39.3996 19.1642L39.3488 19.0614L39.2981 18.9586L39.2727 18.8302L39.2474 18.7531L39.1966 18.6761L39.0698 18.5733L39.0444 18.5476V18.4962V18.4706L39.0951 18.3935L39.0698 18.3678L39.019 18.3421L38.9937 18.2907L38.9683 18.0852L38.8922 17.9825L38.7146 17.9568L38.6131 17.8797H38.537H38.5116L38.3594 17.9568L38.334 17.9825L38.3087 18.0595L38.2833 18.0852H38.2579H38.1818H38.1564L38.0296 18.1623L37.9789 18.2137L37.9535 18.265L37.8774 18.2907H37.4715L37.3953 18.265L37.2178 18.1366L37.1416 18.1109L37.0148 18.0595L36.7865 17.9054L36.7611 17.854V17.7769L36.7104 17.7513H36.6596L36.6089 17.6999L36.5835 17.6485V17.5971V17.52L36.5328 17.4687L36.482 17.4173L36.4059 17.3916L36.3552 17.3659H36.2791H36.1522L36.0507 17.3145L35.797 17.109L35.4672 16.9292V16.9035L34.6047 16.8008H34.5285L34.351 16.8521L34.2495 16.8778V16.9035L34.0465 17.1604L34.0211 17.2118L33.9704 17.2632L33.8943 17.3402H33.7928L33.7421 17.2888L33.666 17.2375L33.5899 17.2118L33.4123 17.2888H33.3108L33.1839 17.109H32.8288L32.7273 17.0063L32.6512 17.1347L32.5751 17.1861L32.5243 17.1604L32.3721 16.9806L32.2706 16.9292L32.1691 16.9035H32.0423L31.9915 16.9292L31.9154 17.0063L31.8901 17.032L31.8647 17.0576H31.7886H31.7378L31.6871 16.8521L31.5856 16.8264L31.3573 16.8778L31.2051 16.8521L31.1036 16.8008L31.0021 16.7237L30.926 16.6466L30.8753 16.5695L30.8245 16.4668L30.7738 16.3897L30.723 16.364L30.5962 16.3127L30.5455 16.287L30.5201 16.1842L30.6469 15.953L30.6723 15.8246V15.6704V15.619L30.6469 15.5677L30.5455 15.4906L30.5201 15.4649H30.444H30.4186V15.4906L30.2918 15.4392L30.1903 15.3622L30.1649 15.3365H30.0127H29.9366L29.6575 15.208L29.5053 15.131L29.4545 15.0539H29.4292L29.4038 15.0025L29.3784 14.9511V14.9254L29.4292 14.8484V14.797L29.3784 14.6942V14.6685H29.277L29.2516 14.6942L29.2262 14.8741L29.2008 14.9254H29.1501L29.074 14.8997L29.0486 14.8484L29.0994 14.7456L28.8964 14.5401L28.8457 14.4373L28.7949 14.3089L28.7696 14.2318L28.6681 14.1805L28.5412 14.1548L28.4905 14.1291L28.3636 14.1805L28.2368 14.1548L28.1099 14.1034L27.9831 14.0777H27.7294L27.6279 14.052L27.5518 14.0006L27.4757 13.9236L27.4503 13.8465V13.718L27.5264 13.6153L27.5518 13.5382V13.4612L27.5011 13.4098L27.4503 13.3841H27.4249L27.3742 13.3584L27.3488 13.307L27.2981 13.1786V13.1015L27.3235 12.9987L27.2981 12.9217L27.2727 12.8703L27.1966 12.7162L27.1459 12.5363L27.0698 12.4593L26.9429 12.4336L26.8668 12.3308L26.8922 12.2024L26.8668 12.151L26.7907 12.1767L26.74 12.2281L26.7146 12.3051L26.6892 12.5877L26.6385 12.6391H26.5624L26.4609 12.562L26.3848 12.4593L26.3594 12.3822L26.334 12.151L26.3594 12.0996L26.4101 11.9969V11.9455L26.3848 11.7914L26.4101 11.74L26.537 11.6886L26.5116 11.6372L26.3848 11.5601L26.3087 11.5345H26.2579V11.5088L26.2326 11.4317L26.2072 11.3546L26.2579 11.2262V11.1748L26.2326 11.0977L26.1564 11.0464L26.0042 10.9693L25.8013 11.0207L25.649 10.8409L25.4461 10.3271V10.2757V10.2243L25.4968 10.1472L25.5983 10.0188V9.94173L25.5729 9.91604L25.4461 9.83897L25.3192 9.7619L25.2431 9.65915V9.50501L25.2939 9.42794L25.37 9.37657L25.4207 9.2995L25.37 9.22243L25.2685 9.14536L25.1924 9.04261L25.2178 8.88847L25.2939 8.78571L25.5222 8.60589L25.5729 8.50313L25.5476 8.37469L25.5222 8.27193V8.16917L25.5983 8.01504L25.649 7.98935L25.6998 7.93797L25.7505 7.91228L25.7759 7.8609V7.78383L25.7505 7.73246L25.6998 7.70677V7.68108L25.649 7.1416L25.5983 7.06454L25.5222 6.96178L25.4207 6.88471L25.167 6.83333L25.1416 6.75627L25.2431 6.47368L25.2939 6.24248V6.13972L25.2685 5.9599L25.167 5.88283L25.0655 5.80576L24.9641 5.70301V5.62594L25.0148 5.31767L24.9894 5.2406H24.9641L24.9387 5.16353V5.11216V5.06078V5.03509L24.9641 4.95802V4.93233V4.90664L24.8879 4.80388V4.75251L25.0402 4.72682L25.1163 4.64975L25.2431 4.39286L25.2178 4.36717V4.34148V4.2901L25.2431 4.18734L25.2939 4.0589L25.3953 3.93045L25.5983 3.82769L25.6744 3.69925L25.7252 3.39098L25.8266 3.23684L25.852 3.18546V3.1084L25.7759 2.97995V2.90288L25.7505 2.64599L25.7252 2.51754L25.6237 2.20927L25.5729 1.97807L25.5476 1.72118L25.5729 1.48997L25.6237 1.36153L25.7505 1.10464L25.7759 0.97619L25.7505 0.873434L25.6744 0.796366L25.5983 0.719298L25.5222 0.66792L25.4461 0.385338L25.3446 0.179825L25.1924 0.0513784L25.0909 0H24.9387H24.8626L24.7865 0.102757L24.5328 0.33396L24.482 0.385338L24.4567 0.488095L24.4313 0.539474L24.3806 0.616541L24.3044 0.693609H24.2791L24.2283 0.719298L24.1776 0.744987V0.770677V0.822055L24.1522 0.847744L24.1269 0.873434V0.924812L24.1015 0.950501H24.0254L23.9239 0.924812L23.8224 0.873434L23.6448 0.770677L23.6195 0.744987L23.5687 0.66792H23.5433H23.4926L23.4419 0.693609H23.4165H23.3658H23.3404L23.315 0.66792V0.590852L23.3404 0.462406H23.2643L23.0359 0.565163L22.9852 0.539474L22.9598 0.513784L22.9345 0.462406V0.411028L22.8837 0.308271L22.8584 0.359649L22.8076 0.462406L22.7822 0.513784V0.565163V0.642231H22.7061L22.6808 0.616541L22.6554 0.565163L22.63 0.513784L22.6047 0.462406L22.5285 0.565163L22.4524 0.616541H22.3763L22.148 0.539474H22.0465H21.945L21.8436 0.590852L21.5645 0.744987L21.463 0.770677L21.3869 0.744987L21.2347 0.66792L21.1586 0.642231H21.1332H21.0317L21.0063 0.66792L20.981 0.744987L20.9302 0.770677L20.9049 0.744987L20.8795 0.719298L20.8541 0.693609H20.8288L20.4989 0.719298L20.4228 0.770677L20.2199 0.899123L20.1184 0.924812L19.5349 1.02757L19.4334 1.05326L19.2051 1.20739L19.0782 1.23308L18.9514 1.25877L18.5962 1.23308L17.9112 1.36153L17.8351 1.38722L17.8097 1.41291L17.7844 1.48997V1.54135L17.7336 1.59273L17.6829 1.64411L17.2008 1.82393L17.0994 1.87531L16.3129 2.49185L15.3488 3.46804L15.0951 3.62218L15.019 3.64787H14.8922L14.8414 3.67356L14.7907 3.72494L14.7653 3.802L14.7146 3.85338L14.6385 3.90476H14.537L14.3087 3.82769H14.2072H13.9535L13.8266 3.85338L13.7505 3.90476L13.7252 3.95614L13.7759 4.08459L13.7505 4.13596L13.6998 4.18734H13.649L13.5729 4.21303H13.3192L13.2685 4.23872L13.1924 4.2901V4.34148V4.36717L13.167 4.44424L13.0655 4.54699L12.9641 4.64975L12.8626 4.72682L12.6089 4.80388L12.4059 4.93233L12.2791 4.95802L12.203 5.03509L12.1269 5.11216L12.0254 5.31767L11.9493 5.39474L11.7463 5.54887L11.6956 5.62594L11.6195 5.78007L11.5687 6.01128L11.4672 6.1911L11.2643 6.24248L11.1628 6.1911L10.9345 6.01128L10.8076 5.93421L10.7315 5.90852H10.6554L9.94503 5.93421L9.76744 5.90852L9.66596 5.93421L9.56448 5.9599L9.38689 6.03697L9.26004 6.13972L9.18393 6.24248L8.9556 6.62782L8.62579 6.98747L8.54968 7.11591L8.39746 7.47556L8.32135 7.60401L8.21987 7.73246L8.09302 7.83521L7.99154 7.93797L7.89006 7.96366L7.61099 7.98935L7.48414 8.06642L7.30655 8.22055L7.23044 8.24624H7.12896H7.02748H6.926L6.6723 8.349L6.36787 8.55451L6.19028 8.65727L5.35307 8.8114H5.25159L5.20085 8.78571V8.73434L5.17548 8.47744L5.20085 8.32331L5.27696 8.16917L5.35307 8.04073L5.27696 7.98935L5.074 7.93797L4.92178 7.96366L4.76956 8.04073L4.61734 8.06642L4.46512 8.04073L4.18605 7.96366L4.0592 7.98935H4.03383H3.98309H3.95772L3.50106 7.78383L3.42495 7.75815L3.22199 7.78383L2.99366 7.73246L2.537 7.68108H2.20719L1.97886 7.65539L1.80127 7.60401L1.59831 7.57832L1.19239 7.68108L0.964059 7.70677L0.53277 7.68108L0.684989 7.98935L1.31924 9.0683L1.92812 10.1729L2.537 11.2776L3.14588 12.3565L3.78013 13.4612L4.38901 14.5658L4.99789 15.6704L5.63214 16.7494L5.78436 17.0833L5.73362 17.109L5.70825 17.1604L5.65751 17.2888L5.63214 17.3659L5.55603 17.4687L5.45455 17.5457L5.27696 17.6485L5.20085 17.6999L5.15011 17.8026V17.9054L5.20085 17.9568L5.37844 18.0081L5.45455 18.0852L5.30233 18.3421L5.27696 18.3935L4.76956 18.5219L4.66808 18.6247L4.5666 18.7531L4.49049 18.9073L4.36364 18.8816L4.28753 19.01L4.23679 19.1642L4.0592 19.2926L4.00846 19.4467V19.7036L4.08457 20.3972L4.0592 21.1165V21.3477L4.16068 21.8358L4.08457 23.0175L4.10994 23.1717L4.0592 23.3258L4.00846 23.4543L3.95772 23.5313L3.83087 23.6855L3.8055 23.7625L3.78013 23.8396L3.8055 23.9167L3.78013 23.9937L3.72939 24.0451L3.67865 24.0708L3.50106 24.0194L3.42495 24.0451L3.32347 24.1736L3.45032 24.3534L3.78013 24.6103L3.83087 24.713V24.7644L3.8055 24.8415L3.78013 24.9442L3.8055 25.0213L3.88161 25.2525L3.98309 25.4066V25.6378L4.00846 25.8434L4.03383 26.0489L4.10994 26.1516L4.43975 26.3571L4.49049 26.4599L4.51586 26.537L4.5666 26.7682L4.69345 27.1792L4.74419 27.3847L4.61734 27.5132L4.21142 27.5645L4.03383 27.6159L3.88161 27.7187L3.83087 27.8214V27.9499V28.1811L3.88161 28.2838L3.95772 28.4123L3.98309 28.5407L3.88161 28.6435L3.50106 28.8747L3.37421 28.9518L3.14588 29.2086L3.09514 29.2343L2.99366 29.26L2.96829 29.2857L2.94292 29.3885L2.96829 29.6711L2.91755 29.7481H2.7907L2.66385 29.7224H2.537L2.48626 29.8509L2.43552 30.6472L2.35941 30.8271L2.25793 30.8784L1.92812 30.9555L1.80127 31.0326L1.75053 31.1353L1.72516 31.2381L1.7759 31.7262L1.75053 31.7776L1.64905 32.0088L1.62368 32.1372L1.67442 32.24L1.80127 32.3427L1.90275 32.4455L2.23256 32.985L2.33404 33.062L2.68922 33.3446L2.76533 33.4217L2.91755 33.6529L3.06977 33.7813L3.0444 33.8841L2.94292 33.9612H2.81607H2.68922L2.61311 34.1924L2.41015 34.2694L2.30867 34.3722L2.20719 34.5006L2.18182 34.6034L2.25793 34.7832V34.8346L2.20719 34.8603L2.05497 34.9117L1.97886 34.963L1.90275 35.0658L1.87738 35.1942L1.85201 35.3227L1.82664 35.4254L1.44609 36.0163L1.39535 36.1961L1.42072 36.3759L1.49683 36.5815L1.75053 37.198L2.00423 37.8402L2.25793 38.4825L2.51163 39.1247L2.63848 39.4586L2.84144 39.7155L2.94292 39.8183L3.06977 39.8954L3.22199 39.9467H3.37421L3.42495 39.921L3.5518 39.8183L3.62791 39.7926H3.67865L3.88161 39.8697L4.03383 39.8183L4.16068 39.8954L4.41438 40.1523L4.71882 40.2807L4.84567 40.3835L4.92178 40.5376L4.79493 40.7431L4.10994 41.0257L3.93235 41.1284L3.78013 41.3083L3.70402 41.4367V41.5395V41.9248V42.1046L3.72939 42.2074L3.88161 42.4386L3.8055 42.5157L3.70402 42.6698L3.62791 42.7212L3.27273 42.901L3.17125 42.9524H2.94292L2.86681 43.0294L2.7907 43.1065L2.68922 43.4405L2.61311 43.5689L2.00423 44.2112L1.85201 44.5708L1.7759 44.6479L1.5222 44.802L1.49683 44.8534L1.47146 44.9048L1.49683 44.9304L1.54757 44.9561L1.57294 45.0075L1.54757 45.0846L1.42072 45.2387L1.24313 45.2901L1.09091 45.3415L0.913319 45.3929L0.735729 45.5213L0.43129 45.8296H0.38055L0.27907 45.8553H0.2537L0.20296 45.9837L0.10148 46.3434L0 46.4975L0.30444 46.5489L0.40592 46.5746L0.659619 46.7544L0.761099 46.8828L0.837209 46.9856L0.913319 47.1911L0.938689 47.3966L0.913319 47.859L0.938689 48.3471L0.989429 48.5783L1.11628 48.7581L1.59831 49.1949L1.82664 49.4261L1.95349 49.7086L2.00423 49.9398V50.4023L2.05497 50.6335L2.15645 50.7876H2.23256L2.30867 50.7362L2.38478 50.7105L2.51163 50.839L2.537 50.8904H2.58774L2.73996 50.9417L2.91755 51.0445L2.99366 51.0959L3.09514 51.1216H3.22199L3.32347 51.0702H3.39958L3.45032 51.1729L3.39958 51.4555L3.19662 51.6353L3.01903 51.8152L3.09514 52.0977L3.27273 52.3033L3.34884 52.406L3.37421 52.5345V52.6115V52.6629L3.45032 52.9198L3.47569 52.9712L3.45032 53.3308L3.47569 53.4336L3.67865 53.7932L3.72939 53.9217V54.0758L3.67865 54.3584V54.6924L3.72939 55.0006L3.88161 55.2575L3.90698 55.3346L3.93235 55.4117L3.90698 55.4887L3.88161 55.5915L4.21142 56.2851V56.3622V56.4906L4.16068 56.619L3.98309 56.8502L4.08457 56.9273L4.16068 57.0044L4.26216 57.2099L4.41438 57.5182L4.46512 57.6209L4.5666 57.6723L4.84567 57.7751L5.02326 57.9035L5.5814 58.3916L5.70825 58.5457L5.91121 58.9054L6.0888 59.0338L6.29175 59.1109L6.926 59.5733L7.05285 59.6761L7.15433 59.8045L7.20507 59.933L7.15433 59.9586L6.90063 60.0871L6.82452 60.1642L6.69767 60.344L6.11417 61.2431L6.01269 61.3459L5.75899 61.5771L5.68288 61.7055V61.8083L5.70825 61.8853L5.98732 62.1165L6.19028 62.3221L6.29175 62.3991L6.46934 62.4762L6.52009 62.5019L6.57082 62.6046V62.6303V62.8358L6.59619 62.9129L6.62156 62.9643L6.64693 62.99L6.62156 63.0927L6.49471 63.3753V63.5038L6.44397 63.7093L6.4186 63.7863L6.36787 63.8377L6.31712 63.8634L6.24102 63.8377L6.1649 63.812L5.98732 63.8377L5.25159 64.0689L5.15011 64.1717L5.17548 64.3001L5.35307 64.4029L5.55603 64.4543V64.5056L5.53066 64.6855V64.9424L5.60677 65.1479L5.8351 65.5846L5.50529 65.6873L5.35307 65.7901L5.30233 65.9699L5.3277 66.1497L5.40381 66.3553L5.53066 66.5351L5.65751 66.6635L5.78436 66.7663L6.39324 67.0489L6.6723 67.2287L6.82452 67.3058L7.00211 67.4599V67.5627L6.59619 67.9223L6.49471 68.0507L6.44397 68.2049L6.46934 69.0269L6.57082 69.2838L6.82452 69.4637H6.90063H7.15433L7.28118 69.4893L7.38266 69.5921L8.60042 71.6472L8.7019 71.9298L8.65116 73.4712L8.7019 73.7024L9.08245 74.3703L9.2093 74.8841L9.26004 75.9373L9.28541 76.0144L9.33615 76.0915L9.48837 76.2199L9.76744 76.5025L9.89429 76.5796L9.99577 76.7337L10.0719 76.8878L10.0973 77.0163L10.0719 77.0677L9.99577 77.1961L9.9704 77.2475L9.99577 77.3246L10.148 77.5558L10.1987 77.7099L10.2241 77.8383L10.1226 78.2494V78.3521L10.148 78.5063L10.3763 78.9173L10.4271 79.0457L10.4778 79.3797L10.6554 79.7393L10.6808 79.8678L10.4778 80.8183V81.3064L10.5032 81.4862L10.5539 81.589L10.7822 81.6147H10.8076L10.9598 81.8202L10.9852 81.8716L11.1882 81.9229L12.1015 82L12.5074 81.9486L12.7357 81.9229L14.5877 81.5119L14.8922 80.9981L15.0698 80.7926L15.5264 80.433L15.5772 80.3302L15.6025 80.1761L15.5518 79.5852H15.6533L15.7801 79.6109L15.8562 79.5852L15.9323 79.5338L16.0085 79.4311L16.1099 79.3026L16.2875 79.2256L16.9471 79.02L16.9979 78.9687V78.8916L16.9725 78.7118L16.9979 78.6604L17.074 78.5576L17.0994 78.4292L17.1755 77.9411L17.2262 77.787L17.3023 77.6585L17.4292 77.5558L17.5053 77.5044H17.5814L17.6321 77.5301L17.759 77.5558L17.8605 77.5815H17.8858L17.9112 77.5301V77.4787L17.9366 77.453L18.6216 77.2732L19.408 77.042L19.5603 76.9135L19.5856 76.8622L19.611 76.8108L19.6617 76.7594L19.7125 76.708H19.7886L19.814 76.7337V76.708L19.8647 76.6309L19.8901 76.5539L19.9408 75.9373L20.2199 74.8841L20.3214 74.8584L20.8288 75.0125L21.0825 75.141L21.26 75.3465L21.3362 75.6548L21.3615 75.7061L21.8943 75.7832L22.0465 75.8603L22.7822 76.7594L22.9598 76.8878L23.1374 76.9649L23.9746 76.8622L24 76.8365L24.0254 76.8108L24.0761 76.7851H24.1269L24.5328 76.8365L24.8372 76.8622L27.4249 76.8365L28.5159 77.0934L28.9471 77.3502L29.1755 77.4016L29.2262 77.3759L29.3277 77.3246H29.3784L29.4292 77.3502L29.556 77.3759L29.6575 77.453L29.8097 77.5301L29.9112 77.5558L29.9873 77.5815L30.1395 77.787L30.1903 77.864L30.241 77.9925V78.0952L30.1903 78.1723L30.1142 78.2751L30.0634 78.4292L30.1395 78.532L30.2664 78.609L30.3425 78.6861V78.7632L30.3171 78.8916L30.2918 78.943L30.3425 78.9944L30.444 79.0714L30.4693 79.0971L30.4947 79.2513L30.5962 79.3797L30.9006 79.7137V79.7907L30.8499 79.8678L30.7992 79.9192V79.9962L30.7738 80.0476L30.7484 80.1761V80.2531L30.7738 80.3559L30.7992 80.3816L30.8499 80.4073L30.9006 80.4586L31.0782 80.7926L31.129 80.844L31.2558 80.8954L31.3319 81.0495L31.3573 81.2293L31.3066 81.3835L31.3827 81.4605L31.408 81.7688L31.5095 81.8202V81.7431L31.6364 81.255L31.7125 81.1266V80.6642L31.9662 79.688L32.0423 79.5338L32.3467 79.2513L32.4989 79.0457L32.9302 77.864L32.981 77.8383L33.0825 77.7613L33.1332 77.6842L33.3108 77.2218L33.4123 76.8622L33.463 76.7594L33.4884 76.7337L33.5391 76.708L33.5899 76.6823L33.6406 76.6566V76.6053L33.666 76.4768L33.7167 76.3227L33.7421 76.297V76.2713L33.8436 76.2456L33.9958 76.1942L34.5539 76.2456L34.6554 76.297L34.9091 76.5025L34.9598 76.5539L35.2389 76.297L35.3404 76.2456L35.5687 76.1942L39.2727 76.2199L40.1607 76.1685L40.4144 76.2199L40.4905 76.2456L40.5159 76.297L40.5412 76.5539V76.6053V76.6566L40.5666 76.7337V76.9392L40.6173 77.0677L40.6934 77.1447L40.9725 77.2732L41.2262 77.4787L41.3023 77.5558L41.3277 77.6071V77.6585L41.3531 77.7099L41.4038 77.7356L41.5307 77.4016L41.7082 76.7851L41.8605 76.2199L42.1142 75.3465L42.3425 74.6272L42.5962 73.7024L42.7992 73.0345L43.0275 72.2895L43.2304 71.5702L43.4334 70.9023L43.611 70.26L43.6364 69.849V68.9242L43.611 68.3076V67.7425V67.1773L43.6617 66.9975L43.8647 66.6635L44.1184 66.3039L44.3975 65.9185L44.6512 65.5332L44.9049 65.1479L45.1839 64.7625L45.2854 64.6084L45.3615 64.4543L45.463 64.3001L45.5645 64.146L45.6406 63.9919L45.7167 63.8377L45.7928 63.6579L45.8689 63.5038L46.0465 63.0413L46.1987 62.5789L46.3763 62.1165L46.5285 61.6541L46.6554 61.3202L46.7061 61.2688L46.7822 61.2174L47.315 61.1403L47.4419 61.1147L47.7209 61.0633L48 61.0376L48.1269 61.0119L50.1311 60.5752L52.1099 60.1385L54.1142 59.7018L56.1184 59.265L57.0063 59.0595H57.4884L58.6047 59.0338H59.7209L60.8372 59.0081H61.9281H62.4102L62.537 59.0338L62.7146 59.1623L62.8668 59.265L63.1713 59.4705L63.7294 59.8045L64.2875 60.1385L64.8203 60.4981L65.3784 60.8321L65.9366 61.1917L66.4693 61.5257L67.0275 61.8853L67.5856 62.2193L67.814 62.3734L67.8647 62.4505L67.8901 62.5276V62.7331V62.9386L67.9915 63.2982L68.0169 63.5038L67.9915 63.6322V63.9148V64.0432L67.9154 64.3772V64.5313L68.1691 64.4543L68.2199 64.4029L68.2706 64.3772L68.3467 64.2487H68.3721L68.5243 64.1717L68.7019 63.9148L68.8541 63.8377H68.9302L68.981 63.7863L69.0317 63.735V63.6836L69.0825 63.6579L69.1839 63.6836L69.3362 63.7093L69.463 63.6579L69.5391 63.5551L69.6152 63.4524L69.666 63.3753L69.0825 62.8101L68.6004 62.3734L68.1438 61.9624L68.1184 61.7826L68.3214 61.3459L68.3975 61.1917L68.5497 60.8321L68.7019 60.4981L68.778 60.344L68.9556 59.9586L69.3615 59.0852L69.7674 58.2375L69.945 57.8521L70.0973 57.5695L70.1987 57.4925L70.5285 57.4668L70.4778 57.2099L70.4524 56.8246L70.4271 56.6961L70.3763 56.6447L70.1226 56.619L70.1987 56.4135L70.4778 55.5144L70.7569 54.6153L71.0359 53.7419L71.315 52.8427L71.3911 52.5345L71.4672 52.4574L71.5941 52.4317H72V52.2776L71.9493 52.2262Z" fill="#004899"/>
</svg>
