<svg width="75" height="82" viewBox="0 0 75 82" fill="none" xmlns="http://www.w3.org/2000/svg">
<path d="M25.9738 2.33059L26.2191 2.51458L26.3725 2.39192L26.4951 2.23859L26.8018 2.39192L26.9858 2.0546L27.0165 1.53328L26.9858 1.10396L26.9245 0.950636L26.8938 0.858639V0.766642L25.8818 1.59461L25.6978 1.87061L25.7285 2.11593L25.9738 2.33059ZM11.3156 54.1249L11.6223 54.0636L11.8676 54.0329L12.4196 54.1249L12.5729 54.1862L12.6343 54.2476H12.6649L12.7569 54.1249L12.8489 53.9409L12.9409 53.7569L12.9716 53.6956L13.1556 53.5116L13.1862 53.4196L13.8302 53.1436L13.9835 53.0209L14.0449 52.9289L14.1062 52.837L14.1369 52.745L14.1675 52.653L13.6156 52.5303L12.7569 51.9783L12.1743 51.9476L11.8983 52.0396L11.193 52.377L10.4263 52.5916L10.2423 52.7143L10.0583 53.2356L9.62902 54.0329L9.56769 54.2169L9.41436 56.0875L9.53702 56.4555L9.72102 56.5475L10.0277 56.6395L10.3343 56.6702L10.549 56.6088L10.7943 56.4555L11.285 56.3328L11.469 56.2102L11.5303 56.0262L11.5916 55.7195L11.6223 55.4435L11.4996 55.3209L11.4076 55.2595L11.377 55.1062V54.9222L11.3463 54.7996L11.2543 54.7382L10.9783 54.5849L10.917 54.4929L11.009 54.2782L11.3156 54.1249ZM73.7203 30.267L73.5976 30.175L73.5056 30.0217L73.4749 29.899L73.5056 29.6844V29.5617L72.9536 27.6604V27.5071L73.0456 27.2924L73.0763 27.1698V27.0471L73.015 26.8018V26.6791L73.0763 26.5258L73.2296 26.4338L73.383 26.3418L73.5056 26.2191L73.5363 26.0965V26.0045L73.5056 25.9125L73.4749 25.8205L73.5056 25.3298L73.4749 25.0845L73.3216 24.8699L73.2603 24.8392L73.1376 24.9005H73.0763L73.015 24.8392L72.9536 24.6859L72.8923 24.6245L72.4016 24.2565L72.371 24.1645L72.279 24.1339L72.1257 24.1645L72.003 24.1339L71.8497 24.0419L71.6043 23.8272L71.2364 23.3366L70.991 22.8153L70.5924 21.374L70.439 21.19L70.2244 21.0673L69.9484 20.9753L69.7951 20.8833L69.5191 20.638L69.3657 20.546L69.2431 20.5153L68.9671 20.546L68.8444 20.5153L68.7218 20.3927L68.5991 20.1473L68.5378 19.8714L68.5991 19.6567L68.7831 19.5954L68.9978 19.6567L69.2431 19.7487L69.4271 19.7794L69.6724 19.7487H69.8564L70.0404 19.7794L70.9297 20.27L71.267 20.3007L71.6043 20.086L71.727 20.0553L72.1563 20.1167H72.371L72.555 20.0553L72.7083 19.9634L72.9843 19.7487L73.1376 19.5647L72.8923 19.4114L72.095 19.1047L71.3897 18.9821L71.1444 18.7981L70.8377 18.7061L70.1017 18.2461L69.4884 17.7248L69.2737 17.6328L69.1511 17.5408L68.9978 17.3568L68.7831 17.1728L68.5378 17.0808L68.2924 17.1114L67.7405 17.2341L67.4338 17.2648L67.1578 17.2341L66.9125 17.1728L66.6978 17.0808L66.3298 16.8661L65.8085 16.4981L65.7165 16.3141L64.9499 15.8542L64.6432 15.5782L64.4899 15.3635L64.4286 15.1182L64.3672 14.9648L63.5086 13.8915L63.4473 13.7382L63.3246 13.5542L63.0486 13.5849L62.7113 13.6769H62.466L62.4046 13.5849L62.3433 13.2476L62.282 13.0942L62.1593 13.0329H62.006L61.73 13.0636L61.4233 13.0329L61.1473 12.9716L60.902 12.8796L60.6567 12.7263L60.3194 12.3583L60.1967 12.2969L60.0434 12.3276L59.7981 12.5116L59.7367 12.5423L59.6754 12.6036L59.3687 12.9716L59.2461 13.0022L59.1234 13.0329L58.8474 13.0636L58.7248 13.0329V13.1249L58.6941 14.0755L58.8168 14.9342L58.6021 15.0875L57.3448 15.2408L57.0075 15.4248L56.8235 15.4555L56.5782 15.3635L56.2408 15.0568L56.0262 14.9035L55.8422 14.8422L55.2289 14.7809L54.7996 14.6582L54.6462 14.7195L54.6769 15.2102H54.4929L54.0329 14.9955L53.8796 14.9648L52.9903 15.0875H52.8063L52.6223 15.0262L52.4076 14.8729L52.1316 14.5969L52.009 14.5049L51.7943 14.4129L51.641 14.3822H51.1197L50.7517 14.2595L50.261 13.7076L49.8317 13.5849L49.6171 13.6462L48.9731 13.8915L48.6971 13.9222L48.4824 13.8609L48.2984 13.7689L48.0531 13.6769L46.7038 13.4009L46.2438 13.2476L45.9065 12.9716L45.7838 12.6649L45.7225 12.2969L45.5999 11.8676L45.5079 10.549L45.3239 9.93568L44.8025 9.81301L44.3732 9.87435L43.9132 9.69035L43.0853 9.1077L42.8093 8.70905L42.7173 7.78908L42.3493 7.48242H42.0426L41.0307 7.85041L40.7853 7.91174H40.54L40.264 7.85041L39.9574 7.72775L39.8347 7.60509L39.804 7.48242V7.3291L39.7734 7.20643L39.6507 7.08377H39.5894L39.528 7.11444H39.4054L38.5467 6.77711L37.6268 6.74645L37.1055 6.47046L35.4495 5.21316L35.2042 5.0905L34.4375 4.87584L34.1922 4.75318L33.8856 4.53852L32.6896 3.2199L32.4443 3.0359L31.739 2.88257L31.555 2.91324L31.371 3.00524L31.279 2.79058L31.003 2.51458L30.9417 2.39192L30.911 2.1466L30.7883 2.11593L30.6043 2.17726L30.3897 2.20793L30.083 2.11593L29.8377 1.93194L29.6537 1.68661L29.531 1.41062L29.4084 1.19596L29.0404 0.889304L28.7644 0.521316L27.8751 0L27.8444 0.153328L27.8751 0.306657V0.490651L27.7831 0.674645L27.3231 1.13463L27.2004 1.28796L27.1391 1.44129L27.2924 1.62528L27.5071 1.71728L27.7831 1.74794L27.9978 1.80927L28.0898 1.99327L27.5378 1.80927L27.3231 1.83994L27.1085 2.08527L27.0471 2.23859V2.33059L27.0165 2.42259L26.8938 2.51458L26.7711 2.57592H26.6791L26.6178 2.54525L26.5871 2.42259L26.4645 2.60658L26.3418 2.72924L26.2498 2.88257L26.1885 3.43455L26.1578 3.67988L26.0352 3.86387L25.7898 3.98654L25.7592 3.64921L25.6672 3.34256L25.5138 3.06657L25.2685 2.85191L24.9619 2.72924L24.7779 2.82124L23.7966 4.07853L23.5819 4.2012L23.2446 4.26253L22.8766 4.38519L22.5086 4.41586L22.2019 4.26253L22.0486 4.32386L21.8953 4.35453H21.558L21.4353 4.38519L21.1593 4.50785L21.0366 4.59985L20.1473 4.53852L19.8714 4.59985L19.0127 5.39716L18.3994 5.73448L17.8474 5.58115L17.6021 5.70381L17.4794 5.88781V6.10247L17.5101 6.40912L17.4794 6.50112L17.4181 6.62378V6.68512L17.4488 6.77711L17.6328 6.89978L17.8474 7.48242L17.7554 7.35976L17.5714 7.02244L17.4181 6.89978L17.2954 6.80778L17.1728 6.68512L17.1114 6.50112L17.3568 5.70381V5.58115L17.2954 5.45849L16.9581 5.70381L16.1915 5.94914L15.8848 6.0718L15.7928 6.1638L15.6395 6.40912L15.5475 6.50112L15.1488 6.80778L15.0568 6.86911L14.9035 6.89978L14.6582 7.08377L14.2595 7.1451L13.9529 7.26776L13.7689 7.29843L13.6156 7.35976L13.3702 7.60509L13.1862 7.66642H12.7569L12.5729 7.63575L12.3583 7.54375L11.9903 7.85041L11.6836 8.27973L11.5303 8.80105V9.35303L11.561 9.53702L11.6223 9.72102L11.745 9.87435L11.8983 9.93568L12.1129 9.96634L12.2969 10.0583L12.4196 10.2117L12.5116 10.5797L12.6036 10.7943L12.6649 11.0396V11.3463L12.5729 11.561L12.4503 11.6836L12.3583 11.8369L12.3276 12.1129L12.3583 12.3583L12.4503 12.6036L12.7569 13.0942L12.9409 13.2782L13.0329 13.4009L13.0636 13.5542L13.0329 13.6462L12.8796 13.9222V14.0755H12.7876L12.7263 13.8915L12.6649 13.7996L12.6036 13.7382L12.4503 13.6769L12.4196 13.7382V13.8609L12.2969 14.1982L12.3276 15.1488L12.4196 15.6702L12.4503 15.9768L12.2356 16.6515V16.8048L12.1743 16.8661L12.1129 16.9581L12.0823 17.0501L11.9596 17.3874L11.8983 17.5408L11.8063 17.6328L11.7143 17.6634L11.653 17.6941V17.8474L11.561 18.0927L11.3463 18.3687L10.549 19.0127L9.81301 19.902L9.62902 20.0553L9.35303 20.2087L9.04637 20.27L8.80105 20.1473L8.49439 20.5767L8.1264 20.9753L8.06507 21.0673L7.97307 21.2206V21.4966L7.94241 21.6806L7.85041 21.7726L7.60509 21.9566L7.20643 22.3859L6.96111 22.5699L6.71578 22.6619L6.50112 22.7846L6.53179 23.0606L6.96111 23.7659L7.17577 24.2259L7.39043 24.5325L7.51309 24.8392L7.54376 24.9619L7.57442 25.0232L7.81975 25.2685L8.03441 25.7285L8.18773 25.9125L8.49439 25.9738H9.41436L9.59835 26.0658V26.1578L8.49439 26.2498L8.15707 26.2191L7.94241 26.1271L7.78908 25.9738L7.63575 25.7285L7.60509 25.6058L7.63575 25.4832L7.60509 25.3912L7.45176 25.3605L7.35976 25.4218L7.2371 25.5445L7.1451 25.6672L7.11444 25.7592L7.0531 26.0352L6.56245 26.6791L6.2558 27.3538L6.22513 27.5684L6.19447 28.4271L6.13313 28.6724L5.61182 29.4697L5.45849 29.623L5.30516 29.6537L5.05984 29.8377L4.90651 29.8684L4.75318 29.8377L4.59985 29.715L4.47719 29.6844L4.35453 29.715L4.26253 29.7764L4.2012 29.8377L4.13987 29.8684L3.98654 29.899L3.1279 29.8684L3.00524 29.899L2.85191 30.0217L2.72924 30.0524L2.57592 30.0217L2.45325 29.9297L2.36126 29.899L2.20793 29.9604L2.1466 30.083L2.0546 30.4203L1.99327 30.4817L1.93194 30.543L1.77861 30.6657L1.68661 30.819L1.65595 30.9417L1.59461 31.003L1.37996 31.1257L1.31862 31.187L1.22663 31.647L1.37996 32.199L1.65595 32.7203L3.06657 34.6215L3.2199 35.0815L3.18923 35.2655L3.00524 35.6028L2.9439 35.7868L2.91324 35.9708L2.9439 36.3388V36.5228L2.85191 36.7068L2.75991 36.7375L2.63725 36.7988L2.54525 36.8908L2.48392 37.0135L2.45325 37.1975V37.5654L2.39192 37.6881L2.0546 38.1788L1.99327 38.3321L2.02393 38.5161L2.08527 38.6694L2.26926 38.8841L2.57592 39.62L2.72924 39.8654L2.85191 40.0187L2.97457 40.2334L3.06657 40.4787L3.15856 41.0307L3.61855 42.38L3.64921 42.6866L3.58788 42.9013L3.31189 43.0546L3.2199 43.1466L3.25056 43.2693L3.28123 43.3613L3.37322 43.8212L3.31189 44.4959L3.0359 44.9559L1.62528 45.9985L1.31862 46.1212L1.04263 46.1825L0.981301 46.1518L0.858639 45.9678L0.797307 45.9372H0.643979L0.306657 45.8452L0.275991 45.8145L0.245325 45.7532L0.21466 45.6918L0.122663 45.6612H0L0.0306657 45.7838L0.091997 45.9065L0.153328 45.9985L0.613313 46.3665L0.797307 46.5505L1.01197 46.8571L1.10396 47.0411L1.1653 47.4705L1.25729 47.5931L1.41062 47.6238H1.62528L1.90127 47.7464L2.42259 48.2064L2.66791 48.2984L3.40389 48.3291L3.74121 48.4211L4.07853 48.5744V48.4518L4.50785 48.7891L5.55049 49.7704L6.89978 51.365L7.39043 51.6717L7.51309 51.7023L7.75841 51.733L7.85041 51.7637L7.94241 51.825L8.09574 51.9783L8.27973 52.0703L8.83171 52.5303L9.3837 52.745L9.69035 52.7756L9.81301 52.653L9.84368 52.377V52.2236L9.78235 52.1316L9.44503 51.7637L9.41436 51.733L9.3837 51.4877L9.41436 51.273L9.53702 51.181L9.72102 51.273L9.78235 51.365L9.84368 51.4263L9.90501 51.4877H10.0277L10.1503 51.4263L10.2423 51.3037L10.3343 51.1197L10.733 50.9357L11.1316 50.5064L11.9903 49.3104L12.5423 47.8998L12.6649 47.7464L12.8183 47.6544H12.9409L13.1862 47.6851L13.2782 47.6544L13.4009 47.5011L13.4622 47.4705L13.5849 47.4398L13.3089 47.8384L13.2169 47.9304L13.0636 47.9918L12.9102 48.0224L12.7876 48.0838L12.7263 48.2371L12.6649 48.5438L12.4196 49.0957L12.3583 49.3717L12.4196 49.5557L12.6036 49.4944L12.8489 49.3717L13.1249 49.3411L13.4316 49.6171L13.6156 49.6784L13.6769 49.4024L13.7689 49.5557V49.6784L13.7076 49.7704L13.5849 49.8624H13.4316L13.3396 49.7704L13.2476 49.6477L13.1556 49.5864L12.8183 49.6171L12.6649 49.7397L12.6036 49.9237L12.4809 50.1997L12.1129 50.445L11.9289 50.6597L11.9903 50.8743L12.1436 50.997L12.2356 51.0277L12.5116 50.997L12.6036 51.0277L12.6649 51.181L12.7876 51.2423L12.9716 51.2117L13.4009 50.9663L13.6156 50.905L13.7382 50.813L14.1062 50.4144L14.1982 50.261L14.3209 49.7397L14.5355 47.2558L14.5049 46.8878L14.1062 46.2132L14.0142 45.8452L14.0449 45.4772L14.1369 44.9865L14.2595 44.6799L14.2902 44.5879L14.3822 44.4652L14.8115 44.4346L14.9035 44.4039V44.1892L14.9342 44.0666L15.0262 44.0052L15.7928 43.5759L15.7008 43.8519L15.4862 44.0052L15.2715 44.0972L15.1795 44.2506L15.1182 44.5572L14.9648 44.6492L14.7502 44.7105L14.5662 44.9252L14.6582 45.0785L14.6275 45.2012L14.5355 45.3239L14.4742 45.4772V45.6305L14.5049 45.7225L14.5355 45.7838L14.5662 45.8758L14.5969 45.9065L14.7502 46.1212L14.7809 46.1825L14.8422 46.2745L14.8115 46.4585L14.7502 46.7345V46.8878L14.8422 47.4705V48.2064L14.8729 48.3904L14.9648 48.5438L15.1182 48.7891L15.3635 49.4637L15.5168 49.7091L15.6088 49.7704H15.7622H16.0381L16.0688 49.8317L16.2528 50.261L16.3141 50.8437V51.1503L16.1915 51.365L15.8235 51.7637L15.6702 51.9783L15.3942 52.7143L15.3328 53.0209L15.2102 53.2969L15.1795 53.3889L14.9035 53.8796L14.5049 55.1675L14.4742 55.3822L14.3209 55.8729L14.2595 56.1795L14.3822 56.3942L14.2595 56.6395L13.8302 57.3141L13.6156 57.7741L13.5542 58.2648L13.4929 58.5408L13.3702 58.8168L13.1862 59.0314L12.7876 59.2767L12.6649 59.3687L12.5729 59.5221L12.4809 59.6754L12.3889 59.7981L12.2663 59.8901L12.3583 59.2767L12.2969 58.9701L12.0209 58.9088L11.8676 59.0927L11.377 60.1047L11.3156 60.166L11.009 60.5034L10.8863 60.534H10.7943L10.7023 60.5034L10.549 60.4727L9.62902 60.6567L9.44503 60.718L9.1077 60.3807L8.98504 60.5647L8.92371 60.9634L8.77038 61.086L8.67838 60.81L8.73972 60.718L8.86238 60.35L8.73972 60.534L8.67838 60.718L8.58639 60.8714L8.40239 60.9634L8.37173 61.086L8.40239 61.178L8.43306 61.27L8.52506 61.3007L8.73972 61.4233L9.23037 61.546L9.41436 61.6993L9.3837 61.914L9.2917 62.19L9.32236 62.466L9.41436 62.5273L9.62902 62.6193L9.72102 62.7113L9.75168 62.834V62.9566L9.72102 63.2019L9.62902 63.5393V63.6313L9.72102 63.7233L9.84368 63.7539L9.96634 63.8153L9.99701 63.9379V64.0913L10.0583 64.3366L10.089 64.4899L10.0583 64.6126L9.96634 64.8579L9.93568 64.9806V65.1032V65.1952L10.0277 65.4405V65.5632L9.99701 65.6552L9.93568 65.7472L9.90501 65.8392L9.96634 66.0845L10.2117 66.4832L10.3343 66.7285L10.365 66.8512V67.0965L10.3957 67.2191L10.5183 67.3418L10.641 67.4031L10.7023 67.4951V67.6178L10.4877 67.8325L9.50636 68.2924L9.32236 68.5071L9.13837 68.8138L8.92371 69.0898L8.64772 69.2124L8.40239 69.1511L7.88108 68.8751L7.60509 68.8138L7.3291 68.7831L7.08377 68.8138L6.86911 68.8751L6.68512 68.9978L6.53179 69.2124L6.37846 69.5191L6.2558 69.8564L6.22513 70.1017L6.28646 70.2551L6.50112 70.5617L6.56245 70.715V70.8377L6.50112 71.083V71.2057L6.77711 71.7577L7.20643 71.819L7.75841 71.6657L8.34106 71.6043L8.18773 71.8803L6.50112 74.1189L6.43979 74.3336L6.56245 74.6096L6.74645 74.7629L7.3291 75.1002L7.54376 75.1616H7.75841H7.85041L7.97307 75.0389L8.49439 74.7629L9.47569 74.0269L9.69035 73.8123L9.78235 73.5976L9.90501 73.1376L9.99701 72.9536L10.1197 72.8616L10.2423 72.8003L10.3957 72.7696L10.917 72.7083H10.9476L11.0396 72.831L11.2543 72.8923L11.5303 72.923L11.745 73.015L11.9903 73.199L12.3889 73.6589L12.6343 73.8429L12.9716 74.0269L13.3089 74.0576H13.7996L14.1369 74.1496L14.4742 74.4562L14.7502 74.8549L15.0568 75.1922L15.5475 75.2536L16.4061 74.9776L16.8355 74.7322L17.2954 74.6709L17.6634 74.8242L18.3074 75.4682L18.3994 75.5295L18.5834 75.6829L18.6754 75.7135H18.9821L19.258 75.8669L19.3194 75.9895L19.2887 76.1735L18.9821 76.6948V76.9708L19.35 77.5228L19.5034 78.2588L19.8407 78.8721L19.8714 79.1174L19.9634 79.3934L20.178 79.5774L20.454 79.7307L20.6687 79.8841L20.73 80.0067L20.7913 80.2521L20.8527 80.3747L20.9753 80.4667L21.2206 80.5587L21.3433 80.6507L21.5273 80.896L21.65 81.172L21.834 81.3867L22.1406 81.4787L23.0606 81.448L23.2752 81.4787L23.7046 81.632L23.9192 81.6627H24.0419L24.2565 81.6014H24.3792L24.5325 81.6627L24.6859 81.7547L24.9312 82L25.2992 81.6933L25.6365 81.356L25.7285 81.08L25.8818 80.4667L26.0045 80.2521L26.2498 80.1907H26.5871L26.8938 80.1294L27.0165 79.8841L26.9551 79.5774L26.6485 78.9948V78.6574L26.8018 78.3201L27.0471 77.9828L27.6298 77.4615L28.1511 77.1548L29.3164 76.6948L29.807 76.3575L29.9297 76.1429V75.8975V75.6522L29.9604 75.4069L30.1444 75.1002L30.359 74.8549L30.3897 74.6402L30.083 74.4562L29.9297 74.2109L29.8377 73.7509L29.807 73.2603L29.899 72.9843L30.1444 72.8003L30.2364 72.555L30.359 72.003L31.1563 70.3777L31.279 69.8257V69.0591L31.3403 68.8444L31.463 68.7218L31.6163 68.6911H31.7696L31.923 68.6298L32.107 68.5378L32.1683 68.4764V68.3844L32.291 67.4338L32.3829 67.1885L32.5056 66.9432L32.5976 66.8818L32.7509 66.7898L32.8429 66.7285L33.1496 66.4218L33.2416 66.1765L33.0883 65.3485V65.1952V65.1339L33.1496 65.1032L33.3029 65.0726L33.3949 65.0112V64.8886L33.3643 64.6126V64.1526L33.3949 63.9073L33.4869 63.6619L33.7322 63.1406L33.9162 62.558L34.0082 62.006V61.8527L33.9469 61.6073V61.5153L34.1002 61.27L34.3149 61.2087L34.5909 61.2393L35.1429 61.3927L35.2962 61.5153L35.3882 61.6993L35.5722 62.5273L35.6948 62.742L35.8788 62.65L36.0935 62.4966L36.3082 62.4353L36.5228 62.3433L36.6455 62.0673L36.6148 61.73L36.4615 61.546L36.2468 61.3927L36.0935 61.1473V60.8714L36.2468 60.6874L36.7068 60.35L36.8601 60.1354L37.2588 59.3687L37.4428 59.1847L38.0561 58.6634L39.3441 56.9461L40.2947 56.1182L40.54 55.9955L41.3987 55.6889L42.9933 55.1369L44.5879 54.5849L46.1825 54.0329L47.7771 53.4809L49.3717 52.9289L50.9663 52.377L52.561 51.825L54.1556 51.273L55.3209 50.8743L56.0875 50.4144L56.7928 49.8624L57.5595 49.2797L58.3261 48.6971L59.0927 48.1144L59.8594 47.5318L60.626 46.9491L61.3927 46.3665L62.1593 45.7838L62.926 45.2012L63.5699 44.4652L64.2139 43.7292L64.8579 42.9933L65.5019 42.2573L66.1459 41.5213L66.7898 40.7853L67.4338 40.0494L68.0778 39.3134L68.5991 38.7307L69.3044 38.0868L69.6111 37.7188L69.7951 37.2895L69.9791 36.5535L70.347 35.0815L70.7457 33.5789L71.1137 32.0763L71.5123 30.5737L71.6657 29.9604L71.7577 29.8377L72.1257 30.175L72.3097 30.3897L72.371 30.5123L72.4936 30.6043H72.8003L73.3523 30.543H73.9656H74.0576V30.451L73.7203 30.267Z" fill="#004899"/>
</svg>
