<svg width="62" height="90" viewBox="0 0 62 90" fill="none" xmlns="http://www.w3.org/2000/svg">
<path d="M61.4407 60.4415L60.9295 59.5585L60.4183 58.6522L59.907 57.7692L59.3958 56.8629L58.9078 55.9799L58.3966 55.0968L57.8854 54.1906L57.3741 53.3075L57.2347 53.0519H57.1418L56.5376 53.1216L56.3749 53.0984L56.189 52.9822L56.1193 52.9357H55.9799H55.794H55.701L55.6081 52.9125L55.3989 52.8892L54.2138 53.4934L54.0279 53.5631L53.7723 53.6096L53.5399 53.6328L53.2843 53.5864L53.0519 53.4702L52.9357 53.354L52.7266 53.0984L52.5871 52.9822L52.4942 53.0054L52.0759 53.354V52.9589V52.3315V51.7041V51.0767V50.4493V49.8218V49.1944V48.567V47.9628V47.6607L52.1224 47.4748L52.1456 47.4051L52.1921 47.3586L52.2386 47.3354L52.2851 47.3122H52.3083L52.378 47.3354H52.4012L52.4245 47.3122V47.2424L52.4477 47.2192L52.4942 47.1263L52.5407 47.0565L52.5639 46.9636L52.5174 46.8474L52.471 46.7777L52.3083 46.6615L52.2618 46.5918L52.2386 46.4988L52.1921 46.3362L52.1456 46.2665L52.1689 46.2432H52.3083L52.3315 46.2665H52.4012H52.4477L52.378 46.1503V46.0806L52.4245 46.0341L52.4942 46.0108L52.471 45.9876V45.9644L52.4477 45.9411L52.5407 45.8947L52.5639 45.8482L52.5871 45.7552L52.6336 45.6855V45.6623V45.5926L52.4245 45.6158L52.3315 45.639L52.2386 45.6855L52.1456 45.7785L51.9597 45.9876L51.8668 46.0806L51.5647 46.2432L51.4485 46.3362L51.2626 46.5221L51.1696 46.5918L50.9373 46.7312L50.8443 46.8009L50.7049 47.0101L50.6584 47.0565L50.5422 47.1495L50.4725 47.1727L50.426 47.2424L50.3796 47.3586L50.3331 47.4284L50.2401 47.4981L49.938 47.5678L49.6127 47.7072L49.543 47.7769L49.4733 47.8931L49.4268 47.9861L49.3803 48.1022L49.1247 48.172L48.962 48.3114L48.8691 48.3579H48.7994L48.7529 48.3346L48.7297 48.3114L48.6832 48.2882H48.6135L48.5902 48.3114L48.567 48.3579L48.5205 48.4043L48.4276 48.4276H48.2417H47.3819H46.4988L45.639 48.4043H44.5236L44.5701 48.3114V48.2184V48.1487V48.0325L44.5933 47.9861L44.6631 47.8931L44.6863 47.8234L44.6631 47.7769L44.6398 47.684L44.6166 47.6375L44.5236 47.4284L44.1751 47.2192L44.1286 47.0333L44.1751 46.8474L44.1983 46.7545L44.1518 46.6615L44.0356 46.5221L43.9892 46.4291L43.9659 46.3362L43.9892 46.1735L43.9659 46.127L43.9427 46.1038H43.8962H43.8265H43.78L43.7103 46.0341L43.5709 45.9179L43.4779 45.8714L43.385 45.8482L43.0829 45.8714L42.8505 45.8482L42.7576 45.8249L42.5717 45.7088L42.3625 45.6623L42.2696 45.639L42.2231 45.6623L42.1998 45.6855L42.1766 45.6623L42.1301 45.639L42.1069 45.6158L41.5027 45.4996H39.5507L39.6669 45.337L39.9225 45.0581L40.0387 44.9187L40.1084 44.756L40.1549 44.6863L40.2246 44.6398H40.2943L40.3641 44.6166L40.4338 44.5701L40.457 44.5236L40.4802 44.3842L40.6894 44.2215L40.7359 44.1518L40.7823 44.0589L40.8056 43.9194L40.7591 43.5012L40.7126 43.4082L40.5964 43.2223L40.5267 43.1526L40.3408 43.0364L40.2711 42.9667L39.8993 42.4322L39.8064 42.2231L39.7599 42.1301L39.6669 42.0372L39.574 41.9907L39.2951 41.9442L39.2022 41.8745L39.1092 41.8048L38.9001 41.5259L38.8768 41.4562V41.3633L38.9233 41.1309L38.9001 41.038L38.8768 40.945L38.8071 40.8753L38.7607 40.8521H38.6677L38.6212 40.8288L38.5748 40.7823L38.4818 40.6894L38.4353 40.6429L38.0403 40.4338L37.9706 40.3641L37.9473 40.2711L37.9241 40.062L37.8776 39.9458L37.7382 39.7599L37.6685 39.6437V39.5507L37.6917 39.3648V39.2719L37.622 39.1557L37.4593 38.9466L37.4361 38.8304L37.3664 38.6677L37.1805 38.5747L36.9713 38.505L36.8087 38.3888L36.7854 38.3191L36.739 38.0868V37.9938H36.8087L36.9713 38.0635L37.134 37.9473L37.1805 37.7614L37.134 37.5755L36.9946 37.4593L36.8087 37.4129L36.6693 37.3431L36.5298 37.2502L35.9024 36.5763L35.6933 36.4601L35.6468 36.3904L35.8792 36.2974L35.9489 36.1813V36.0651L35.9954 35.9954L36.0186 35.9256L35.9954 35.7862L35.8327 35.5538V35.4841H35.9256L36.1348 35.5538H36.2277L36.3207 35.5074L36.5066 35.4144L36.5995 35.3912L36.7157 35.3679L36.9016 35.3912L36.9946 35.3679L37.0875 35.3215L37.134 35.2285V35.1356L37.0875 35.0426L37.0411 34.8335L36.6925 34.3455L36.646 34.2293L36.6925 34.1131L36.7622 33.9737L36.8784 33.5321V33.2765L36.9016 33.1836L36.9713 33.1371L37.1805 32.9977L37.227 32.9512L37.2734 32.8118L37.3431 32.7653L37.4826 32.6956L37.715 32.4864L38.11 32.2773L38.4353 31.9752L38.6212 31.859L38.8071 31.7196L38.9001 31.6731H39.2486L39.481 31.6266L39.6437 31.5337L39.7599 31.3943L39.8761 31.1851L39.969 30.9992L39.9923 30.883V30.7901L39.9458 30.6739L39.8528 30.4415L39.8296 30.3253L39.7599 29.9535L39.7366 29.8606L39.5043 29.605L39.4578 29.4888V29.2564L39.5507 29.0705L39.6437 28.9078L39.9225 28.2804L40.0852 28.141L40.5964 27.4671L40.6662 27.3277L40.7126 27.1882L40.8056 26.7467V26.6073L40.7591 26.4446L40.7359 26.282L40.7823 26.1193L40.9218 25.8404L40.945 25.7475L40.9682 25.5383L41.0147 25.4686L41.0612 25.4222L41.1077 25.3524V25.2595L41.0844 24.9806L41.0612 24.8877L41.0147 24.818L40.9915 24.7483L41.0147 24.6785L41.1077 24.6321H41.1774H41.2239L41.2936 24.5856V24.5624V24.4926L41.3168 24.4694H41.34L41.4098 24.4926H41.433L41.6189 24.4694L41.7119 24.4229L41.7816 24.33L41.828 24.2835L41.921 24.3067L42.0139 24.33H42.2928H42.3393L42.3857 24.2835V24.237V24.1906L42.409 24.1441L42.4787 24.0744L42.6181 24.0046L42.7343 23.8885L42.804 23.8187L42.897 23.7955L42.9899 23.7723H43.0596L43.0829 23.749L43.1061 23.7026L43.1294 23.6561V23.6328V23.6096V23.5864L43.1526 23.5631L43.1758 23.5399H43.2455H43.2688L43.3617 23.4934L43.4547 23.4237L43.5012 23.354L43.5476 23.0984L43.5941 23.0287L43.78 22.9822L43.8033 22.9589L43.8265 22.9125L43.8497 22.8892L43.9194 22.866L44.0821 22.8892H44.1518L44.2448 22.866L44.3377 22.8195L44.5701 22.6336L44.849 22.471L44.9419 22.4012L44.9884 22.3315L45.0813 22.1456L45.1278 22.1224H45.151L45.1975 22.1456H45.244H45.2905L45.337 22.1224L45.4067 22.0527L45.5693 22.0062L45.7785 21.7738L45.9179 21.7041L45.9876 21.6809L46.4059 21.6344L46.4291 21.6112L46.4524 21.5879V21.5647L46.4756 21.5414L46.4988 21.5182H46.5686L46.6615 21.5647L46.7312 21.5879L46.8242 21.5647L46.8706 21.5414L46.9171 21.5182L47.0101 21.5647L47.0565 21.6112L47.0798 21.6344H47.1263L47.196 21.6112L47.2889 21.5182L47.3354 21.495V21.6112L47.5445 21.5182H47.6143L47.7304 21.5414H47.7769L47.8002 21.495L47.8234 21.402L47.8699 21.3555L47.9396 21.3323L48.0093 21.3091H48.1487L48.3811 21.2858H48.4508L48.4973 21.3323L48.5205 21.3788L48.567 21.402L48.6367 21.3788V21.3555L48.6832 21.3091L48.7064 21.2858L48.7529 21.3091H48.7761H48.7994L48.8459 21.2626V21.1929L48.8226 21.1464L48.8459 21.0999L48.9156 21.0302L49.0318 21.007L49.1479 21.0302L49.2874 21.1696L49.3571 21.0999L49.4268 20.9837L49.4965 20.9373L49.5198 20.9837L49.5895 21.0767L49.6127 21.1232H49.7057L49.7521 21.0999L49.8218 20.9837L49.938 20.9373L50.1704 21.0534L50.2866 20.9837L50.3098 20.8675L50.3796 20.9605L50.4725 21.0534L50.5655 20.9605L50.6119 20.8443L50.6816 20.7746L50.8211 20.6352L50.8675 20.5655L50.8908 20.4725L50.9373 20.4028L51.007 20.3563L51.0999 20.3331V20.2866L51.0534 20.1704L51.0767 20.1007L51.1464 20.0542L51.3788 19.938H51.4253L51.7273 20.0077L51.8203 20.031L51.8668 19.9845L51.9132 19.8218L51.9597 19.7754L52.0294 19.7521H52.1224V19.8218L52.0991 19.9148L52.1224 19.9845L52.3315 20.1239L52.378 20.0775L52.4012 19.9845L52.4477 19.9148L52.5174 19.8683L52.5871 19.8916L52.6104 19.9613L52.6336 20.031L52.6801 20.0775L52.7498 20.0542L52.9589 19.8916L53.0287 19.8451H53.0984H53.1681L53.2378 19.8683L53.3772 19.9845L53.4237 20.0077L53.5167 19.8683H53.5864L53.6328 19.938L53.6793 20.0077V20.1007L53.6328 20.2866L53.6561 20.3796L53.7026 20.4493L53.9349 20.6352L53.9814 20.6584L54.0279 20.6352L54.0511 20.6584L54.0976 20.7049L54.1208 20.7746L54.1906 20.8443L54.2835 20.7746L54.3532 20.5887L54.4229 20.4957L54.5159 20.4493L54.6088 20.426L54.725 20.4725L54.7715 20.5655L54.7947 20.6816L54.818 20.7049L54.8877 20.7746L54.9342 20.8211L55.0039 20.8443L55.0736 20.8211L55.2363 20.7049L55.3292 20.5887L55.3757 20.4725L55.3524 20.3331L55.213 20.0542L55.1433 19.938L55.0271 19.8218L54.8877 19.7057L54.3997 19.45L54.2603 19.3338L54.2138 19.1712L54.1906 18.9853L54.1208 18.8226L54.0046 18.66L53.8652 18.4973L53.6793 18.3579L53.4934 18.2881L53.354 18.3114L53.2378 18.3811L53.0519 18.5438L52.9357 18.5902H52.7963L52.5407 18.5438L52.4942 18.4973L51.8203 18.1487L51.6112 18.1255L51.7738 17.8699L52.1689 17.2889L52.5407 16.6847L52.9125 16.1038L53.3075 15.4996L53.6793 14.9187L54.0744 14.3377L54.4462 13.7335L54.8412 13.1526L54.9342 12.9667H54.9109L54.8645 12.9202L54.818 12.8505L54.7947 12.7808L54.725 12.5716L54.6785 12.5484L54.5624 12.5949L54.5391 12.6414L54.5159 12.7111L54.4926 12.7343L54.4462 12.7576L54.3997 12.7343V12.6878V12.6414L54.3765 12.5949L54.2835 12.5019L54.2138 12.5252L54.1208 12.5716L54.0279 12.5484L53.9814 12.4555L53.9117 12.2463L53.842 12.1534L53.749 12.1069L53.6561 12.1301L53.5631 12.1998L53.4469 12.2231L53.4237 12.1998L53.3772 12.1766L53.354 12.1301V12.0837L53.3772 12.0604L53.4702 12.0372L53.4934 12.0139L53.5167 11.921L53.4469 11.8745L53.354 11.8513H53.2378L53.1913 11.8745L53.0751 11.921H53.0287L52.9589 11.8978L52.9357 11.8513L52.9125 11.8048L52.8892 11.7583L52.8195 11.7119L52.7498 11.6654L52.6569 11.6421L52.5639 11.6189L52.4942 11.5724L52.4477 11.5259L52.378 11.4795L52.2851 11.5259V11.5724V11.6189V11.6654L52.2386 11.6886H52.0294L52.0062 11.6654V11.6189V11.5492L51.983 11.5027L51.9597 11.433L51.7971 11.3168V11.1541L51.7738 11.1309L51.7506 11.1077L51.6344 11.0844L51.5414 11.0612L51.3555 10.9915L51.1929 10.8985L50.9373 10.6197L50.7978 10.5267L50.6816 10.5732L50.5655 10.55L50.3563 10.4802L50.2169 10.457L50.1704 10.5267V10.6429L50.2169 10.7591L50.1704 10.7823L50.1239 10.8056L50.0542 10.7823L49.938 10.7126H49.8683L49.7521 10.7359L49.6359 10.7823L49.543 11.0147L49.4036 11.0844L49.3106 11.1541L49.2641 11.1774L49.1944 11.1541L49.1479 11.1077L49.1015 11.0844L49.0318 11.1309L48.9156 11.1774L48.8226 11.2006L48.7994 11.1309L48.4508 11.2936L48.2882 11.34L48.2184 11.2239L48.2417 11.2006L48.3114 11.1309L48.3346 11.0844L48.3114 11.038L48.1952 10.8985L48.1022 10.7591L48.0558 10.7359L47.9861 10.8056L47.9396 10.9915L47.8931 11.038L47.8234 10.9915L47.8002 10.9218L47.7769 10.7126L47.7537 10.6429L47.7072 10.5964L47.4284 10.5267L47.3354 10.4802L47.2425 10.4105L47.1495 10.3641L47.0333 10.3408L46.8706 10.4105L46.7777 10.4338L46.7312 10.3408V10.1782L46.708 10.1549L46.5918 10.2014L46.3129 10.3873H46.2665L46.2432 10.4338L46.0573 10.6894L45.8249 10.8753L45.8017 10.9218L45.7785 11.0147L45.7088 11.0844L45.639 11.1077L45.3137 11.0612H45.1743L45.0349 11.1077L44.8954 11.2239L44.6863 11.4795L44.6166 11.5027L44.2913 11.433H44.2448L44.1286 11.4562L44.1053 11.4795V11.5724L44.0821 11.6189H44.0356L43.9194 11.6421L43.7335 11.6886H43.6174L43.5476 11.6654L43.4547 11.6189L43.385 11.5724L43.3617 11.5027L43.3153 11.4795L42.8273 11.3865L42.7343 11.3633L42.5019 11.2006L42.4322 11.1541L42.3393 11.1309L42.2696 11.2006L42.1534 11.4795L42.0837 11.5259L41.9907 11.5492H41.9675V11.4098L41.9442 11.3633L41.921 11.3168L41.8978 11.2936L41.828 11.3168L41.8048 11.3633L41.7816 11.4098L41.7583 11.4562L41.6421 11.3633L41.5492 11.34L41.433 11.4098L41.2936 11.4562L41.2471 11.5027L41.1774 11.5259L40.9682 11.5724H40.9218L40.8753 11.5492L40.8288 11.4562L40.7591 11.2239L40.6894 11.1774L40.6662 11.1541L40.3408 10.9682L40.3176 11.0147L40.2711 11.1309L40.2014 11.1774L40.1549 11.0844L40.1317 11.038L39.9225 10.9915L39.8296 10.9218V10.8985L39.8064 10.7591L39.7831 10.7126L39.7134 10.6662L39.6902 10.6429V10.6197L39.6437 10.55V10.5035V10.457V10.4105L39.6902 10.3641L39.8761 10.2014L39.9225 10.1084L40.062 9.87607L39.9923 9.80635L39.969 9.7134L39.9458 9.59721L39.8993 9.50426L39.8064 9.38807L39.7831 9.31836L39.7599 9.24864L39.7831 9.17893L39.8296 9.06274V9.01627L39.8064 8.92332L39.6902 8.78389L39.6669 8.73741L39.6902 8.55151L39.6669 8.50503L39.6205 8.45856H39.574L39.5275 8.41208L39.4113 8.27266H39.3648L39.3416 8.38885L39.2951 8.41208L39.1325 8.36561L39.0627 8.38885L38.993 8.45856L38.9466 8.50503H38.9001L38.7839 8.38885L38.7142 8.36561H38.6677H38.6212L38.5515 8.34237L38.4818 8.36561L38.4586 8.34237L38.4353 8.27266V8.24942L38.11 8.06352L38.017 7.94733L38.0403 7.76143L38.0868 7.59876L38.1332 7.52905L38.2494 7.45933V7.36638L38.2029 7.15724V7.08753V7.04105L38.1797 6.99458L38.1565 6.9481L38.0403 6.87839L37.9938 6.78544L37.8079 6.69249L37.7614 6.62277L37.8544 6.52982L37.8776 6.48335L37.7847 6.46011L37.7614 6.41363L37.7382 6.3904V6.34392V6.25097L37.715 6.20449L37.6917 6.15802H37.622H37.5988V6.13478L37.5755 6.0883L37.5523 6.01859L37.529 5.97212L37.5058 5.92564L37.3896 5.87916L37.2967 5.80945H37.2502L37.134 5.78621L37.0411 5.73974L36.9713 5.67002L36.9481 5.57707L36.8552 5.60031L36.7854 5.7165L36.6925 5.76297H36.646L36.5763 5.73974L36.4369 5.69326L36.3672 5.67002L36.3207 5.60031L36.2277 5.48412L36.158 5.27498L36.1348 5.22851L36.0418 5.20527L35.9024 5.22851L35.8327 5.20527V5.15879L35.8792 5.08908V5.0426L35.8327 4.99613L35.8095 5.01937L35.7862 5.0426L35.763 5.06584L35.7165 5.08908L35.6933 5.11232L35.67 5.13555L35.6003 5.11232L35.5538 5.06584L35.5306 5.01937L35.4144 4.69404L35.3679 4.64756L35.2982 4.78699H35.1588L34.8567 4.6708L34.5778 4.62432L34.4384 4.55461L34.3455 4.41518L34.2758 4.1828L34.2293 4.13633L34.0899 4.04338L34.0666 3.9969L34.1131 3.95043L34.1596 3.92719L34.2525 3.95043H34.299L34.3455 3.90395L34.3222 3.83424L34.2525 3.78776L34.2293 3.71805L34.2758 3.64833L34.2293 3.6251H34.1596H34.1131L34.0666 3.60186L33.904 3.41596L33.8807 3.34624V3.25329L33.904 3.20682L33.9504 3.16034L33.9737 3.11387L33.7413 2.62587L33.7181 2.5794V2.53292V2.48644L33.6948 2.46321H33.6251L33.6019 2.43997L33.5554 2.37026L33.4857 2.30054L33.4392 2.25407L33.1371 2.06816L33.0209 1.97521L32.8118 1.76607L32.6724 1.53369L32.6259 1.51046H32.5794L32.5329 1.53369L32.5097 1.55693H32.4632H32.4167H32.3703V1.53369L32.347 1.51046L32.3005 1.46398H32.2773L32.2541 1.44074L32.1379 1.41751L32.0449 1.39427H31.9752L31.9055 1.37103L31.9287 1.30132L32.0682 1.20837L31.9055 0.859799L31.8358 0.766847L31.7428 0.673896L31.6731 0.697134L31.5569 0.883036L31.5105 0.929512H31.464L31.371 0.906274L31.2084 0.859799L31.1154 0.813323L31.0457 0.766847L30.8366 0.557707L30.8133 0.534469H30.7668H30.6739L30.6274 0.511232L30.5809 0.464756L30.395 0.185902L30.3021 0.116189L30.1859 0.0697134L29.9768 0H29.8838L29.8141 0.0232378L29.7676 0.0697134L29.7444 0.162665L29.7211 0.20914L29.6514 0.302091L29.5817 0.348567L29.512 0.371805L29.4423 0.441518L29.3493 0.534469L29.2796 0.557707L29.2099 0.580945H29.1402L28.9775 0.557707H28.9311L28.7916 0.650658L28.6754 0.627421L28.3269 0.464756L28.2572 0.441518H28.1875H28.1177H28.0248L27.9551 0.395043L27.8621 0.371805L27.7924 0.395043L27.7692 0.487994L27.7924 0.580945L27.8389 0.673896L27.8854 0.74361H27.9086H28.0248H28.0713L28.1177 0.766847L28.2339 0.859799L28.2804 0.906274L28.3966 0.929512L28.4663 0.975988L28.536 1.0457L28.6754 1.60341L28.7684 1.81255L28.9078 1.99845L29.0008 2.06816L29.0473 2.11464H29.117H29.1634L29.1867 2.13788L29.2099 2.16112L29.3958 2.30054L29.4191 2.32378L29.4423 2.39349L29.4655 2.41673H29.4888L29.5352 2.39349H29.5585L29.605 2.48644L29.6282 2.5794V2.7653V2.81177V2.83501L29.6514 2.88149L29.6282 2.90473L29.5817 2.9512L29.5352 2.99768L29.4655 3.02091V3.09063V3.1371L29.4888 3.23005V3.27653L29.4655 3.32301L29.4423 3.39272V3.46243L29.6514 4.20604V4.22928V4.32223V4.36871L29.6979 4.41518L29.7444 4.46166L29.7676 4.50813V4.53137H29.7444H29.512L29.3029 4.57785H29.1867L29.1402 4.53137L29.117 4.4849L29.0473 4.39194L28.9078 4.27576L28.8846 4.32223L28.8149 4.55461L28.6754 5.13555L28.536 5.69326L28.3734 6.27421L28.2339 6.83191L28.1642 7.11077L28.0945 7.27343L27.9783 7.41286L27.7227 7.66847L27.5136 7.90085L27.2812 8.17971L27.0256 8.45856L26.7932 8.73741L26.5608 9.01627L26.3052 9.29512L26.0728 9.57397L25.8172 9.85283L25.5848 10.1317L25.2827 10.3641L25.0039 10.5732L24.7018 10.8056L24.4229 11.0147L24.1208 11.2471L23.842 11.4562L23.5399 11.6886L23.261 11.8978L22.9822 12.1069L22.7033 12.2928L22.2386 12.4322L21.6344 12.6646L21.0302 12.8737L20.426 13.0829L19.7986 13.292L19.1944 13.5012L18.5902 13.7103L17.9628 13.9194L17.3586 14.1518L17.0333 14.2448L16.9404 14.2912L16.5918 14.6166L16.1038 15.2672L15.8714 15.4531L15.8017 15.5461L15.639 15.8249L15.5926 15.9179L15.4067 16.0341L15.3602 16.1038V16.22L15.4067 16.2897L15.4764 16.3594L15.5461 16.4291V16.5686L15.4996 16.6615L15.4299 16.6847L15.3369 16.708L15.2672 16.7777L15.1975 16.8009L15.151 16.708L15.0813 16.4059L15.0581 16.3362L14.9884 16.2897L14.7792 16.22H14.6863L14.5933 16.2432L14.5469 16.3129V16.3594L14.5701 16.4524V16.4988L14.5469 16.708L14.4772 16.9404L14.3842 17.1263L14.3377 17.2192V17.3122V17.4981L14.361 17.591V17.6375L14.3145 17.6607L14.268 17.684H14.2448L14.2215 17.7072V17.7769L14.2912 18.079L14.268 18.172L14.1518 18.2881L14.1053 18.3114L14.0589 18.3346L14.0124 18.3579L13.9659 18.4508L13.9427 18.5438L13.8962 18.9156V18.9388L13.873 18.962L13.8033 19.0085H13.7335L13.6638 19.0318H13.6174L13.5709 19.0782L13.5476 19.1712V19.45L13.5012 19.6592L13.1991 20.2866L13.1526 20.4957L13.1294 20.5887L13.0364 20.6584L12.9899 20.7746V20.9605L13.0364 21.1232L13.0829 21.2161L13.1991 21.2858V21.3788L13.1294 21.4717L13.0364 21.5647V21.6576V21.7506V21.8435L12.9899 21.9365L12.804 22.0527L12.3625 22.2386L12.1534 22.3315L11.9442 22.5407L11.8513 22.6801L11.7816 22.7963V22.9357L11.8978 23.1448L11.921 23.261L11.8745 23.3772L11.7583 23.4005H11.6421L11.5492 23.4237L11.4795 23.4934L11.433 23.7258L11.3865 23.842L11.2703 23.9582L11.1309 24.0744L11.038 24.0046L10.9915 23.9582L10.945 23.9349H10.8753H10.8056H10.7591H10.6662L10.5035 23.8652H10.4338H10.0852L9.96902 23.842L9.8993 23.749L9.85283 23.6561L9.78311 23.5631L9.73664 23.5399L9.64369 23.4934L9.59721 23.4702L9.57397 23.4237L9.55074 23.3308L9.5275 23.2843L9.43455 23.2378L9.3416 23.1681L9.24864 23.0984L9.22541 23.0054L9.20217 22.9125L9.08598 22.6801L9.01627 22.378L8.87684 22.1689V22.0759L8.99303 21.8668L9.01627 21.7971L8.96979 21.7506L8.87684 21.7041H8.76065L8.73741 21.6809L8.6677 21.6344L8.62122 21.6112L8.38885 21.3788L8.24942 21.3091L8.06352 21.3323L7.90085 21.4253L7.57552 21.5414L7.38962 21.495L7.27343 21.3788L7.18048 21.2161L7.04105 21.1232L6.92486 21.0767H6.80868H6.66925L6.52982 20.9837L6.43687 20.9373L6.27421 20.7514L6.20449 20.6816L6.11154 20.6584L6.01859 20.6352L5.92564 20.6119L5.9024 20.5655H5.87916L5.69326 20.5887L5.64679 20.6119L5.57707 20.6352L5.55383 20.6584L5.50736 20.7281L5.46088 20.8908L5.41441 20.9837L5.34469 21.0534L4.97289 21.3323L4.76375 21.4485L4.71727 21.495H4.69404H4.60108L4.50813 21.4717L4.29899 21.3555L4.22928 21.2858L4.1828 21.1929L4.20604 21.0999L4.8567 20.2634L4.90318 20.1472L4.6708 20.1704L4.46166 20.2401L4.29899 20.2169L4.20604 20.0077V19.9613V19.8683V19.8218L4.1828 19.7521L4.11309 19.6592L4.08985 19.5895V19.4965L4.13633 19.3803L4.1828 19.2641L4.25252 19.1712L4.32223 19.1247L4.41518 19.1015H4.50813H4.60108L4.69404 19.1247L4.90318 19.2409L4.99613 19.2641L5.11232 19.2177L5.18203 19.1015L5.25174 19.0085L5.32146 18.9156L5.69326 18.7297L5.78621 18.66V18.6135L5.76297 18.567L5.7165 18.5438L5.67002 18.4973L5.64679 18.4508V18.3579V18.3114L5.60031 18.2184L5.50736 18.079L5.48412 17.9628V17.9396L5.50736 17.8931L5.5306 17.8699V17.8234L5.48412 17.7304V17.684V17.6375L5.50736 17.591L5.5306 17.4981V17.4516V17.4051L5.50736 17.3122V17.2657L5.48412 17.2192L5.43765 17.196L5.39117 17.1727L5.36793 17.1495V17.103L5.41441 16.9636V16.8939V16.8242V16.8009L5.36793 16.7545L5.29822 16.7312L5.25174 16.708V16.5918L5.27498 16.4988L5.29822 16.4059L5.22851 16.3594L5.0426 16.3129L4.94965 16.2665L4.92641 16.2432V16.2897L4.90318 16.3594L4.83346 16.4524V16.5221L4.78699 16.5918L4.71727 16.6615L4.62432 16.708L4.53137 16.7312L4.1828 16.708L4.11309 16.7545L4.06662 16.7777H4.02014L3.97366 16.8009L3.95043 16.8939L3.74129 17.196L3.60186 17.3354L2.83501 17.7769L2.67235 17.9163L2.53292 18.079L2.43997 18.2649L2.41673 18.3579L2.39349 18.4741L2.37026 18.567L2.30054 18.6367L2.0914 18.7529L1.9055 18.8923L1.76607 19.055L1.51046 19.45L1.41751 19.5895L1.37103 19.6592L1.27808 19.6824L1.18513 19.7057L1.11541 19.7754L1.02246 19.938L0.929512 20.0542L0.487994 20.3331L0.441518 20.4028L0.371805 20.519L0.325329 20.6352L0.302091 20.7281L0.371805 20.9837V21.0999L0.302091 21.2626L0.255616 21.3323L0.232378 21.3555L0.20914 21.3788L0.139427 21.4253L0.116189 21.495L0.162665 21.5879L0.20914 21.6809L0.232378 21.7738V21.8435L0.185902 22.0991L0.139427 22.1921V22.2153L0.116189 22.3315L0.0929512 22.3548L0.0464756 22.378L0.0232378 22.4245L0 22.471V22.5407L0.0464756 22.6104L0.20914 22.7266L0.255616 22.8195L0.650658 23.2378L0.697134 23.3075L0.74361 23.4237L0.813323 23.5167L0.999226 23.6561L1.16189 23.8187L1.27808 24.0279V24.2138L1.09218 24.33L0.906274 24.3532L0.859799 24.3997V24.5159V24.5624L0.813323 24.6553L0.790085 24.7018L0.813323 24.725L0.836561 24.7715V24.7947L0.813323 24.8412L0.74361 24.8877V24.9342L0.766847 25.0271L0.859799 25.1898L0.975988 25.3292L1.09218 25.4222L1.39427 25.5848L1.46398 25.6778L1.88226 26.1193L1.97521 26.2587L2.23083 26.7932L2.32378 27.2115V27.6297L2.20759 27.9783L2.02169 28.1642L1.81255 28.2107L1.60341 28.1875L1.39427 28.048L1.32455 27.9551L1.30132 27.9086H1.2316L1.11541 28.1177L1.06894 28.141H0.975988L0.906274 28.3036L0.836561 28.4895V28.6754L0.883036 28.8846L0.975988 29.0705L1.09218 29.2796L1.25484 29.4191L1.41751 29.512L1.64988 29.6282L1.74284 29.6514L1.78931 29.6747L1.95198 29.7909L2.0914 29.8373L2.30054 30.0465L2.46321 30.1162L2.55616 30.1627L2.62587 30.3253L2.69559 30.3486L3.04415 30.488L3.53215 30.7436L4.29899 31.1154L5.15879 31.5802L5.92564 31.9287L6.01859 31.9985L6.5763 32.4864L6.59954 32.5329H6.62277L6.69249 32.6491L6.71572 32.6723L6.73896 32.6956L6.7622 32.8815L6.83191 33.0209L6.92486 33.1836L7.15724 33.4392L7.48257 33.6483L7.52905 33.7181L7.55229 33.811L7.90085 34.206L7.94733 34.299L7.97057 34.4152L7.9938 34.5314L8.01704 34.6476L8.10999 34.7405L8.2959 34.9032L8.41208 35.0658L8.50503 35.275L8.57475 35.5074L8.59799 35.7165V35.7397L8.55151 35.8095V35.8792L8.57475 35.9256L8.62122 35.9954L8.64446 36.0883L9.15569 36.7854L9.24864 36.9713L9.27188 37.0411L9.24864 37.0875V37.134L9.22541 37.1805V37.2502V37.2734L9.27188 37.3199L9.73664 38.0403L9.99225 38.3191L10.55 38.7374L10.6429 38.8071L10.7823 39.0395L10.8753 39.086L11.3633 39.5507L11.4562 39.6669L11.5259 39.8296L11.5492 39.9225L11.8048 40.4105L11.8513 40.5267L11.8048 40.6197L11.6886 40.6429V40.6894L11.8048 40.8056L11.8745 40.8753L12.0139 40.9218L12.1301 41.0147L12.316 41.1774L12.4787 41.3633L12.5949 41.5724L12.6646 41.7816V41.9907L12.5717 42.1998L12.5484 42.316L12.5717 42.409L12.8273 42.6878L12.897 42.8273L12.9667 42.9202L12.9899 42.9435L13.0132 43.0132L13.0596 43.0829L13.0829 43.1526V43.2688L13.0596 43.3153L13.0132 43.3617L12.9899 43.4082V43.4547L13.0829 43.4314L13.1294 43.5012L13.1526 43.7103L13.1991 43.78L13.2455 43.8265L13.3153 43.8497L13.385 43.8962L13.4547 43.9427L13.5012 44.0124L13.5244 44.0821V44.1751L13.5012 44.2215L13.4547 44.2448L13.4314 44.268H13.3153L13.2688 44.2912L13.2455 44.3145L13.2688 44.3377L13.3385 44.361L13.385 44.4074L13.4082 44.5004L13.4314 44.5933L13.4547 44.6166L13.4779 44.5701L13.5244 44.4771L13.5476 44.3842L13.5941 44.3145L13.6871 44.2912L13.78 44.3377L13.8265 44.4074V44.5701V44.6166L13.78 44.6398L13.7103 44.7095L13.6871 44.7792L13.7568 44.8025L13.78 44.8722L13.8033 44.9419V44.9651L13.8265 44.9884L13.9659 45.1046L13.9892 45.0813H14.0589L14.1286 45.1046L14.1518 45.151V45.3602V45.4067L14.2215 45.5229L14.3145 45.5926L14.361 45.6623L14.2912 45.7552L14.3377 45.8249L14.361 45.9411L14.4074 46.2665L14.4772 46.5453L14.5933 46.7312L15.0581 47.2889L15.1046 47.4051V47.4981L15.0349 47.591L15.0116 47.7072L15.0349 47.7537L15.1278 47.9163L15.151 48.0325V48.0558L15.1278 48.079V48.1022V48.1255V48.1487L15.151 48.172L15.1743 48.1952H15.1975L15.2208 48.2417L15.244 48.2649L15.2672 48.3114L15.2905 48.3811L15.3137 48.4741L15.4299 48.6832L15.4531 48.7994L15.4299 48.8459L15.4067 48.8691L15.3834 48.8923V48.962L15.4067 49.0318L15.4299 49.0782L15.4531 49.1247L15.5926 49.2409L15.6855 49.3571L15.7785 49.5662L15.8249 49.6127L15.9179 49.7521L15.9411 49.7986V49.9148L15.9644 49.9613L16.1735 50.1472L16.22 50.2169L16.2432 50.2634V50.3563V50.4028L16.3594 50.5887L16.3826 50.6352L16.4059 50.7514L16.4524 50.8211L16.5918 50.914L16.9868 51.6344L17.0333 51.7041L17.1495 51.7971L17.196 51.8203L17.2192 51.89L17.2424 51.983L17.2889 52.0294L17.3122 51.983L17.3586 52.0759L17.4516 52.3315L17.591 52.471L17.6607 52.5639V52.6336L17.8002 52.8428L17.8466 52.9589L17.8234 53.0287L17.9163 53.1448V53.1681V53.2146L17.8699 53.3075L17.8466 53.354L17.8931 53.4005L17.9628 53.4702L18.0093 53.5167L17.9861 53.6096L18.0325 53.6793L18.0558 53.8885L18.1487 54.0279L18.172 54.1441L18.2184 54.2603L18.172 54.3532L18.1022 54.3997H18.0093H17.9396L17.9163 54.5159L17.9396 54.6088L17.9861 54.6785L18.079 54.7947L18.2184 54.8877L18.962 55.2827L19.1247 55.4222L19.3338 55.5151L19.4036 55.5616L19.4733 55.6545L19.5198 55.701H19.5662L19.6127 55.7242L19.6359 55.7707L19.7057 55.9102L19.7986 56.0031L19.8218 56.0496V56.0728L19.7754 56.1193L19.7986 56.1658L19.8916 56.282L19.938 56.3284L20.0077 56.3517L20.0775 56.3749L20.1472 56.4911L20.1936 56.6073L20.2169 56.7002L20.3098 56.9094V57.0023L20.1704 57.0488L20.2169 57.1418L20.2634 57.3741L20.2866 57.4671L20.3563 57.5833L20.3796 57.6297L20.426 57.7692L20.4493 57.8854L20.4725 58.2339V58.3269L20.426 58.4198L20.3563 58.4895L20.3098 58.5825L20.519 58.6057L20.7281 58.6754L20.914 58.7916L20.9837 58.9775V59.0473L20.9605 59.0705L20.9373 59.117L20.9605 59.1867L20.9837 59.2332L21.0767 59.3261V59.3493H21.1464L21.4253 59.4655L21.7506 59.6979L22.0062 59.9768L22.0991 60.093L22.1689 60.3021L22.1921 60.488L22.0759 60.6042L22.1456 60.6971L22.2153 60.7668L22.3083 60.8133L22.3548 60.8366L22.378 60.883L22.5407 61.1619L22.6801 61.2316L22.7033 61.2781L22.7266 61.3246L22.7033 61.464L22.7498 61.5337L22.9589 61.9287L23.0519 62.0449L23.4005 62.347L23.4469 62.3935L23.4702 62.4864L23.4934 62.6956L23.5631 63.1139L23.6328 63.2998L23.6561 63.416L23.7026 63.5089L24.237 64.0434L24.4926 64.4617L24.5624 64.5081L24.6321 64.5546L24.7018 64.6011L24.8877 64.9032L25.0736 65.2982L25.1201 65.4841L25.1433 65.8559L25.0736 66.251L25.0039 66.4136L24.9574 66.5763L24.9342 66.7157L24.8877 66.8087L24.8644 66.9481L24.7715 67.134L24.725 67.3431V67.4129L24.6553 67.3664L24.6088 67.3199L24.5624 67.2734L24.5391 67.227L24.5624 67.1572V67.1108H24.5391H24.4462H24.3997H24.3765L24.2835 67.1572L24.2138 67.227L24.1673 67.4129L24.1208 67.4826V67.5523L24.1673 67.622L24.237 67.6685L24.3067 67.6917H24.3765H24.4462L24.4694 67.6685L24.4926 67.622L24.5391 67.5988L24.5856 67.622L24.6088 67.6452V67.6685L24.5856 67.715V67.7614L24.6553 68.0868V68.2262V68.2727L24.6785 68.2959V68.3424L24.6553 68.3656V68.4353V68.4818L24.6088 68.5515H24.5624L24.5391 68.598L24.6088 68.9698L24.6785 69.0163L24.7483 68.993L24.725 68.8768L24.9806 68.9466L25.0504 68.9698L25.0736 69.0395L25.0968 69.1092L25.1433 69.1789L25.2363 69.2254L25.306 69.2486L25.3524 69.3416L25.3989 69.4578L25.4222 69.5972L25.4454 69.6205L25.4686 69.6669L25.4454 69.6902L25.4222 69.7134L25.2827 69.7599L25.3757 69.9225L25.4222 69.969L25.4686 69.9923H25.5848L25.6313 70.0155L25.701 70.0852L25.794 70.2246L25.8404 70.2711L26.0031 70.3873L26.0728 70.457L26.1193 70.5732L26.0728 70.6662L26.0496 70.7359L26.0728 70.7591H26.0961L26.1193 70.8056L26.2355 70.9218L26.282 70.9915L26.3052 71.0612L26.3284 71.2703L26.3749 71.3865L26.4446 71.4562L26.6305 71.5492L26.677 71.5724L26.7002 71.6189L26.7467 71.6654L26.7699 71.7119L26.8164 71.7583L26.8629 71.7816H26.9094L26.9558 71.8048L27.0023 71.8513V71.8745L27.0256 71.921L27.072 71.9442L27.1882 71.9907L27.4671 72.1534L27.56 72.2463L27.6297 72.2928L27.8156 72.3625L28.2107 72.5484L28.4198 72.7111L28.4431 72.7576V72.9202V72.9435L28.4895 72.9899L28.6754 73.1294L28.6987 73.1758L28.7452 73.2688L28.9775 73.5941L29.024 73.7103L29.0473 73.8033L29.117 73.8497L29.3726 73.8962L29.4888 73.9427L29.7211 74.1518L29.7444 74.1983L29.7676 74.2448V74.3145V74.361L29.6979 74.3842H29.605L29.7444 74.5004L29.9303 74.5933L30.0697 74.6863L30.0465 74.8257L30 74.849L29.9535 74.8722L29.907 74.8954V74.9419L29.9303 74.9651L30.0465 74.9884L30.0697 75.0116L30.1162 75.1046L30.1859 75.1278L30.2789 75.151L30.3718 75.1743L30.4183 75.2208L30.5809 75.3834L30.6507 75.4299L30.6739 75.4531L30.7204 75.4299L30.7901 75.4067L30.8598 75.4299L30.9992 75.5461L31.8125 75.9876L32.1146 76.1038L32.2076 76.1967L32.44 76.3362L33.323 76.6847L33.3695 76.7312L33.416 76.7545L33.4624 76.8706L33.4857 76.8939L33.5321 76.9171L33.5554 76.9404V77.0101L33.5786 77.103L33.6019 77.1263L33.9272 77.3122L33.9969 77.3586L34.0899 77.4051L34.3222 77.3819L34.4384 77.4051L34.5314 77.4748L34.6011 77.5445L34.6708 77.591L34.8799 77.6143L34.9497 77.6375L35.4376 77.8699L35.5306 77.9396V77.9861L35.5538 78.0325L35.5306 78.1487L35.5538 78.172L35.5771 78.1952L35.67 78.2417L36.0651 78.5205L36.3672 78.7761L36.5066 78.8691L36.8784 79.0085L37.0411 79.1015L37.0643 79.1247L37.1108 79.1712L37.1572 79.2409L37.1805 79.3106L37.4593 79.2409L37.7382 79.3106L38.2727 79.543L38.5748 79.6127L38.8304 79.7521L38.9698 79.7754L39.0163 79.7986L39.0627 79.8451L39.1325 80.0542L39.1789 80.1239L39.2486 80.1007L39.3184 80.1239L39.3881 80.1704L39.481 80.1937H39.6669L39.7599 80.2169L39.9458 80.3563L40.1549 80.4493L40.2479 80.519L41.1541 80.9373L41.6654 81.3091L41.8513 81.3788L42.6181 81.4717L42.897 81.5879L43.1061 81.6112L43.1526 81.6344L43.2455 81.7041L43.2688 81.7273H43.3385L43.3617 81.7738L43.4082 81.8435L43.4547 81.8668H43.5012H43.5476L43.5941 81.89L43.7103 81.9597L43.9892 82.2851L44.0356 82.378L44.0124 82.4942L44.0356 82.5871L44.1518 82.6569L44.3842 82.7033L44.5004 82.7498L44.5469 82.8428L44.5933 82.8892L44.8025 83.0054L44.8722 83.0751V83.1216V83.2146L44.8954 83.2843H44.9419L45.244 83.3075L45.337 83.354L45.4531 83.4005L45.7088 83.5399L45.8482 83.6561L46.0573 83.9349L46.22 84.0511L46.4059 84.1441L47.2192 84.3532H47.2425L47.3122 84.4229L47.4051 84.4926L47.4516 84.5159L47.5678 84.5624L47.7537 84.5856L47.8234 84.6088L47.9163 84.6785L47.9861 84.8412L48.172 84.9806L48.2882 85.1433L48.3346 85.1665L48.3579 85.1898L48.3811 85.213L48.4043 85.3757L48.4741 85.5848L48.4973 85.6778L48.5438 86.189L48.567 86.282L48.5902 86.3749L48.567 86.4911L48.4973 86.6073L48.4508 86.6538V86.7002H48.4741L48.6367 86.677L48.7529 86.7002L48.8459 86.7467L49.0318 86.8861L49.2641 86.9791L49.3339 87.0488L49.4965 87.2115L49.543 87.2579L49.6592 87.3277L49.9148 87.5833H50.0077L50.2866 87.6762L50.3796 87.7459L50.5887 87.8854L50.6816 87.9318L50.7514 87.9783L50.7978 88.0713L50.8443 88.2804L50.914 88.3269L51.0999 88.3734L51.1696 88.4198L51.4485 88.6987H51.4717H51.5414L51.5647 88.7219L51.5879 88.7452L51.6112 88.8149L51.6344 88.8381L52.0062 89.1634L52.1456 89.2564L52.2851 89.3261L52.4477 89.3493L52.5407 89.3958L52.8195 89.6979L53.0984 89.9071L53.1913 90L53.4005 89.8838H53.6328L54.1673 89.9303L54.4229 89.9071L54.5391 89.8606L54.8877 89.6747L55.0039 89.6282H55.1433L55.2363 89.5817L55.3292 89.512L55.5616 89.2332L55.7475 89.0705L55.8404 88.9775L55.9566 88.8149L56.2355 88.141L56.2587 88.048L56.2355 87.9551L56.2122 87.8621L56.0961 87.6762L56.0728 87.5833L56.0496 87.4671L56.0263 87.2347L55.9334 87.072L55.8869 86.8861L55.9102 86.677L56.0728 86.5143L56.282 86.4911L56.4911 86.5376L56.7235 86.4911L56.9559 86.3517L57.56 85.7475V85.7242L57.5833 85.3757L57.56 85.1898L57.5136 85.0504L57.4438 84.9574L57.3277 84.8412L57.1418 84.7018L57.072 84.6785L56.8164 84.6321L56.8861 84.5159L56.9559 84.237L57.0256 84.1208L57.0488 84.0976H57.1185L57.165 84.0744L57.4206 83.842L57.56 83.749L57.6995 83.7026L57.8389 83.6561L57.9783 83.6096L58.0713 83.4934L58.0945 83.4237L58.0713 83.3772H58.0248V83.3308V83.2843L58.0713 83.261L58.2804 83.1448L58.3269 83.0751L58.4663 82.7963L58.9543 82.2618L59.024 82.1456L59.117 81.89L59.1634 81.7971L59.2332 81.7506H59.4191L59.4888 81.7273L59.7909 81.5647L59.8606 81.5182L59.9535 81.402L60 81.3323L59.8838 81.1464L59.8606 81.0534V80.914V80.6119V80.519L59.907 80.426L60.0465 80.2634L60.2091 80.1704L60.7436 79.9613L60.8598 79.7986L60.8133 79.6592L60.6971 79.5895L60.4415 79.4733L60.2324 79.2641L60.1394 79.1944L60 79.2409L59.8373 79.1944H59.7909H59.7211L59.6282 79.2874L59.5817 79.3106H59.4655L59.3493 79.2641L59.2332 79.1944L59.1402 79.1247L58.9775 78.9156L58.8614 78.6367L58.6522 78.1255L58.4663 77.591L58.2572 77.0798L58.048 76.5686L57.9783 76.4059L57.9551 76.2665L58.0016 76.1038L58.3036 75.639L58.3269 75.5461L58.3501 75.4299L58.3734 75.337L58.4431 75.244L58.4895 75.2208L58.629 75.1743L58.6522 75.151V75.1046L58.6057 74.9651L58.629 74.8722L58.6987 74.7792L58.7916 74.6863L58.9543 74.6398L59.024 74.4539L59.117 74.4307L59.2332 74.4539L59.3261 74.3842V74.2913L59.2099 74.1751L59.0937 74.0124L59.0008 73.9427L58.7219 73.7103L58.6522 73.6406L58.3734 73.1991L58.2804 73.1294L58.1875 73.0364L58.141 72.9435L58.1642 72.8505L58.2572 72.6646V72.6414L58.2339 72.2231V72.1301L58.2804 72.0604L58.3966 72.0139L58.6754 71.921L58.7452 71.8745L58.8149 71.7351L58.8381 71.0844L58.9078 70.9915H59.0008L59.117 71.0147H59.2099L59.2564 70.9682L59.2332 70.7359L59.2564 70.6429L59.2796 70.6197L59.3493 70.5964L59.3958 70.5732L59.5817 70.3641L59.6747 70.2943L60 70.1084L60.093 70.0387L60.0697 69.9225L60 69.8296L59.9768 69.7366L59.9535 69.5507L59.9768 69.4578L60 69.3648L60.1162 69.2719L60.2789 69.2254L60.6042 69.2022L60.6971 69.086L60.6739 68.9233L60.5577 68.5748L60.5345 68.4121L60.5112 68.3424L60.4648 68.2727L60.1859 68.0868L60.1394 67.9938L60.093 67.8311V67.6685L60.0697 67.4826L60 67.3664L59.9303 67.1805V67.1108L59.9535 67.0178L59.9768 66.9713V66.9016L59.907 66.8319L59.6514 66.6228L59.5585 66.4833L59.6282 66.3672H59.6747L59.8373 66.3904L59.8838 66.3672L59.9303 66.3207V66.2742V66.2045V66.1348L59.9768 66.0883L60.0697 65.9721L60.1162 65.9024L60.1627 65.7862L60.1859 65.67L60.1627 65.5538L60.2324 64.5778L60.1627 64.1828L60.1394 63.9969L60.1859 63.3927L60.1162 62.835V62.6259L60.1394 62.5097L60.3021 62.3935L60.3486 62.2773L60.395 62.1844L60.5112 62.2076L60.5577 62.0682L60.6507 61.952L60.7436 61.8823L61.1387 61.7893L61.1851 61.7428L61.3013 61.5105L61.2548 61.464L61.0922 61.4175L61.0457 61.371V61.3013L61.0922 61.2084L61.1619 61.1619L61.3013 61.0922L61.371 61.0225L61.4407 60.9527L61.464 60.883L61.5105 60.7668L61.5337 60.7204L61.5802 60.6971L61.4407 60.4415Z" fill="#004899"/>
</svg>
