<svg width="82" height="90" viewBox="0 0 82 90" fill="none" xmlns="http://www.w3.org/2000/svg">
<path d="M6.58435 5.58672L6.54445 5.62663L6.50454 5.66653L6.46464 5.70644V5.74634L6.42473 5.86606V5.98577V6.06559V6.10549L6.38483 6.1454L6.34492 6.1853L6.26511 6.26511L6.1853 6.30502L6.1454 6.34492L6.10549 6.38483L6.06559 6.46464L6.10549 6.50454V6.54445H6.06559L5.94587 6.62426L5.86606 6.70407L5.66653 6.90359V6.9435V6.9834V7.02331L5.54682 7.06321H5.50691L5.54682 7.02331V6.9834V6.9435H5.50691H5.46701H5.4271L5.46701 6.9834V7.02331L5.4271 7.06321H5.3872V7.10312H5.4271H5.46701L5.50691 7.14302V7.18293L5.46701 7.22284L5.14777 7.38246L5.06796 7.42236L5.02805 7.46227H4.98815H4.94824L4.70881 7.58198H4.6689H4.629L4.58909 7.62189H4.54919V7.58198H4.50928H4.46938H4.42947H4.34966L4.22995 7.62189H4.19004L4.15014 7.58198L4.07033 7.50217L3.99052 7.26274H3.95061H3.8708H3.8309L3.75109 7.22284L3.63137 7.18293H3.51165L3.31213 7.26274H3.27222L3.23232 7.30264H3.19241L3.03279 7.38246H2.99289H2.95298L2.91308 7.34255V7.30264L2.87317 7.34255H2.83327H2.79336L2.75346 7.30264L2.67365 7.26274H2.63374V7.22284L2.67365 7.18293H2.63374H2.59384H2.55393H2.51403H2.47412H2.43422L2.39431 7.14302H2.3544H2.3145H2.23469L2.11497 7.10312L2.03516 7.06321H1.99526V7.02331L1.95535 6.9834L1.91545 6.9435H1.87554L1.83564 6.90359V6.86369L1.79573 6.82378L1.75583 6.78388H1.71592H1.63611H1.5563H1.43659H1.27697H1.23706H1.19715L1.15725 6.74397H1.11734H1.07744L1.03753 6.78388H0.917819L0.798103 6.74397V6.70407L0.758198 6.62426L0.718293 6.50454L0.678388 6.46464L0.558672 6.38483H0.518767V6.34492V6.30502L0.478862 6.26511H0.438957H0.399052H0.359146H0.319241V6.22521V6.1853L0.199526 6.02568L0.159621 5.98577L0.119715 5.94587H0.0798103V5.90596V5.86606L0 5.62663V5.50691V5.3872V5.34729V5.30739V5.26748V5.22758V5.18767L0.0399052 5.14777V5.10786V5.06796L0 5.02805V4.98815V4.94824L0.0399052 4.90834L0.0798103 4.86843V4.82853V4.78862L0.0399052 4.6689V4.58909L0.0798103 4.54919H0.119715H0.239431H0.279336L0.399052 4.58909L0.438957 4.54919L0.478862 4.50928V4.46938V4.42947V4.38957V4.34966V4.26985V4.22995L0.438957 4.19004L0.399052 4.15014V4.11023V4.07033V4.03042V3.99052V3.95061V3.91071V3.8708V3.75109V3.71118V3.67128L0.319241 3.59146V3.55156L0.359146 3.47175L0.438957 3.35203V3.31213V3.27222L0.359146 3.15251V3.1126V3.0727L0.399052 3.03279V2.99289V2.91308V2.83327V2.79336L0.359146 2.75346V2.71355V2.67365L0.399052 2.63374H0.438957H0.478862H0.558672H0.598577V2.59384L0.678388 2.3544V2.27459V2.19478L0.638483 2.15488L0.598577 2.11497L0.558672 2.07507V2.03516L0.598577 1.99526H0.558672H0.598577V1.95535V1.87554V1.83564H0.638483L0.678388 1.79573V1.67602V1.59621V1.5164L0.718293 1.47649L0.758198 1.43659V1.35678L0.718293 1.27697V1.23706H0.758198H0.798103H0.838008V1.19715V1.15725V1.07744V0.997629L0.798103 0.917819V0.877914L0.758198 0.798103V0.758198L0.718293 0.718293V0.678388V0.638483L0.758198 0.598577L0.997629 0.359146L1.03753 0.319241V0.279336V0.199526V0.159621H1.07744L1.11734 0.199526L1.15725 0.279336H1.19715H1.23706H1.27697H1.31687V0.319241H1.35678L1.39668 0.279336H1.43659H1.47649L1.5164 0.239431L1.5563 0.199526V0.159621V0.119715L1.59621 0.0798103L1.63611 0.0399052L1.79573 0H1.83564H1.87554H1.91545H1.95535H1.99526H2.03516H2.07507L2.11497 0.0399052L2.15488 0.0798103L2.23469 0.119715H2.27459H2.3145H2.3544V0.159621V0.199526H2.39431L2.51403 0.399052L2.55393 0.438957L2.63374 0.478862L2.67365 0.518767L2.71355 0.558672V0.598577L2.79336 0.638483L2.87317 0.718293L2.91308 0.758198L2.95298 0.798103V0.798103H2.99289L3.03279 0.877914V0.917819L3.1126 0.997629L3.19241 1.11734V1.15725V1.19715L3.15251 1.23706V1.27697V1.35678V1.43659V1.47649V1.5164H3.19241H3.27222H3.31213H3.35203L3.43184 1.47649V1.43659V1.39668H3.47175H3.51165H3.55156V1.35678V1.27697V1.23706L3.59146 1.19715H3.63137H3.67128L3.71118 1.23706L3.79099 1.19715H3.8309L3.8708 1.23706L3.95061 1.27697L3.99052 1.43659V1.47649V1.5164V1.5563V1.59621H4.11023V1.63611V1.71592V1.75583L4.15014 1.79573H4.19004H4.22995H4.26985L4.34966 1.83564H4.38957V1.79573L4.42947 1.75583L4.46938 1.79573L4.50928 1.83564L4.54919 1.87554L4.58909 1.91545L4.629 1.95535H4.6689L4.86843 1.99526H4.90834L4.94824 2.03516V2.07507L5.02805 2.11497V2.15488V2.19478V2.23469V2.3145L5.18767 2.39431L5.22758 2.43422L5.26748 2.47412L5.30739 2.51403L5.34729 2.55393L5.4271 2.63374L5.50691 2.67365L5.58672 2.71355V2.75346L5.62663 2.71355H5.66653H5.70644H5.74634H5.78625V2.75346H5.82615H5.86606L5.90596 2.79336L5.94587 2.83327H6.02568V2.87317V2.91308L6.06559 2.99289L6.1454 3.0727V3.1126V3.15251V3.23232V3.27222V3.31213L6.1853 3.35203L6.22521 3.39194L6.34492 3.59146H6.38483L6.46464 3.63137L6.54445 3.71118L6.62426 3.75109L6.66416 3.79099H6.70407H6.74397L6.78388 3.8309H6.82378L6.9435 3.99052V4.03042V4.07033V4.11023L6.90359 4.15014L6.86369 4.22995L6.78388 4.30976L6.74397 4.34966V4.38957V4.42947V4.46938L6.58435 4.58909L6.54445 4.629L6.50454 4.6689L6.38483 4.70881V4.82853L6.42473 5.06796L6.38483 5.30739V5.4271L6.42473 5.50691H6.46464H6.50454H6.54445H6.58435V5.54682V5.58672V5.58672Z" transform="scale(11.8081)" fill="#004899"/>
</svg>
