<svg width="548" height="311" viewBox="0 0 548 311" version="1.1" xmlns="http://www.w3.org/2000/svg" xmlns:xlink="http://www.w3.org/1999/xlink">
<g id="Canvas" fill="none">
<g id="branch-title">
<g id="Rectangle 12" filter="url(#filter0_d)">
<path d="M 6.51862 48.1203C 3.11031 22.9602 23.1567 0.78246 48.5321 1.63989L 385.61 13.0297C 402.849 13.6122 417.879 24.9212 423.215 41.3234L 451.961 129.693C 460.148 154.86 442.7 181.075 416.324 183.239L 67.8852 211.821C 46.1554 213.603 26.8312 198.067 23.9044 176.462L 6.51862 48.1203Z" transform="translate(44 29)" fill="#004899"/>
</g>
<path id="ENCONTRANOS" d="M 3.9 49.208C 3.76133 43.7307 3.692 38.548 3.692 33.66C 3.692 28.772 3.96933 22.4107 4.524 14.576C 10.452 13.6747 16.2413 13.224 21.892 13.224L 21.892 19.62C 17.9747 19.62 14.3347 19.7413 10.972 19.984C 10.8333 23.8667 10.7467 26.848 10.712 28.928C 13.3467 28.5467 16.4667 28.3213 20.072 28.252L 21.06 33.972C 18.7373 34.0067 15.2533 34.2667 10.608 34.752C 10.608 38.912 10.6253 41.9107 10.66 43.748C 13.676 43.5053 17.2813 42.9853 21.476 42.188L 22.36 47.908C 19.4133 49.26 15.9293 49.936 11.908 49.936L 3.9 49.208ZM 49.2578 12.392L 49.3098 36.572C 49.3098 40.5587 49.1711 44.84 48.8938 49.416L 43.0698 48.844C 38.5978 38.6867 34.9405 31.0773 32.0978 26.016C 32.1325 31.1467 32.1498 39.328 32.1498 50.56L 26.0658 49.884C 25.9618 47.7347 25.9098 45.6547 25.9098 43.644C 25.9098 35.2547 26.3778 25.4787 27.3138 14.316L 34.2298 14.992C 37.6618 24.456 40.7471 31.6493 43.4858 36.572C 43.2778 26.1027 43.0351 17.852 42.7578 11.82L 49.2578 12.392ZM 65.531 19.1C 64.0056 19.1 62.671 20.9893 61.527 24.768C 60.383 28.512 59.811 31.84 59.811 34.752C 59.811 40.8533 61.4056 43.904 64.595 43.904C 65.4963 43.904 66.2763 43.5227 66.935 42.76C 67.6283 41.9627 68.1136 41.148 68.391 40.316C 68.703 39.484 69.067 38.34 69.483 36.884L 76.087 37.404C 75.1856 41.668 73.8336 44.9267 72.031 47.18C 70.263 49.4333 67.7843 50.56 64.595 50.56C 60.851 50.56 57.9563 49.156 55.911 46.348C 53.9003 43.5053 52.895 39.9 52.895 35.532C 52.895 30.436 53.9003 25.4787 55.911 20.66C 56.8816 18.268 58.2336 16.3093 59.967 14.784C 61.735 13.224 63.7456 12.444 65.999 12.444C 68.7723 12.444 70.783 13.3627 72.031 15.2C 72.655 16.1013 73.1576 17.02 73.539 17.956C 73.955 18.892 74.2496 20.088 74.423 21.544C 74.735 23.8667 74.9256 26.3627 74.995 29.032L 68.287 28.408C 68.287 23.936 67.871 21.128 67.039 19.984C 66.6576 19.3947 66.155 19.1 65.531 19.1ZM 90.1489 50.768C 86.8556 50.768 84.0649 49.2947 81.7769 46.348C 79.5236 43.3667 78.3969 38.86 78.3969 32.828C 78.3969 26.7613 79.6276 21.8213 82.0889 18.008C 84.5849 14.1947 87.5142 12.288 90.8769 12.288C 94.2396 12.288 97.0302 13.7787 99.2489 16.76C 101.502 19.7413 102.629 24.2307 102.629 30.228C 102.629 36.2253 101.381 41.148 98.8849 44.996C 96.3889 48.844 93.4769 50.768 90.1489 50.768ZM 90.9289 18.476C 89.4036 18.476 88.0862 19.828 86.9769 22.532C 85.8676 25.2013 85.3129 28.5813 85.3129 32.672C 85.3129 36.728 85.7809 39.744 86.7169 41.72C 87.6876 43.6613 88.8836 44.632 90.3049 44.632C 91.7262 44.632 92.9742 43.28 94.0489 40.576C 95.1582 37.872 95.7129 34.492 95.7129 30.436C 95.7129 26.3453 95.2449 23.3293 94.3089 21.388C 93.4076 19.4467 92.2809 18.476 90.9289 18.476ZM 129.746 12.392L 129.798 36.572C 129.798 40.5587 129.659 44.84 129.382 49.416L 123.558 48.844C 119.086 38.6867 115.429 31.0773 112.586 26.016C 112.621 31.1467 112.638 39.328 112.638 50.56L 106.554 49.884C 106.45 47.7347 106.398 45.6547 106.398 43.644C 106.398 35.2547 106.866 25.4787 107.802 14.316L 114.718 14.992C 118.15 24.456 121.235 31.6493 123.974 36.572C 123.766 26.1027 123.523 17.852 123.246 11.82L 129.746 12.392ZM 139.571 49.104C 139.225 42.968 139.051 37.6293 139.051 33.088C 139.051 28.512 139.155 23.7453 139.363 18.788L 133.019 19.672L 131.875 13.64C 135.273 13.0507 138.635 12.6173 141.963 12.34L 151.687 11.82L 152.675 17.592C 150.769 17.696 148.619 17.852 146.227 18.06C 146.019 23.052 145.915 27.628 145.915 31.788C 145.915 35.948 145.985 41.9107 146.123 49.676L 139.571 49.104ZM 155.365 49.468C 155.815 41.148 156.041 33.7293 156.041 27.212C 156.041 20.6947 156.023 16.4133 155.989 14.368C 159.802 12.5653 163.771 11.664 167.897 11.664C 170.947 11.664 173.495 12.6347 175.541 14.576C 177.621 16.5173 178.661 19.256 178.661 22.792C 178.661 26.8827 175.766 30.8173 169.977 34.596C 173.131 38.548 176.355 42.8987 179.649 47.648L 174.657 51.34C 172.473 48.0467 168.555 42.6733 162.905 35.22C 162.801 40.5587 162.645 45.568 162.437 50.248L 155.365 49.468ZM 163.061 31.684C 165.626 30.4707 167.81 28.98 169.613 27.212C 171.415 25.4093 172.317 23.78 172.317 22.324C 172.317 20.868 171.883 19.7413 171.017 18.944C 170.185 18.1467 169.075 17.748 167.689 17.748C 166.302 17.748 164.777 18.0427 163.113 18.632C 163.113 24.4907 163.095 28.8413 163.061 31.684ZM 197.817 48.48L 196.621 41.252L 188.873 41.564L 186.897 51.34L 179.617 50.716L 188.925 13.016L 198.545 13.848L 205.357 49.104L 197.817 48.48ZM 193.241 19.828L 189.965 36L 195.789 35.792L 193.241 19.828ZM 232.273 12.392L 232.325 36.572C 232.325 40.5587 232.187 44.84 231.909 49.416L 226.085 48.844C 221.613 38.6867 217.956 31.0773 215.113 26.016C 215.148 31.1467 215.165 39.328 215.165 50.56L 209.081 49.884C 208.977 47.7347 208.925 45.6547 208.925 43.644C 208.925 35.2547 209.393 25.4787 210.329 14.316L 217.245 14.992C 220.677 24.456 223.763 31.6493 226.501 36.572C 226.293 26.1027 226.051 17.852 225.773 11.82L 232.273 12.392ZM 248.079 50.768C 244.785 50.768 241.995 49.2947 239.707 46.348C 237.453 43.3667 236.327 38.86 236.327 32.828C 236.327 26.7613 237.557 21.8213 240.019 18.008C 242.515 14.1947 245.444 12.288 248.807 12.288C 252.169 12.288 254.96 13.7787 257.179 16.76C 259.432 19.7413 260.559 24.2307 260.559 30.228C 260.559 36.2253 259.311 41.148 256.815 44.996C 254.319 48.844 251.407 50.768 248.079 50.768ZM 248.859 18.476C 247.333 18.476 246.016 19.828 244.907 22.532C 243.797 25.2013 243.243 28.5813 243.243 32.672C 243.243 36.728 243.711 39.744 244.647 41.72C 245.617 43.6613 246.813 44.632 248.235 44.632C 249.656 44.632 250.904 43.28 251.979 40.576C 253.088 37.872 253.643 34.492 253.643 30.436C 253.643 26.3453 253.175 23.3293 252.239 21.388C 251.337 19.4467 250.211 18.476 248.859 18.476ZM 277.38 26.276C 277.83 24.5773 278.056 23.156 278.056 22.012C 278.056 20.868 277.744 19.932 277.12 19.204C 276.496 18.4413 275.681 18.06 274.676 18.06C 273.705 18.06 272.89 18.5453 272.232 19.516C 271.573 20.4867 271.244 21.596 271.244 22.844C 271.244 25.2707 272.63 27.3507 275.404 29.084C 278.177 30.8867 280.066 32.1867 281.072 32.984C 282.077 33.7813 282.788 34.5093 283.204 35.168C 284.244 36.8667 284.764 38.6173 284.764 40.42C 284.764 43.54 283.706 46.036 281.592 47.908C 279.512 49.7453 277.154 50.664 274.52 50.664C 271.4 50.664 268.782 49.3467 266.668 46.712C 265.142 44.8053 263.738 42.4307 262.456 39.588L 267.5 37.144C 268.297 39.224 269.285 40.992 270.464 42.448C 271.677 43.8693 272.96 44.58 274.312 44.58C 275.178 44.58 275.958 44.3027 276.652 43.748C 277.345 43.1933 277.692 42.3613 277.692 41.252C 277.692 40.108 277.258 39.0507 276.392 38.08C 275.525 37.1093 274.364 36.1213 272.908 35.116C 271.452 34.1107 270.325 33.296 269.528 32.672C 268.73 32.0133 267.846 31.1813 266.876 30.176C 265.038 28.2347 264.12 25.756 264.12 22.74C 264.12 19.6893 265.177 17.1413 267.292 15.096C 269.406 13.016 271.92 11.976 274.832 11.976C 277.744 11.976 280.188 13.1027 282.164 15.356C 284.174 17.6093 285.18 19.932 285.18 22.324C 285.18 24.6813 284.729 26.7093 283.828 28.408L 277.38 26.276Z" transform="translate(102 85)" fill="white"/>
<path id="en nuestras oficinas de Buenos Aires" d="M 4.968 23.056C 5.652 23.056 6.381 22.399 7.155 21.085L 9.207 22.3C 8.865 22.894 8.532 23.398 8.208 23.812C 7.902 24.226 7.434 24.622 6.804 25C 6.174 25.378 5.472 25.567 4.698 25.567C 3.564 25.567 2.61 25.09 1.836 24.136C 1.062 23.164 0.675 21.859 0.675 20.221C 0.675 18.349 1.008 16.603 1.674 14.983C 2.034 14.137 2.547 13.453 3.213 12.931C 3.897 12.391 4.59 12.121 5.292 12.121C 6.012 12.121 6.588 12.238 7.02 12.472C 7.452 12.688 7.794 12.94 8.046 13.228C 8.316 13.498 8.55 13.903 8.748 14.443C 8.946 14.983 9.081 15.424 9.153 15.766C 9.243 16.108 9.315 16.603 9.369 17.251C 9.441 18.115 9.477 18.898 9.477 19.6C 8.037 19.996 6.174 20.356 3.888 20.68C 3.942 21.4 4.068 21.976 4.266 22.408C 4.464 22.84 4.698 23.056 4.968 23.056ZM 5.562 14.767C 5.166 14.767 4.806 15.163 4.482 15.955C 4.176 16.747 3.996 17.665 3.942 18.709C 4.896 18.511 5.724 18.322 6.426 18.142C 6.426 15.892 6.138 14.767 5.562 14.767ZM 16.8531 12.148C 19.2291 12.148 20.4171 14.128 20.4171 18.088C 20.4171 20.176 20.3001 22.39 20.0661 24.73L 16.9071 24.433C 17.1051 22.381 17.2041 20.311 17.2041 18.223C 17.2041 16.117 16.9071 15.064 16.3131 15.064C 16.0251 15.064 15.6561 15.793 15.2061 17.251C 14.7561 18.691 14.4771 20.104 14.3691 21.49C 14.4051 22.228 14.4771 23.56 14.5851 25.486L 11.4261 25.189C 11.2281 22.651 11.1291 20.419 11.1291 18.493C 11.1291 16.567 11.1831 14.839 11.2911 13.309L 13.2891 13.525C 13.3251 13.669 13.4601 14.254 13.6941 15.28C 14.7381 13.192 15.7911 12.148 16.8531 12.148ZM 34.8355 12.148C 37.2115 12.148 38.3995 14.128 38.3995 18.088C 38.3995 20.176 38.2825 22.39 38.0485 24.73L 34.8895 24.433C 35.0875 22.381 35.1865 20.311 35.1865 18.223C 35.1865 16.117 34.8895 15.064 34.2955 15.064C 34.0075 15.064 33.6385 15.793 33.1885 17.251C 32.7385 18.691 32.4595 20.104 32.3515 21.49C 32.3875 22.228 32.4595 23.56 32.5675 25.486L 29.4085 25.189C 29.2105 22.651 29.1115 20.419 29.1115 18.493C 29.1115 16.567 29.1655 14.839 29.2735 13.309L 31.2715 13.525C 31.3075 13.669 31.4425 14.254 31.6765 15.28C 32.7205 13.192 33.7735 12.148 34.8355 12.148ZM 49.5458 12.337L 49.4918 16.603C 49.4918 20.617 49.5638 23.569 49.7078 25.459L 47.0348 25.189C 46.9808 24.433 46.8638 23.668 46.6838 22.894C 45.6938 24.352 44.6948 25.081 43.6868 25.081C 42.6968 25.081 41.9048 24.739 41.3108 24.055C 40.7168 23.371 40.4198 22.426 40.4198 21.22C 40.4198 18.88 40.5908 16.09 40.9328 12.85L 44.0648 13.147C 43.7408 16.225 43.5788 18.781 43.5788 20.815C 43.5788 21.733 43.8668 22.192 44.4428 22.192C 44.7128 22.192 45.0368 21.823 45.4148 21.085C 45.8108 20.347 46.1258 19.456 46.3598 18.412C 46.3418 18.016 46.3328 17.548 46.3328 17.008C 46.3328 16.468 46.3598 14.821 46.4138 12.067L 49.5458 12.337ZM 55.6457 23.056C 56.3297 23.056 57.0587 22.399 57.8327 21.085L 59.8847 22.3C 59.5427 22.894 59.2097 23.398 58.8857 23.812C 58.5797 24.226 58.1117 24.622 57.4817 25C 56.8517 25.378 56.1497 25.567 55.3757 25.567C 54.2417 25.567 53.2877 25.09 52.5137 24.136C 51.7397 23.164 51.3527 21.859 51.3527 20.221C 51.3527 18.349 51.6857 16.603 52.3517 14.983C 52.7117 14.137 53.2247 13.453 53.8907 12.931C 54.5747 12.391 55.2677 12.121 55.9697 12.121C 56.6897 12.121 57.2657 12.238 57.6977 12.472C 58.1297 12.688 58.4717 12.94 58.7237 13.228C 58.9937 13.498 59.2277 13.903 59.4257 14.443C 59.6237 14.983 59.7587 15.424 59.8307 15.766C 59.9207 16.108 59.9927 16.603 60.0467 17.251C 60.1187 18.115 60.1547 18.898 60.1547 19.6C 58.7147 19.996 56.8517 20.356 54.5657 20.68C 54.6197 21.4 54.7457 21.976 54.9437 22.408C 55.1417 22.84 55.3757 23.056 55.6457 23.056ZM 56.2397 14.767C 55.8437 14.767 55.4837 15.163 55.1597 15.955C 54.8537 16.747 54.6737 17.665 54.6197 18.709C 55.5737 18.511 56.4017 18.322 57.1037 18.142C 57.1037 15.892 56.8157 14.767 56.2397 14.767ZM 66.9908 16.495C 66.9908 15.415 66.7208 14.875 66.1808 14.875C 65.9108 14.875 65.6588 15.01 65.4248 15.28C 65.2088 15.532 65.1008 15.883 65.1008 16.333C 65.1008 16.765 65.1818 17.125 65.3438 17.413C 65.5238 17.701 65.8388 17.989 66.2888 18.277C 66.7568 18.547 67.1168 18.772 67.3688 18.952C 67.6388 19.114 67.9538 19.348 68.3138 19.654C 69.0518 20.302 69.4208 21.139 69.4208 22.165C 69.4208 23.173 69.0338 23.992 68.2598 24.622C 67.5038 25.252 66.6488 25.567 65.6948 25.567C 64.7408 25.567 63.8768 25.315 63.1028 24.811C 62.3468 24.289 61.7348 23.641 61.2668 22.867L 62.7248 21.22C 63.4448 22.462 64.2008 23.083 64.9928 23.083C 65.2628 23.083 65.4968 23.011 65.6948 22.867C 65.8928 22.705 65.9918 22.489 65.9918 22.219C 65.9918 21.643 65.5778 21.112 64.7498 20.626C 63.8678 20.14 63.1748 19.6 62.6708 19.006C 62.1668 18.412 61.9148 17.575 61.9148 16.495C 61.9148 15.397 62.3648 14.416 63.2648 13.552C 64.1648 12.67 65.1278 12.229 66.1538 12.229C 67.1978 12.229 68.0168 12.589 68.6108 13.309C 69.2228 14.011 69.5288 14.965 69.5288 16.171C 69.5288 16.657 69.4748 17.179 69.3668 17.737L 66.9098 17.521C 66.9638 17.107 66.9908 16.765 66.9908 16.495ZM 77.6471 13.714L 77.6471 16.279C 76.7831 16.279 76.1171 16.288 75.6491 16.306C 75.5951 18.106 75.5681 21.13 75.5681 25.378L 72.3821 25.081C 72.3821 21.931 72.4091 19.078 72.4631 16.522C 72.1931 16.522 71.6801 16.567 70.9241 16.657L 70.5191 14.443C 70.9511 14.353 71.6261 14.236 72.5441 14.092C 72.5801 12.76 72.6521 10.816 72.7601 8.26L 75.9731 8.557C 75.8651 10.339 75.7841 12.067 75.7301 13.741C 76.1801 13.723 76.8191 13.714 77.6471 13.714ZM 84.1571 15.253C 83.4011 15.253 82.8341 16.207 82.4561 18.115C 82.4921 19.375 82.5101 20.581 82.5101 21.733C 82.5101 22.885 82.4741 24.181 82.4021 25.621L 79.2701 25.351C 79.3241 22.705 79.3511 21.247 79.3511 20.977C 79.3511 17.647 79.1891 15.1 78.8651 13.336L 80.8901 13.552C 81.0161 14.074 81.1601 14.533 81.3221 14.929C 82.2041 13.039 83.0951 12.094 83.9951 12.094C 84.7331 12.094 85.3811 12.418 85.9391 13.066L 85.2371 15.55C 84.9491 15.352 84.5891 15.253 84.1571 15.253ZM 87.0672 17.035C 87.3372 15.631 87.8502 14.443 88.6062 13.471C 89.3622 12.481 90.3522 11.986 91.5762 11.986C 92.8002 11.986 93.7002 12.499 94.2762 13.525C 94.8702 14.533 95.1672 15.973 95.1672 17.845C 95.1672 19.717 95.0592 22.3 94.8432 25.594L 92.5752 25.405L 92.3592 24.541C 91.5132 25.027 90.6492 25.27 89.7672 25.27C 88.8852 25.27 88.1562 24.982 87.5802 24.406C 87.0042 23.812 86.7162 22.966 86.7162 21.868C 86.7162 20.77 87.2562 19.825 88.3362 19.033C 89.4342 18.241 90.6942 17.827 92.1162 17.791L 92.1162 17.062C 92.1162 15.64 91.7742 14.929 91.0902 14.929C 90.7482 14.929 90.4332 15.172 90.1452 15.658C 89.8752 16.126 89.6772 16.666 89.5512 17.278L 87.0672 17.035ZM 89.4702 22.03C 89.4702 22.606 89.8122 22.894 90.4962 22.894C 90.9642 22.894 91.4592 22.786 91.9812 22.57L 92.0352 20.302C 91.1892 20.374 90.5502 20.59 90.1182 20.95C 89.6862 21.292 89.4702 21.652 89.4702 22.03ZM 102.745 16.495C 102.745 15.415 102.475 14.875 101.935 14.875C 101.665 14.875 101.413 15.01 101.179 15.28C 100.963 15.532 100.855 15.883 100.855 16.333C 100.855 16.765 100.936 17.125 101.098 17.413C 101.278 17.701 101.593 17.989 102.043 18.277C 102.511 18.547 102.871 18.772 103.123 18.952C 103.393 19.114 103.708 19.348 104.068 19.654C 104.806 20.302 105.175 21.139 105.175 22.165C 105.175 23.173 104.788 23.992 104.014 24.622C 103.258 25.252 102.403 25.567 101.449 25.567C 100.495 25.567 99.6307 25.315 98.8567 24.811C 98.1007 24.289 97.4887 23.641 97.0207 22.867L 98.4787 21.22C 99.1987 22.462 99.9547 23.083 100.747 23.083C 101.017 23.083 101.251 23.011 101.449 22.867C 101.647 22.705 101.746 22.489 101.746 22.219C 101.746 21.643 101.332 21.112 100.504 20.626C 99.6217 20.14 98.9287 19.6 98.4247 19.006C 97.9207 18.412 97.6687 17.575 97.6687 16.495C 97.6687 15.397 98.1187 14.416 99.0187 13.552C 99.9187 12.67 100.882 12.229 101.908 12.229C 102.952 12.229 103.771 12.589 104.365 13.309C 104.977 14.011 105.283 14.965 105.283 16.171C 105.283 16.657 105.229 17.179 105.121 17.737L 102.664 17.521C 102.718 17.107 102.745 16.765 102.745 16.495ZM 116.052 20.14C 116.052 22.174 116.502 23.191 117.402 23.191C 117.798 23.191 118.131 22.624 118.401 21.49C 118.671 20.338 118.806 19.24 118.806 18.196C 118.806 15.892 118.428 14.74 117.672 14.74C 117.186 14.74 116.79 15.361 116.484 16.603C 116.196 17.827 116.052 19.006 116.052 20.14ZM 112.893 19.897C 112.893 18.223 113.235 16.585 113.919 14.983C 114.279 14.173 114.783 13.516 115.431 13.012C 116.097 12.49 116.835 12.229 117.645 12.229C 118.455 12.229 119.148 12.418 119.724 12.796C 120.318 13.156 120.768 13.642 121.074 14.254C 121.668 15.46 121.965 16.774 121.965 18.196C 121.965 20.158 121.56 21.904 120.75 23.434C 119.958 24.946 118.842 25.702 117.402 25.702C 114.396 25.702 112.893 23.767 112.893 19.897ZM 124.103 12.985C 124.103 10.555 124.463 8.647 125.183 7.261C 125.921 5.857 126.857 5.155 127.991 5.155C 129.143 5.155 130.016 5.74 130.61 6.91C 131.222 8.062 131.528 9.655 131.528 11.689L 129.017 11.419C 129.017 9.403 128.702 8.395 128.072 8.395C 127.532 8.395 127.262 9.925 127.262 12.985L 127.262 13.768C 128.468 13.678 129.449 13.633 130.205 13.633L 130.205 16.144C 128.963 16.144 127.991 16.189 127.289 16.279C 127.289 19.033 127.388 22.093 127.586 25.459L 124.427 25.135C 124.283 22.651 124.184 19.843 124.13 16.711C 123.662 16.783 123.338 16.846 123.158 16.9L 122.591 14.47C 122.771 14.416 123.275 14.317 124.103 14.173L 124.103 12.985ZM 131.8 12.121L 134.878 12.418L 134.878 25.378L 131.8 25.081L 131.8 12.121ZM 132.016 7.369L 135.04 7.72L 134.771 10.744L 131.747 10.366L 132.016 7.369ZM 142.582 18.088C 142.618 17.836 142.636 17.512 142.636 17.116C 142.636 16.72 142.555 16.315 142.393 15.901C 142.231 15.487 142.024 15.28 141.772 15.28C 141.268 15.28 140.899 15.865 140.665 17.035C 140.449 18.187 140.341 19.249 140.341 20.221C 140.341 21.859 140.674 22.678 141.34 22.678C 141.88 22.678 142.645 21.733 143.635 19.843L 145.633 21.274C 145.147 22.588 144.535 23.632 143.797 24.406C 143.077 25.18 142.204 25.567 141.178 25.567C 140.152 25.567 139.225 25.162 138.397 24.352C 137.587 23.542 137.182 22.309 137.182 20.653C 137.182 18.889 137.47 17.134 138.046 15.388C 138.37 14.434 138.847 13.651 139.477 13.039C 140.125 12.427 140.944 12.121 141.934 12.121C 142.924 12.121 143.743 12.625 144.391 13.633C 145.057 14.641 145.39 15.757 145.39 16.981C 145.39 17.503 145.309 17.953 145.147 18.331L 142.582 18.088ZM 147.726 12.121L 150.804 12.418L 150.804 25.378L 147.726 25.081L 147.726 12.121ZM 147.942 7.369L 150.966 7.72L 150.696 10.744L 147.672 10.366L 147.942 7.369ZM 159.183 12.148C 161.559 12.148 162.747 14.128 162.747 18.088C 162.747 20.176 162.63 22.39 162.396 24.73L 159.237 24.433C 159.435 22.381 159.534 20.311 159.534 18.223C 159.534 16.117 159.237 15.064 158.643 15.064C 158.355 15.064 157.986 15.793 157.536 17.251C 157.086 18.691 156.807 20.104 156.699 21.49C 156.735 22.228 156.807 23.56 156.915 25.486L 153.756 25.189C 153.558 22.651 153.459 20.419 153.459 18.493C 153.459 16.567 153.513 14.839 153.621 13.309L 155.619 13.525C 155.655 13.669 155.79 14.254 156.024 15.28C 157.068 13.192 158.121 12.148 159.183 12.148ZM 164.93 17.035C 165.2 15.631 165.713 14.443 166.469 13.471C 167.224 12.481 168.214 11.986 169.438 11.986C 170.662 11.986 171.562 12.499 172.138 13.525C 172.732 14.533 173.029 15.973 173.029 17.845C 173.029 19.717 172.921 22.3 172.705 25.594L 170.438 25.405L 170.221 24.541C 169.375 25.027 168.511 25.27 167.629 25.27C 166.748 25.27 166.019 24.982 165.442 24.406C 164.866 23.812 164.578 22.966 164.578 21.868C 164.578 20.77 165.119 19.825 166.199 19.033C 167.297 18.241 168.556 17.827 169.978 17.791L 169.978 17.062C 169.978 15.64 169.636 14.929 168.952 14.929C 168.61 14.929 168.295 15.172 168.007 15.658C 167.737 16.126 167.539 16.666 167.413 17.278L 164.93 17.035ZM 167.333 22.03C 167.333 22.606 167.675 22.894 168.358 22.894C 168.826 22.894 169.322 22.786 169.844 22.57L 169.898 20.302C 169.052 20.374 168.412 20.59 167.98 20.95C 167.549 21.292 167.333 21.652 167.333 22.03ZM 180.607 16.495C 180.607 15.415 180.337 14.875 179.797 14.875C 179.527 14.875 179.275 15.01 179.041 15.28C 178.825 15.532 178.717 15.883 178.717 16.333C 178.717 16.765 178.798 17.125 178.96 17.413C 179.14 17.701 179.455 17.989 179.905 18.277C 180.373 18.547 180.733 18.772 180.985 18.952C 181.255 19.114 181.57 19.348 181.93 19.654C 182.668 20.302 183.037 21.139 183.037 22.165C 183.037 23.173 182.65 23.992 181.876 24.622C 181.12 25.252 180.265 25.567 179.311 25.567C 178.357 25.567 177.493 25.315 176.719 24.811C 175.963 24.289 175.351 23.641 174.883 22.867L 176.341 21.22C 177.061 22.462 177.817 23.083 178.609 23.083C 178.879 23.083 179.113 23.011 179.311 22.867C 179.509 22.705 179.608 22.489 179.608 22.219C 179.608 21.643 179.194 21.112 178.366 20.626C 177.484 20.14 176.791 19.6 176.287 19.006C 175.783 18.412 175.531 17.575 175.531 16.495C 175.531 15.397 175.981 14.416 176.881 13.552C 177.781 12.67 178.744 12.229 179.77 12.229C 180.814 12.229 181.633 12.589 182.227 13.309C 182.839 14.011 183.145 14.965 183.145 16.171C 183.145 16.657 183.091 17.179 182.983 17.737L 180.526 17.521C 180.58 17.107 180.607 16.765 180.607 16.495ZM 196.857 12.769L 196.884 9.421C 196.884 8.179 196.857 6.766 196.803 5.182L 199.962 5.452C 199.998 6.73 200.016 9.052 200.016 12.418C 200.016 15.766 199.872 20.086 199.584 25.378L 197.181 25.162C 197.127 24.442 197.073 23.596 197.019 22.624C 196.245 24.172 195.408 24.946 194.508 24.946C 193.122 24.946 192.159 24.514 191.619 23.65C 191.079 22.786 190.809 21.535 190.809 19.897C 190.809 18.241 191.16 16.531 191.862 14.767C 192.582 13.003 193.392 12.121 194.292 12.121C 195.102 12.121 195.957 12.337 196.857 12.769ZM 196.938 15.28C 196.488 14.938 196.038 14.767 195.588 14.767C 195.156 14.767 194.778 15.352 194.454 16.522C 194.13 17.674 193.968 18.88 193.968 20.14C 193.968 21.4 194.274 22.03 194.886 22.03C 195.12 22.03 195.435 21.643 195.831 20.869C 196.227 20.077 196.587 19.078 196.911 17.872L 196.938 15.28ZM 206.15 23.056C 206.834 23.056 207.563 22.399 208.337 21.085L 210.389 22.3C 210.047 22.894 209.714 23.398 209.39 23.812C 209.084 24.226 208.616 24.622 207.986 25C 207.356 25.378 206.654 25.567 205.88 25.567C 204.746 25.567 203.792 25.09 203.018 24.136C 202.244 23.164 201.857 21.859 201.857 20.221C 201.857 18.349 202.19 16.603 202.856 14.983C 203.216 14.137 203.729 13.453 204.395 12.931C 205.079 12.391 205.772 12.121 206.474 12.121C 207.194 12.121 207.77 12.238 208.202 12.472C 208.634 12.688 208.976 12.94 209.228 13.228C 209.498 13.498 209.732 13.903 209.93 14.443C 210.128 14.983 210.263 15.424 210.335 15.766C 210.425 16.108 210.497 16.603 210.551 17.251C 210.623 18.115 210.659 18.898 210.659 19.6C 209.219 19.996 207.356 20.356 205.07 20.68C 205.124 21.4 205.25 21.976 205.448 22.408C 205.646 22.84 205.88 23.056 206.15 23.056ZM 206.744 14.767C 206.348 14.767 205.988 15.163 205.664 15.955C 205.358 16.747 205.178 17.665 205.124 18.709C 206.078 18.511 206.906 18.322 207.608 18.142C 207.608 15.892 207.32 14.767 206.744 14.767ZM 219.606 7.045C 221.712 6.397 223.611 6.073 225.303 6.073C 227.013 6.073 228.462 6.532 229.65 7.45C 230.838 8.35 231.432 9.466 231.432 10.798C 231.432 12.796 230.316 14.38 228.084 15.55C 230.172 16.396 231.216 17.809 231.216 19.789C 231.216 21.247 230.451 22.552 228.921 23.704C 227.391 24.838 225.789 25.405 224.115 25.405C 223.899 25.405 222.36 25.279 219.498 25.027C 219.75 21.157 219.876 17.899 219.876 15.253C 219.876 12.607 219.786 9.871 219.606 7.045ZM 227.787 11.176C 227.787 10.636 227.517 10.186 226.977 9.826C 226.455 9.448 225.888 9.259 225.276 9.259C 224.682 9.259 224.043 9.367 223.359 9.583C 223.431 11.743 223.467 13.372 223.467 14.47C 224.295 14.398 225.222 14.029 226.248 13.363C 227.274 12.679 227.787 11.95 227.787 11.176ZM 224.709 22.111C 225.303 22.111 225.933 21.877 226.599 21.409C 227.265 20.923 227.598 20.374 227.598 19.762C 227.598 19.132 227.211 18.583 226.437 18.115C 225.663 17.647 224.664 17.359 223.44 17.251C 223.404 19.375 223.368 20.968 223.332 22.03C 223.656 22.084 224.115 22.111 224.709 22.111ZM 241.974 12.337L 241.92 16.603C 241.92 20.617 241.992 23.569 242.136 25.459L 239.463 25.189C 239.409 24.433 239.292 23.668 239.112 22.894C 238.122 24.352 237.123 25.081 236.115 25.081C 235.125 25.081 234.333 24.739 233.739 24.055C 233.145 23.371 232.848 22.426 232.848 21.22C 232.848 18.88 233.019 16.09 233.361 12.85L 236.493 13.147C 236.169 16.225 236.007 18.781 236.007 20.815C 236.007 21.733 236.295 22.192 236.871 22.192C 237.141 22.192 237.465 21.823 237.843 21.085C 238.239 20.347 238.554 19.456 238.788 18.412C 238.77 18.016 238.761 17.548 238.761 17.008C 238.761 16.468 238.788 14.821 238.842 12.067L 241.974 12.337ZM 248.073 23.056C 248.757 23.056 249.486 22.399 250.26 21.085L 252.312 22.3C 251.97 22.894 251.637 23.398 251.313 23.812C 251.007 24.226 250.539 24.622 249.909 25C 249.279 25.378 248.577 25.567 247.803 25.567C 246.669 25.567 245.715 25.09 244.941 24.136C 244.167 23.164 243.78 21.859 243.78 20.221C 243.78 18.349 244.113 16.603 244.779 14.983C 245.139 14.137 245.652 13.453 246.318 12.931C 247.002 12.391 247.695 12.121 248.397 12.121C 249.117 12.121 249.693 12.238 250.125 12.472C 250.557 12.688 250.899 12.94 251.151 13.228C 251.421 13.498 251.655 13.903 251.853 14.443C 252.051 14.983 252.186 15.424 252.258 15.766C 252.348 16.108 252.42 16.603 252.474 17.251C 252.546 18.115 252.582 18.898 252.582 19.6C 251.142 19.996 249.279 20.356 246.993 20.68C 247.047 21.4 247.173 21.976 247.371 22.408C 247.569 22.84 247.803 23.056 248.073 23.056ZM 248.667 14.767C 248.271 14.767 247.911 15.163 247.587 15.955C 247.281 16.747 247.101 17.665 247.047 18.709C 248.001 18.511 248.829 18.322 249.531 18.142C 249.531 15.892 249.243 14.767 248.667 14.767ZM 259.959 12.148C 262.335 12.148 263.523 14.128 263.523 18.088C 263.523 20.176 263.406 22.39 263.172 24.73L 260.013 24.433C 260.211 22.381 260.31 20.311 260.31 18.223C 260.31 16.117 260.013 15.064 259.419 15.064C 259.131 15.064 258.762 15.793 258.312 17.251C 257.862 18.691 257.583 20.104 257.475 21.49C 257.511 22.228 257.583 23.56 257.691 25.486L 254.532 25.189C 254.334 22.651 254.235 20.419 254.235 18.493C 254.235 16.567 254.289 14.839 254.397 13.309L 256.395 13.525C 256.431 13.669 256.566 14.254 256.8 15.28C 257.844 13.192 258.897 12.148 259.959 12.148ZM 268.27 20.14C 268.27 22.174 268.72 23.191 269.62 23.191C 270.016 23.191 270.349 22.624 270.619 21.49C 270.889 20.338 271.024 19.24 271.024 18.196C 271.024 15.892 270.646 14.74 269.89 14.74C 269.404 14.74 269.008 15.361 268.702 16.603C 268.414 17.827 268.27 19.006 268.27 20.14ZM 265.111 19.897C 265.111 18.223 265.453 16.585 266.137 14.983C 266.497 14.173 267.001 13.516 267.649 13.012C 268.315 12.49 269.053 12.229 269.863 12.229C 270.673 12.229 271.366 12.418 271.942 12.796C 272.536 13.156 272.986 13.642 273.292 14.254C 273.886 15.46 274.183 16.774 274.183 18.196C 274.183 20.158 273.778 21.904 272.968 23.434C 272.176 24.946 271.06 25.702 269.62 25.702C 266.614 25.702 265.111 23.767 265.111 19.897ZM 280.802 16.495C 280.802 15.415 280.532 14.875 279.992 14.875C 279.722 14.875 279.47 15.01 279.236 15.28C 279.02 15.532 278.912 15.883 278.912 16.333C 278.912 16.765 278.993 17.125 279.155 17.413C 279.335 17.701 279.65 17.989 280.1 18.277C 280.568 18.547 280.928 18.772 281.18 18.952C 281.45 19.114 281.765 19.348 282.125 19.654C 282.863 20.302 283.232 21.139 283.232 22.165C 283.232 23.173 282.845 23.992 282.071 24.622C 281.315 25.252 280.46 25.567 279.506 25.567C 278.552 25.567 277.688 25.315 276.914 24.811C 276.158 24.289 275.546 23.641 275.078 22.867L 276.536 21.22C 277.256 22.462 278.012 23.083 278.804 23.083C 279.074 23.083 279.308 23.011 279.506 22.867C 279.704 22.705 279.803 22.489 279.803 22.219C 279.803 21.643 279.389 21.112 278.561 20.626C 277.679 20.14 276.986 19.6 276.482 19.006C 275.978 18.412 275.726 17.575 275.726 16.495C 275.726 15.397 276.176 14.416 277.076 13.552C 277.976 12.67 278.939 12.229 279.965 12.229C 281.009 12.229 281.828 12.589 282.422 13.309C 283.034 14.011 283.34 14.965 283.34 16.171C 283.34 16.657 283.286 17.179 283.178 17.737L 280.721 17.521C 280.775 17.107 280.802 16.765 280.802 16.495ZM 299.834 24.73L 299.213 20.977L 295.19 21.139L 294.164 26.215L 290.384 25.891L 295.217 6.316L 300.212 6.748L 303.749 25.054L 299.834 24.73ZM 297.458 9.853L 295.757 18.25L 298.781 18.142L 297.458 9.853ZM 306.088 12.121L 309.166 12.418L 309.166 25.378L 306.088 25.081L 306.088 12.121ZM 306.304 7.369L 309.328 7.72L 309.058 10.744L 306.034 10.366L 306.304 7.369ZM 317.058 15.253C 316.302 15.253 315.735 16.207 315.357 18.115C 315.393 19.375 315.411 20.581 315.411 21.733C 315.411 22.885 315.375 24.181 315.303 25.621L 312.171 25.351C 312.225 22.705 312.252 21.247 312.252 20.977C 312.252 17.647 312.09 15.1 311.766 13.336L 313.791 13.552C 313.917 14.074 314.061 14.533 314.223 14.929C 315.105 13.039 315.996 12.094 316.896 12.094C 317.634 12.094 318.282 12.418 318.84 13.066L 318.138 15.55C 317.85 15.352 317.49 15.253 317.058 15.253ZM 323.695 23.056C 324.379 23.056 325.108 22.399 325.882 21.085L 327.934 22.3C 327.592 22.894 327.259 23.398 326.935 23.812C 326.629 24.226 326.161 24.622 325.531 25C 324.901 25.378 324.199 25.567 323.425 25.567C 322.291 25.567 321.337 25.09 320.563 24.136C 319.789 23.164 319.402 21.859 319.402 20.221C 319.402 18.349 319.735 16.603 320.401 14.983C 320.761 14.137 321.274 13.453 321.94 12.931C 322.624 12.391 323.317 12.121 324.019 12.121C 324.739 12.121 325.315 12.238 325.747 12.472C 326.179 12.688 326.521 12.94 326.773 13.228C 327.043 13.498 327.277 13.903 327.475 14.443C 327.673 14.983 327.808 15.424 327.88 15.766C 327.97 16.108 328.042 16.603 328.096 17.251C 328.168 18.115 328.204 18.898 328.204 19.6C 326.764 19.996 324.901 20.356 322.615 20.68C 322.669 21.4 322.795 21.976 322.993 22.408C 323.191 22.84 323.425 23.056 323.695 23.056ZM 324.289 14.767C 323.893 14.767 323.533 15.163 323.209 15.955C 322.903 16.747 322.723 17.665 322.669 18.709C 323.623 18.511 324.451 18.322 325.153 18.142C 325.153 15.892 324.865 14.767 324.289 14.767ZM 335.04 16.495C 335.04 15.415 334.77 14.875 334.23 14.875C 333.96 14.875 333.708 15.01 333.474 15.28C 333.258 15.532 333.15 15.883 333.15 16.333C 333.15 16.765 333.231 17.125 333.393 17.413C 333.573 17.701 333.888 17.989 334.338 18.277C 334.806 18.547 335.166 18.772 335.418 18.952C 335.688 19.114 336.003 19.348 336.363 19.654C 337.101 20.302 337.47 21.139 337.47 22.165C 337.47 23.173 337.083 23.992 336.309 24.622C 335.553 25.252 334.698 25.567 333.744 25.567C 332.79 25.567 331.926 25.315 331.152 24.811C 330.396 24.289 329.784 23.641 329.316 22.867L 330.774 21.22C 331.494 22.462 332.25 23.083 333.042 23.083C 333.312 23.083 333.546 23.011 333.744 22.867C 333.942 22.705 334.041 22.489 334.041 22.219C 334.041 21.643 333.627 21.112 332.799 20.626C 331.917 20.14 331.224 19.6 330.72 19.006C 330.216 18.412 329.964 17.575 329.964 16.495C 329.964 15.397 330.414 14.416 331.314 13.552C 332.214 12.67 333.177 12.229 334.203 12.229C 335.247 12.229 336.066 12.589 336.66 13.309C 337.272 14.011 337.578 14.965 337.578 16.171C 337.578 16.657 337.524 17.179 337.416 17.737L 334.959 17.521C 335.013 17.107 335.04 16.765 335.04 16.495Z" transform="translate(102 144)" fill="#FDCC01"/>
</g>
</g>
<defs>
<filter id="filter0_d" x="0.139893" y="0.615723" width="547.856" height="310.344" filterUnits="userSpaceOnUse" color-interpolation-filters="sRGB">
<feFlood flood-opacity="0" result="BackgroundImageFix"/>
<feColorMatrix in="SourceAlpha" type="matrix" values="0 0 0 0 0 0 0 0 0 0 0 0 0 0 0 0 0 0 255 0"/>
<feOffset dy="20"/>
<feGaussianBlur stdDeviation="25"/>
<feColorMatrix type="matrix" values="0 0 0 0 0 0 0 0 0 0 0 0 0 0 0 0 0 0 0.1 0"/>
<feBlend mode="normal" in2="BackgroundImageFix" result="effect1_dropShadow"/>
<feBlend mode="normal" in="SourceGraphic" in2="effect1_dropShadow" result="shape"/>
</filter>
</defs>
</svg>
