<svg width="435" height="253" viewBox="0 0 435 253" fill="none" xmlns="http://www.w3.org/2000/svg">
<g filter="url(#filter0_d)">
<path d="M29.8915 40.8808C33.5092 25.2568 47.0257 13.9101 63.0401 13.0532L281.948 1.34044C297.002 0.534966 310.963 9.19484 316.931 23.0392L360.09 123.169C370.398 147.082 352.69 173.691 326.651 173.416L44.799 170.445C21.794 170.202 4.91665 148.739 10.1065 126.326L29.8915 40.8808Z" transform="translate(31 19)" fill="#10327B"/>
</g>
<path d="M14.7613 8.608V12.79C12.2226 12.79 9.8426 12.8693 7.62127 13.028C7.57593 13.6853 7.5306 14.8527 7.48527 16.53C7.4626 18.1847 7.43993 19.2047 7.41727 19.59C9.95593 19.25 11.9959 19.08 13.5373 19.08L14.2173 22.82C11.6786 22.888 9.4006 23.0467 7.38327 23.296C7.38327 26.832 7.4286 29.9487 7.51927 32.646L2.92927 32.136C2.88393 28.464 2.86127 25.0527 2.86127 21.902C2.86127 18.7513 3.0426 14.6147 3.40527 9.492C7.28127 8.90267 11.0666 8.608 14.7613 8.608ZM19.585 25.88C19.585 28.4413 20.1517 29.722 21.285 29.722C21.7837 29.722 22.203 29.008 22.543 27.58C22.883 26.1293 23.053 24.7467 23.053 23.432C23.053 20.5307 22.577 19.08 21.625 19.08C21.013 19.08 20.5143 19.862 20.129 21.426C19.7663 22.9673 19.585 24.452 19.585 25.88ZM15.607 25.574C15.607 23.466 16.0377 21.4033 16.899 19.386C17.3523 18.366 17.987 17.5387 18.803 16.904C19.6417 16.2467 20.571 15.918 21.591 15.918C22.611 15.918 23.4837 16.156 24.209 16.632C24.957 17.0853 25.5237 17.6973 25.909 18.468C26.657 19.9867 27.031 21.6413 27.031 23.432C27.031 25.9027 26.521 28.1013 25.501 30.028C24.5037 31.932 23.0983 32.884 21.285 32.884C17.4997 32.884 15.607 30.4473 15.607 25.574ZM35.4346 19.726C34.4826 19.726 33.7686 20.9273 33.2926 23.33C33.3379 24.9167 33.3606 26.4353 33.3606 27.886C33.3606 29.3367 33.3153 30.9687 33.2246 32.782L29.2806 32.442C29.3486 29.11 29.3826 27.274 29.3826 26.934C29.3826 22.7407 29.1786 19.5333 28.7706 17.312L31.3206 17.584C31.4793 18.2413 31.6606 18.8193 31.8646 19.318C32.9753 16.938 34.0973 15.748 35.2306 15.748C36.1599 15.748 36.9759 16.156 37.6786 16.972L36.7946 20.1C36.4319 19.8507 35.9786 19.726 35.4346 19.726ZM46.7492 16.836C48.1318 16.836 49.1858 17.312 49.9112 18.264C51.0898 16.5413 52.2572 15.68 53.4132 15.68C56.5638 15.68 58.1392 18.0487 58.1392 22.786C58.1392 25.4607 57.9125 28.702 57.4592 32.51L53.5152 32.17C53.9458 27.9313 54.1612 24.7013 54.1612 22.48C54.1612 20.2587 53.7985 19.148 53.0732 19.148C52.7558 19.148 52.3818 19.658 51.9512 20.678C51.5205 21.698 51.2372 22.8313 51.1012 24.078C51.0558 26.9113 50.9652 29.4387 50.8292 31.66L46.8512 31.286C47.0325 28.09 47.1232 25.4607 47.1232 23.398C47.1232 21.3353 46.8398 20.304 46.2732 20.304C45.9105 20.304 45.4345 20.9387 44.8452 22.208C44.2785 23.4547 43.8705 24.7693 43.6212 26.152C43.6438 28.2373 43.7458 30.3907 43.9272 32.612L39.9492 32.238C39.6998 29.042 39.5752 26.1293 39.5752 23.5C39.5752 20.8707 39.6432 18.4113 39.7792 16.122L42.6012 16.326C42.7372 16.938 42.9298 18.0487 43.1792 19.658C44.3805 17.7767 45.5705 16.836 46.7492 16.836ZM72.4008 16.054L72.3328 21.426C72.3328 26.4807 72.4235 30.198 72.6048 32.578L69.2388 32.238C69.1708 31.286 69.0235 30.3227 68.7968 29.348C67.5502 31.184 66.2922 32.102 65.0228 32.102C63.7762 32.102 62.7788 31.6713 62.0308 30.81C61.2828 29.9487 60.9088 28.7587 60.9088 27.24C60.9088 24.2933 61.1242 20.78 61.5548 16.7L65.4988 17.074C65.0908 20.95 64.8868 24.1687 64.8868 26.73C64.8868 27.886 65.2495 28.464 65.9748 28.464C66.3148 28.464 66.7228 27.9993 67.1988 27.07C67.6975 26.1407 68.0942 25.0187 68.3888 23.704C68.3662 23.2053 68.3548 22.616 68.3548 21.936C68.3548 21.256 68.3888 19.182 68.4568 15.714L72.4008 16.054ZM80.4902 7.452C80.1502 13.1867 79.9802 18.3547 79.9802 22.956C79.9802 27.5573 80.0368 30.7873 80.1502 32.646L76.1382 32.272C76.0475 29.9147 76.0022 26.5713 76.0022 22.242C76.0022 17.89 76.1722 12.858 76.5122 7.146L80.4902 7.452ZM83.4253 21.97C83.7653 20.202 84.4113 18.706 85.3633 17.482C86.3153 16.2353 87.562 15.612 89.1033 15.612C90.6447 15.612 91.778 16.258 92.5033 17.55C93.2513 18.8193 93.6253 20.6327 93.6253 22.99C93.6253 25.3473 93.4893 28.6 93.2173 32.748L90.3613 32.51L90.0893 31.422C89.024 32.034 87.936 32.34 86.8253 32.34C85.7147 32.34 84.7967 31.9773 84.0713 31.252C83.346 30.504 82.9833 29.4387 82.9833 28.056C82.9833 26.6733 83.6633 25.4833 85.0233 24.486C86.406 23.4887 87.9927 22.9673 89.7833 22.922V22.004C89.7833 20.2133 89.3527 19.318 88.4913 19.318C88.0607 19.318 87.664 19.624 87.3013 20.236C86.9613 20.8253 86.712 21.5053 86.5533 22.276L83.4253 21.97ZM86.4513 28.26C86.4513 28.9853 86.882 29.348 87.7433 29.348C88.3327 29.348 88.956 29.212 89.6133 28.94L89.6813 26.084C88.616 26.1747 87.8113 26.4467 87.2673 26.9C86.7233 27.3307 86.4513 27.784 86.4513 28.26ZM103.235 19.726C102.283 19.726 101.569 20.9273 101.093 23.33C101.139 24.9167 101.161 26.4353 101.161 27.886C101.161 29.3367 101.116 30.9687 101.025 32.782L97.0814 32.442C97.1494 29.11 97.1834 27.274 97.1834 26.934C97.1834 22.7407 96.9794 19.5333 96.5714 17.312L99.1214 17.584C99.28 18.2413 99.4614 18.8193 99.6654 19.318C100.776 16.938 101.898 15.748 103.031 15.748C103.961 15.748 104.777 16.156 105.479 16.972L104.595 20.1C104.233 19.8507 103.779 19.726 103.235 19.726ZM107.682 15.782L111.558 16.156V32.476L107.682 32.102V15.782ZM107.954 9.798L111.762 10.24L111.422 14.048L107.614 13.572L107.954 9.798ZM118.165 25.88C118.165 28.4413 118.732 29.722 119.865 29.722C120.364 29.722 120.783 29.008 121.123 27.58C121.463 26.1293 121.633 24.7467 121.633 23.432C121.633 20.5307 121.157 19.08 120.205 19.08C119.593 19.08 119.094 19.862 118.709 21.426C118.346 22.9673 118.165 24.452 118.165 25.88ZM114.187 25.574C114.187 23.466 114.618 21.4033 115.479 19.386C115.932 18.366 116.567 17.5387 117.383 16.904C118.222 16.2467 119.151 15.918 120.171 15.918C121.191 15.918 122.064 16.156 122.789 16.632C123.537 17.0853 124.104 17.6973 124.489 18.468C125.237 19.9867 125.611 21.6413 125.611 23.432C125.611 25.9027 125.101 28.1013 124.081 30.028C123.084 31.932 121.678 32.884 119.865 32.884C116.08 32.884 114.187 30.4473 114.187 25.574ZM142.623 16.598L142.657 12.382C142.657 10.818 142.623 9.03867 142.555 7.044L146.533 7.384C146.578 8.99333 146.601 11.9173 146.601 16.156C146.601 20.372 146.42 25.812 146.057 32.476L143.031 32.204C142.963 31.2973 142.895 30.232 142.827 29.008C141.852 30.9573 140.798 31.932 139.665 31.932C137.92 31.932 136.707 31.388 136.027 30.3C135.347 29.212 135.007 27.6367 135.007 25.574C135.007 23.4887 135.449 21.3353 136.333 19.114C137.24 16.8927 138.26 15.782 139.393 15.782C140.413 15.782 141.49 16.054 142.623 16.598ZM142.725 19.76C142.158 19.3293 141.592 19.114 141.025 19.114C140.481 19.114 140.005 19.8507 139.597 21.324C139.189 22.7747 138.985 24.2933 138.985 25.88C138.985 27.4667 139.37 28.26 140.141 28.26C140.436 28.26 140.832 27.7727 141.331 26.798C141.83 25.8007 142.283 24.5427 142.691 23.024L142.725 19.76ZM154.324 29.552C155.186 29.552 156.104 28.7247 157.078 27.07L159.662 28.6C159.232 29.348 158.812 29.9827 158.404 30.504C158.019 31.0253 157.43 31.524 156.636 32C155.843 32.476 154.959 32.714 153.984 32.714C152.556 32.714 151.355 32.1133 150.38 30.912C149.406 29.688 148.918 28.0447 148.918 25.982C148.918 23.6247 149.338 21.426 150.176 19.386C150.63 18.3207 151.276 17.4593 152.114 16.802C152.976 16.122 153.848 15.782 154.732 15.782C155.639 15.782 156.364 15.9293 156.908 16.224C157.452 16.496 157.883 16.8133 158.2 17.176C158.54 17.516 158.835 18.026 159.084 18.706C159.334 19.386 159.504 19.9413 159.594 20.372C159.708 20.8027 159.798 21.426 159.866 22.242C159.957 23.33 160.002 24.316 160.002 25.2C158.189 25.6987 155.843 26.152 152.964 26.56C153.032 27.4667 153.191 28.192 153.44 28.736C153.69 29.28 153.984 29.552 154.324 29.552ZM155.072 19.114C154.574 19.114 154.12 19.6127 153.712 20.61C153.327 21.6073 153.1 22.7633 153.032 24.078C154.234 23.8287 155.276 23.5907 156.16 23.364C156.16 20.5307 155.798 19.114 155.072 19.114Z" transform="translate(120 65)" fill="white"/>
<path d="M14.6999 19.525C13.1452 19.525 11.7849 21.4507 10.6189 25.302C9.45287 29.118 8.86987 32.51 8.86987 35.478C8.86987 41.6967 10.4952 44.806 13.7459 44.806C14.6645 44.806 15.4595 44.4173 16.1309 43.64C16.8375 42.8273 17.3322 41.997 17.6149 41.149C17.9329 40.301 18.3039 39.135 18.7279 37.651L25.4589 38.181C24.5402 42.527 23.1622 45.8483 21.3249 48.145C19.5229 50.4417 16.9965 51.59 13.7459 51.59C9.92987 51.59 6.97954 50.159 4.89487 47.297C2.84554 44.3997 1.82087 40.725 1.82087 36.273C1.82087 31.079 2.84554 26.0263 4.89487 21.115C5.8842 18.677 7.2622 16.6807 9.02887 15.126C10.8309 13.536 12.8802 12.741 15.1769 12.741C18.0035 12.741 20.0529 13.6773 21.3249 15.55C21.9609 16.4687 22.4732 17.405 22.8619 18.359C23.2859 19.313 23.5862 20.532 23.7629 22.016C24.0809 24.3833 24.2752 26.9273 24.3459 29.648L17.5089 29.012C17.5089 24.454 17.0849 21.592 16.2369 20.426C15.8482 19.8253 15.3359 19.525 14.6999 19.525ZM39.7912 51.802C36.4346 51.802 33.5902 50.3003 31.2582 47.297C28.9616 44.2583 27.8132 39.665 27.8132 33.517C27.8132 27.3337 29.0676 22.2987 31.5762 18.412C34.1202 14.5253 37.1059 12.582 40.5332 12.582C43.9606 12.582 46.8049 14.1013 49.0662 17.14C51.3629 20.1787 52.5112 24.7543 52.5112 30.867C52.5112 36.9797 51.2392 41.997 48.6952 45.919C46.1512 49.841 43.1832 51.802 39.7912 51.802ZM40.5862 18.889C39.0316 18.889 37.6889 20.267 36.5582 23.023C35.4276 25.7437 34.8622 29.1887 34.8622 33.358C34.8622 37.492 35.3392 40.566 36.2932 42.58C37.2826 44.5587 38.5016 45.548 39.9502 45.548C41.3989 45.548 42.6709 44.17 43.7662 41.414C44.8969 38.658 45.4622 35.213 45.4622 31.079C45.4622 26.9097 44.9852 23.8357 44.0312 21.857C43.1126 19.8783 41.9642 18.889 40.5862 18.889ZM80.1499 12.688L80.2029 37.333C80.2029 41.3963 80.0616 45.76 79.7789 50.424L73.8429 49.841C69.2849 39.4883 65.5572 31.7327 62.6599 26.574C62.6952 31.8033 62.7129 40.142 62.7129 51.59L56.5119 50.901C56.4059 48.7103 56.3529 46.5903 56.3529 44.541C56.3529 35.9903 56.8299 26.0263 57.7839 14.649L64.8329 15.338C68.3309 24.984 71.4756 32.3157 74.2669 37.333C74.0549 26.6623 73.8076 18.253 73.5249 12.105L80.1499 12.688ZM90.164 50.106C89.8107 43.852 89.634 38.4107 89.634 33.782C89.634 29.118 89.74 24.2597 89.952 19.207L83.486 20.108L82.32 13.96C85.7827 13.3593 89.21 12.9177 92.602 12.635L102.513 12.105L103.52 17.988C101.577 18.094 99.386 18.253 96.948 18.465C96.736 23.553 96.63 28.217 96.63 32.457C96.63 36.697 96.7007 42.7743 96.842 50.689L90.164 50.106ZM120.235 49.47L119.016 42.103L111.119 42.421L109.105 52.385L101.685 51.749L111.172 13.324L120.977 14.172L127.92 50.106L120.235 49.47ZM115.571 20.267L112.232 36.75L118.168 36.538L115.571 20.267ZM143.111 19.525C141.556 19.525 140.196 21.4507 139.03 25.302C137.864 29.118 137.281 32.51 137.281 35.478C137.281 41.6967 138.906 44.806 142.157 44.806C143.076 44.806 143.871 44.4173 144.542 43.64C145.249 42.8273 145.743 41.997 146.026 41.149C146.344 40.301 146.715 39.135 147.139 37.651L153.87 38.181C152.951 42.527 151.573 45.8483 149.736 48.145C147.934 50.4417 145.408 51.59 142.157 51.59C138.341 51.59 135.391 50.159 133.306 47.297C131.257 44.3997 130.232 40.725 130.232 36.273C130.232 31.079 131.257 26.0263 133.306 21.115C134.295 18.677 135.673 16.6807 137.44 15.126C139.242 13.536 141.291 12.741 143.588 12.741C146.415 12.741 148.464 13.6773 149.736 15.55C150.372 16.4687 150.884 17.405 151.273 18.359C151.697 19.313 151.997 20.532 152.174 22.016C152.492 24.3833 152.686 26.9273 152.757 29.648L145.92 29.012C145.92 24.454 145.496 21.592 144.648 20.426C144.259 19.8253 143.747 19.525 143.111 19.525ZM162.107 50.106C161.754 43.852 161.577 38.4107 161.577 33.782C161.577 29.118 161.683 24.2597 161.895 19.207L155.429 20.108L154.263 13.96C157.726 13.3593 161.153 12.9177 164.545 12.635L174.456 12.105L175.463 17.988C173.52 18.094 171.329 18.253 168.891 18.465C168.679 23.553 168.573 28.217 168.573 32.457C168.573 36.697 168.644 42.7743 168.785 50.689L162.107 50.106ZM188.698 51.802C185.342 51.802 182.497 50.3003 180.165 47.297C177.869 44.2583 176.72 39.665 176.72 33.517C176.72 27.3337 177.975 22.2987 180.483 18.412C183.027 14.5253 186.013 12.582 189.44 12.582C192.868 12.582 195.712 14.1013 197.973 17.14C200.27 20.1787 201.418 24.7543 201.418 30.867C201.418 36.9797 200.146 41.997 197.602 45.919C195.058 49.841 192.09 51.802 188.698 51.802ZM189.493 18.889C187.939 18.889 186.596 20.267 185.465 23.023C184.335 25.7437 183.769 29.1887 183.769 33.358C183.769 37.492 184.246 40.566 185.2 42.58C186.19 44.5587 187.409 45.548 188.857 45.548C190.306 45.548 191.578 44.17 192.673 41.414C193.804 38.658 194.369 35.213 194.369 31.079C194.369 26.9097 193.892 23.8357 192.938 21.857C192.02 19.8783 190.871 18.889 189.493 18.889Z" transform="translate(112 94)" fill="#FDCC01"/>
<defs>
<filter id="filter0_d" x="0.16333" y="0.288696" width="433.907" height="252.13" filterUnits="userSpaceOnUse" color-interpolation-filters="sRGB">
<feFlood flood-opacity="0" result="BackgroundImageFix"/>
<feColorMatrix in="SourceAlpha" type="matrix" values="0 0 0 0 0 0 0 0 0 0 0 0 0 0 0 0 0 0 255 0"/>
<feOffset dy="20"/>
<feGaussianBlur stdDeviation="20"/>
<feColorMatrix type="matrix" values="0 0 0 0 0 0 0 0 0 0 0 0 0 0 0 0 0 0 0.1 0"/>
<feBlend mode="normal" in2="BackgroundImageFix" result="effect1_dropShadow"/>
<feBlend mode="normal" in="SourceGraphic" in2="effect1_dropShadow" result="shape"/>
</filter>
</defs>
</svg>
