<svg width="441" height="295" viewBox="0 0 441 295" fill="none" xmlns="http://www.w3.org/2000/svg">
<g filter="url(#filter0_d)">
<path d="M30.8765 45.4679C33.8914 29.3046 47.4743 17.2379 63.8802 16.1482L279.61 1.81927C295.787 0.744787 310.686 10.6161 316.004 25.9317L365.168 167.523C373.355 191.102 355.646 215.655 330.688 215.328L42.7598 211.56C20.4259 211.267 3.74573 190.919 7.84136 168.962L30.8765 45.4679Z" transform="translate(33 19)" fill="#10327B"/>
</g>
<path d="M10.6967 17.142C10.9914 16.0313 11.1387 15.102 11.1387 14.354C11.1387 13.606 10.9347 12.994 10.5267 12.518C10.1187 12.0193 9.58604 11.77 8.92871 11.77C8.29404 11.77 7.76138 12.0873 7.33071 12.722C6.90004 13.3567 6.68471 14.082 6.68471 14.898C6.68471 16.4847 7.59138 17.8447 9.40471 18.978C11.218 20.1567 12.4534 21.0067 13.1107 21.528C13.768 22.0493 14.2327 22.5253 14.5047 22.956C15.1847 24.0667 15.5247 25.2113 15.5247 26.39C15.5247 28.43 14.8334 30.062 13.4507 31.286C12.0907 32.4873 10.5494 33.088 8.82671 33.088C6.78671 33.088 5.07538 32.2267 3.69271 30.504C2.69538 29.2573 1.77738 27.7047 0.938711 25.846L4.23671 24.248C4.75804 25.608 5.40404 26.764 6.17471 27.716C6.96804 28.6453 7.80671 29.11 8.69071 29.11C9.25738 29.11 9.76738 28.9287 10.2207 28.566C10.674 28.2033 10.9007 27.6593 10.9007 26.934C10.9007 26.186 10.6174 25.4947 10.0507 24.86C9.48404 24.2253 8.72471 23.5793 7.77271 22.922C6.82071 22.2647 6.08404 21.732 5.56271 21.324C5.04138 20.8933 4.46338 20.3493 3.82871 19.692C2.62738 18.4227 2.02671 16.802 2.02671 14.83C2.02671 12.8353 2.71804 11.1693 4.10071 9.832C5.48338 8.472 7.12671 7.792 9.03071 7.792C10.9347 7.792 12.5327 8.52867 13.8247 10.002C15.1394 11.4753 15.7967 12.994 15.7967 14.558C15.7967 16.0993 15.502 17.4253 14.9127 18.536L10.6967 17.142ZM21.3594 25.88C21.3594 28.4413 21.9261 29.722 23.0594 29.722C23.5581 29.722 23.9774 29.008 24.3174 27.58C24.6574 26.1293 24.8274 24.7467 24.8274 23.432C24.8274 20.5307 24.3514 19.08 23.3994 19.08C22.7874 19.08 22.2888 19.862 21.9034 21.426C21.5408 22.9673 21.3594 24.452 21.3594 25.88ZM17.3814 25.574C17.3814 23.466 17.8121 21.4033 18.6734 19.386C19.1268 18.366 19.7614 17.5387 20.5774 16.904C21.4161 16.2467 22.3454 15.918 23.3654 15.918C24.3854 15.918 25.2581 16.156 25.9834 16.632C26.7314 17.0853 27.2981 17.6973 27.6834 18.468C28.4314 19.9867 28.8054 21.6413 28.8054 23.432C28.8054 25.9027 28.2954 28.1013 27.2754 30.028C26.2781 31.932 24.8728 32.884 23.0594 32.884C19.2741 32.884 17.3814 30.4473 17.3814 25.574ZM38.297 16.836C39.6797 16.836 40.7337 17.312 41.459 18.264C42.6377 16.5413 43.805 15.68 44.961 15.68C48.1117 15.68 49.687 18.0487 49.687 22.786C49.687 25.4607 49.4603 28.702 49.007 32.51L45.063 32.17C45.4937 27.9313 45.709 24.7013 45.709 22.48C45.709 20.2587 45.3463 19.148 44.621 19.148C44.3037 19.148 43.9297 19.658 43.499 20.678C43.0683 21.698 42.785 22.8313 42.649 24.078C42.6037 26.9113 42.513 29.4387 42.377 31.66L38.399 31.286C38.5803 28.09 38.671 25.4607 38.671 23.398C38.671 21.3353 38.3877 20.304 37.821 20.304C37.4583 20.304 36.9823 20.9387 36.393 22.208C35.8263 23.4547 35.4183 24.7693 35.169 26.152C35.1917 28.2373 35.2937 30.3907 35.475 32.612L31.497 32.238C31.2477 29.042 31.123 26.1293 31.123 23.5C31.123 20.8707 31.191 18.4113 31.327 16.122L34.149 16.326C34.285 16.938 34.4777 18.0487 34.727 19.658C35.9283 17.7767 37.1183 16.836 38.297 16.836ZM55.8907 25.88C55.8907 28.4413 56.4573 29.722 57.5907 29.722C58.0893 29.722 58.5087 29.008 58.8487 27.58C59.1887 26.1293 59.3587 24.7467 59.3587 23.432C59.3587 20.5307 58.8827 19.08 57.9307 19.08C57.3187 19.08 56.82 19.862 56.4347 21.426C56.072 22.9673 55.8907 24.452 55.8907 25.88ZM51.9127 25.574C51.9127 23.466 52.3433 21.4033 53.2047 19.386C53.658 18.366 54.2927 17.5387 55.1087 16.904C55.9473 16.2467 56.8767 15.918 57.8967 15.918C58.9167 15.918 59.7893 16.156 60.5147 16.632C61.2627 17.0853 61.8293 17.6973 62.2147 18.468C62.9627 19.9867 63.3367 21.6413 63.3367 23.432C63.3367 25.9027 62.8267 28.1013 61.8067 30.028C60.8093 31.932 59.404 32.884 57.5907 32.884C53.8053 32.884 51.9127 30.4473 51.9127 25.574ZM71.6723 21.29C71.6723 19.93 71.3323 19.25 70.6523 19.25C70.3123 19.25 69.9949 19.42 69.7003 19.76C69.4283 20.0773 69.2923 20.5193 69.2923 21.086C69.2923 21.63 69.3943 22.0833 69.5983 22.446C69.8249 22.8087 70.2216 23.1713 70.7883 23.534C71.3776 23.874 71.8309 24.1573 72.1483 24.384C72.4883 24.588 72.8849 24.8827 73.3383 25.268C74.2676 26.084 74.7323 27.138 74.7323 28.43C74.7323 29.6993 74.2449 30.7307 73.2703 31.524C72.3183 32.3173 71.2416 32.714 70.0403 32.714C68.8389 32.714 67.7509 32.3967 66.7763 31.762C65.8243 31.1047 65.0536 30.2887 64.4643 29.314L66.3003 27.24C67.2069 28.804 68.1589 29.586 69.1563 29.586C69.4963 29.586 69.7909 29.4953 70.0403 29.314C70.2896 29.11 70.4143 28.838 70.4143 28.498C70.4143 27.7727 69.8929 27.104 68.8503 26.492C67.7396 25.88 66.8669 25.2 66.2323 24.452C65.5976 23.704 65.2803 22.65 65.2803 21.29C65.2803 19.9073 65.8469 18.672 66.9803 17.584C68.1136 16.4733 69.3263 15.918 70.6183 15.918C71.9329 15.918 72.9643 16.3713 73.7123 17.278C74.4829 18.162 74.8683 19.3633 74.8683 20.882C74.8683 21.494 74.8003 22.1513 74.6643 22.854L71.5703 22.582C71.6383 22.0607 71.6723 21.63 71.6723 21.29ZM96.4877 16.054L96.4197 21.426C96.4197 26.4807 96.5104 30.198 96.6917 32.578L93.3257 32.238C93.2577 31.286 93.1104 30.3227 92.8837 29.348C91.6371 31.184 90.3791 32.102 89.1097 32.102C87.8631 32.102 86.8657 31.6713 86.1177 30.81C85.3697 29.9487 84.9957 28.7587 84.9957 27.24C84.9957 24.2933 85.2111 20.78 85.6417 16.7L89.5857 17.074C89.1777 20.95 88.9737 24.1687 88.9737 26.73C88.9737 27.886 89.3364 28.464 90.0617 28.464C90.4017 28.464 90.8097 27.9993 91.2857 27.07C91.7844 26.1407 92.1811 25.0187 92.4757 23.704C92.4531 23.2053 92.4417 22.616 92.4417 21.936C92.4417 21.256 92.4757 19.182 92.5437 15.714L96.4877 16.054ZM106.651 15.816C109.643 15.816 111.139 18.3093 111.139 23.296C111.139 25.9253 110.992 28.7133 110.697 31.66L106.719 31.286C106.968 28.702 107.093 26.0953 107.093 23.466C107.093 20.814 106.719 19.488 105.971 19.488C105.608 19.488 105.144 20.406 104.577 22.242C104.01 24.0553 103.659 25.8347 103.523 27.58C103.568 28.5093 103.659 30.1867 103.795 32.612L99.8171 32.238C99.5678 29.042 99.4431 26.2313 99.4431 23.806C99.4431 21.3807 99.5111 19.2047 99.6471 17.278L102.163 17.55C102.208 17.7313 102.378 18.468 102.673 19.76C103.988 17.1307 105.314 15.816 106.651 15.816ZM113.887 21.97C114.227 20.202 114.873 18.706 115.825 17.482C116.777 16.2353 118.024 15.612 119.565 15.612C121.107 15.612 122.24 16.258 122.965 17.55C123.713 18.8193 124.087 20.6327 124.087 22.99C124.087 25.3473 123.951 28.6 123.679 32.748L120.823 32.51L120.551 31.422C119.486 32.034 118.398 32.34 117.287 32.34C116.177 32.34 115.259 31.9773 114.533 31.252C113.808 30.504 113.445 29.4387 113.445 28.056C113.445 26.6733 114.125 25.4833 115.485 24.486C116.868 23.4887 118.455 22.9673 120.245 22.922V22.004C120.245 20.2133 119.815 19.318 118.953 19.318C118.523 19.318 118.126 19.624 117.763 20.236C117.423 20.8253 117.174 21.5053 117.015 22.276L113.887 21.97ZM116.913 28.26C116.913 28.9853 117.344 29.348 118.205 29.348C118.795 29.348 119.418 29.212 120.075 28.94L120.143 26.084C119.078 26.1747 118.273 26.4467 117.729 26.9C117.185 27.3307 116.913 27.784 116.913 28.26Z" transform="translate(132 86)" fill="white"/>
<path d="M4.05215 50.212C3.91082 44.6293 3.84015 39.347 3.84015 34.365C3.84015 29.383 4.12282 22.8993 4.68815 14.914C10.7301 13.9953 16.6308 13.536 22.3902 13.536V20.055C18.3975 20.055 14.6875 20.1787 11.2601 20.426C11.1188 24.3833 11.0305 27.422 10.9951 29.542C13.6805 29.1533 16.8605 28.9237 20.5351 28.853L21.5422 34.683C19.1748 34.7183 15.6238 34.9833 10.8891 35.478C10.8891 39.718 10.9068 42.7743 10.9421 44.647C14.0161 44.3997 17.6908 43.8697 21.9661 43.057L22.8671 48.887C19.8638 50.265 16.3128 50.954 12.2141 50.954L4.05215 50.212ZM26.7502 50.318C26.4676 41.1313 26.3262 34.206 26.3262 29.542C26.3262 24.878 26.6266 19.896 27.2272 14.596L37.1912 15.391C38.4279 19.843 39.7352 26.0793 41.1132 34.1C43.0919 27.634 44.8409 20.638 46.3602 13.112L56.3772 14.013C56.6599 24.931 56.8012 32.9163 56.8012 37.969C56.8012 42.9863 56.6422 47.456 56.3242 51.378L49.0632 50.689C49.5226 46.237 49.9112 36.803 50.2292 22.387L49.8052 22.334C49.4519 23.712 48.8866 26.0793 48.1092 29.436C46.4839 36.3967 44.9116 42.3327 43.3922 47.244L38.5692 46.82C37.7212 43.428 36.7319 39.0467 35.6012 33.676C34.5059 28.27 33.6579 24.295 33.0572 21.751L32.6332 21.698C32.9512 33.4993 33.3222 43.2513 33.7462 50.954L26.7502 50.318ZM61.9099 50.901C61.7686 46.9083 61.6979 42.1207 61.6979 36.538C61.6979 30.92 61.8746 23.4293 62.2279 14.066C65.1959 12.9707 68.2346 12.423 71.3439 12.423C74.4886 12.423 77.2799 13.589 79.7179 15.921C82.1913 18.2177 83.4279 21.1327 83.4279 24.666C83.4279 28.164 82.0853 31.2027 79.3999 33.782C76.7499 36.326 73.2696 38.1987 68.9589 39.4C68.9589 43.3573 69.0119 47.4207 69.1179 51.59L61.9099 50.901ZM74.2059 30.019C75.5133 28.4997 76.1669 26.8037 76.1669 24.931C76.1669 23.0583 75.6723 21.539 74.6829 20.373C73.7289 19.207 72.6513 18.624 71.4499 18.624C71.1319 18.624 70.4076 18.7123 69.2769 18.889C69.1003 23.871 68.9943 28.694 68.9589 33.358C71.1849 32.6513 72.9339 31.5383 74.2059 30.019ZM86.1756 50.477C86.635 41.997 86.8646 34.4357 86.8646 27.793C86.8646 21.1503 86.847 16.7867 86.8116 14.702C90.6983 12.8647 94.744 11.946 98.9486 11.946C102.058 11.946 104.655 12.9353 106.74 14.914C108.86 16.8927 109.92 19.684 109.92 23.288C109.92 27.4573 106.969 31.4677 101.069 35.319C104.284 39.347 107.57 43.7813 110.927 48.622L105.839 52.385C103.613 49.0283 99.62 43.5517 93.8606 35.955C93.7546 41.3963 93.5956 46.502 93.3836 51.272L86.1756 50.477ZM94.0196 32.351C96.6343 31.1143 98.8603 29.595 100.698 27.793C102.535 25.9557 103.454 24.295 103.454 22.811C103.454 21.327 103.012 20.1787 102.129 19.366C101.281 18.5533 100.15 18.147 98.7366 18.147C97.3233 18.147 95.7686 18.4473 94.0726 19.048C94.0726 25.0193 94.055 29.4537 94.0196 32.351ZM114.71 50.212C114.569 44.6293 114.498 39.347 114.498 34.365C114.498 29.383 114.781 22.8993 115.346 14.914C121.388 13.9953 127.289 13.536 133.048 13.536V20.055C129.056 20.055 125.346 20.1787 121.918 20.426C121.777 24.3833 121.689 27.422 121.653 29.542C124.339 29.1533 127.519 28.9237 131.193 28.853L132.2 34.683C129.833 34.7183 126.282 34.9833 121.547 35.478C121.547 39.718 121.565 42.7743 121.6 44.647C124.674 44.3997 128.349 43.8697 132.624 43.057L133.525 48.887C130.522 50.265 126.971 50.954 122.872 50.954L114.71 50.212ZM150.446 26.839C150.906 25.1077 151.135 23.659 151.135 22.493C151.135 21.327 150.817 20.373 150.181 19.631C149.545 18.8537 148.715 18.465 147.69 18.465C146.701 18.465 145.871 18.9597 145.199 19.949C144.528 20.9383 144.192 22.069 144.192 23.341C144.192 25.8143 145.606 27.9343 148.432 29.701C151.259 31.5383 153.185 32.8633 154.209 33.676C155.234 34.4887 155.958 35.2307 156.382 35.902C157.442 37.6333 157.972 39.4177 157.972 41.255C157.972 44.435 156.895 46.979 154.739 48.887C152.619 50.7597 150.217 51.696 147.531 51.696C144.351 51.696 141.684 50.3533 139.528 47.668C137.974 45.7247 136.543 43.3043 135.235 40.407L140.376 37.916C141.189 40.036 142.196 41.838 143.397 43.322C144.634 44.7707 145.941 45.495 147.319 45.495C148.203 45.495 148.998 45.2123 149.704 44.647C150.411 44.0817 150.764 43.2337 150.764 42.103C150.764 40.937 150.323 39.8593 149.439 38.87C148.556 37.8807 147.372 36.8737 145.888 35.849C144.404 34.8243 143.256 33.994 142.443 33.358C141.631 32.6867 140.73 31.8387 139.74 30.814C137.868 28.8353 136.931 26.309 136.931 23.235C136.931 20.1257 138.009 17.5287 140.164 15.444C142.32 13.324 144.881 12.264 147.849 12.264C150.817 12.264 153.308 13.4123 155.322 15.709C157.372 18.0057 158.396 20.373 158.396 22.811C158.396 25.2137 157.937 27.2807 157.018 29.012L150.446 26.839ZM178.304 49.47L177.085 42.103L169.188 42.421L167.174 52.385L159.754 51.749L169.241 13.324L179.046 14.172L185.989 50.106L178.304 49.47ZM173.64 20.267L170.301 36.75L176.237 36.538L173.64 20.267Z" transform="translate(122 115)" fill="#FDCC01"/>
<defs>
<filter id="filter0_d" x="0.220459" y="0.739502" width="439.969" height="293.592" filterUnits="userSpaceOnUse" color-interpolation-filters="sRGB">
<feFlood flood-opacity="0" result="BackgroundImageFix"/>
<feColorMatrix in="SourceAlpha" type="matrix" values="0 0 0 0 0 0 0 0 0 0 0 0 0 0 0 0 0 0 255 0"/>
<feOffset dy="20"/>
<feGaussianBlur stdDeviation="20"/>
<feColorMatrix type="matrix" values="0 0 0 0 0 0 0 0 0 0 0 0 0 0 0 0 0 0 0.1 0"/>
<feBlend mode="normal" in2="BackgroundImageFix" result="effect1_dropShadow"/>
<feBlend mode="normal" in="SourceGraphic" in2="effect1_dropShadow" result="shape"/>
</filter>
</defs>
</svg>
