<svg width="641" height="94" viewBox="0 0 641 94" fill="none" xmlns="http://www.w3.org/2000/svg">
	<path class="st0" d="M6.88381 34.2459L1.17202 19.7468C7.70731 13.4354 16.2179 11.806 25.1429 10.2858C25.445 10.2344 25.7475 10.183 26.0505 10.1316C34.3597 8.7222 42.9804 7.25992 49.9534 1.68386L55.3096 16.2598C48.0296 21.8078 40.2968 22.9905 32.3634 24.2039C31.9128 24.2728 31.4615 24.3418 31.0096 24.4118C22.8192 25.6792 14.4882 27.2471 6.88381 34.2459Z" transform="translate(44.4683)" stroke="white" stroke-width="2"/>
	<path class="st0" d="M6.882 34.2414L1.17109 19.7444C7.65872 13.4357 16.1667 11.8062 25.1052 10.2858C25.4108 10.2339 25.717 10.182 26.0236 10.1301C34.3415 8.72121 42.9805 7.25797 49.9534 1.68375L55.3088 16.2577C47.9883 21.8035 40.2363 22.9887 32.3067 24.2011C31.8499 24.271 31.3925 24.3409 30.9346 24.4118C22.7469 25.6788 14.4396 27.2462 6.882 34.2414Z" transform="translate(14.8682 57.8999)" stroke="white" stroke-width="2"/>
	<path class="st0" d="M6.79013 34.1405L1.16935 19.6495C7.65665 13.3854 16.1423 11.7561 25.0556 10.2358C25.363 10.1833 25.6709 10.1311 25.9792 10.0787C34.2723 8.67021 42.884 7.20763 49.8514 1.67843L55.2078 16.255C47.8914 21.7533 40.1436 22.9378 32.2192 24.1492C31.7583 24.2197 31.2967 24.2903 30.8346 24.3618C22.6496 25.6284 14.3457 27.1951 6.79013 34.1405Z" transform="translate(58.4683 20.8)" stroke="white" stroke-width="2"/>
	<path class="st0" d="M6.88381 34.146L1.17203 19.6468C7.70614 13.3377 16.2151 11.732 25.1403 10.2362C25.4412 10.1858 25.7426 10.1355 26.0445 10.0851C34.3546 8.69835 42.9782 7.25925 49.9533 1.68372L55.3086 16.257C48.0479 21.7449 40.337 22.9118 32.4242 24.1093C31.9538 24.1804 31.4827 24.2517 31.011 24.324C22.8195 25.5797 14.4884 27.1469 6.88381 34.146Z" transform="translate(0.368164 37)" stroke="white" stroke-width="2"/>
	<path class="st0" d="M60.1265 4.61923L60.1446 4.63185L60.1631 4.64366C62.2302 5.95909 63.703 7.53354 64.7142 9.46401L64.7151 9.46575C65.6363 11.2161 66.2 13.3553 66.2 15.8C66.2 20.8038 64.8599 24.5537 62.3513 27.4371C59.8456 30.2177 55.9771 32.1448 50.6039 33.2194L50.6157 35.1829C53.7405 35.7688 55.7208 36.6207 57.0177 37.8311C58.2825 39.0116 58.9 40.5293 58.9 42.6C58.9 44.2531 58.4342 46.8398 57.3385 50.7253C56.2271 54.5652 55.7 57.6665 55.7 59.9C55.7 60.939 55.8013 62.035 56.0339 62.8587C56.2481 63.7047 56.6404 64.4333 57.0907 65.1H39H37.6153C37.445 64.7557 37.3385 64.4985 37.2899 64.1586L37.2883 64.1471L37.2864 64.1356C37.1913 63.5651 37.1 62.8244 37.1 62.1C37.1 60.1479 37.6654 57.0632 38.8582 52.8862C39.2126 51.7502 39.4783 50.5777 39.7012 49.5945C39.7976 49.169 39.886 48.7789 39.9701 48.4425L39.9759 48.4195L39.9806 48.3961C40.3845 46.3763 40.6 44.7996 40.6 43.5C40.6 42.513 40.3479 41.6433 39.8682 40.8039L39.863 40.7946L39.8575 40.7855C39.4805 40.1572 38.9761 39.7569 38.5412 39.4119C38.5018 39.3805 38.4629 39.3497 38.4247 39.3191L38.4125 39.3094L38.4 39.3C36.9506 38.213 34.8962 37.8 32.8 37.8H27.7H26.9357L26.7351 38.5375L19.5357 65H1.31499L19.0605 1H37.5H37.5029H37.5059H37.5088H37.5117H37.5146H37.5176H37.5205H37.5234H37.5264H37.5293H37.5322H37.5351H37.5381H37.541H37.5439H37.5469H37.5498H37.5527H37.5557H37.5586H37.5615H37.5644H37.5674H37.5703H37.5732H37.5762H37.5791H37.582H37.5849H37.5879H37.5908H37.5937H37.5966H37.5996H37.6025H37.6054H37.6084H37.6113H37.6142H37.6171H37.6201H37.623H37.6259H37.6288H37.6318H37.6347H37.6376H37.6405H37.6435H37.6464H37.6493H37.6522H37.6552H37.6581H37.661H37.6639H37.6668H37.6698H37.6727H37.6756H37.6785H37.6815H37.6844H37.6873H37.6902H37.6931H37.6961H37.699H37.7019H37.7048H37.7077H37.7107H37.7136H37.7165H37.7194H37.7223H37.7252H37.7282H37.7311H37.734H37.7369H37.7398H37.7427H37.7456H37.7486H37.7515H37.7544H37.7573H37.7602H37.7631H37.766H37.7689H37.7719H37.7748H37.7777H37.7806H37.7835H37.7864H37.7893H37.7922H37.7951H37.798H37.8009H37.8038H37.8067H37.8097H37.8126H37.8155H37.8184H37.8213H37.8242H37.8271H37.83H37.8329H37.8358H37.8387H37.8416H37.8445H37.8474H37.8503H37.8532H37.8561H37.859H37.8619H37.8647H37.8676H37.8705H37.8734H37.8763H37.8792H37.8821H37.885H37.8879H37.8908H37.8937H37.8966H37.8994H37.9023H37.9052H37.9081H37.911H37.9139H37.9168H37.9196H37.9225H37.9254H37.9283H37.9312H37.9341H37.9369H37.9398H37.9427H37.9456H37.9484H37.9513H37.9542H37.9571H37.9599H37.9628H37.9657H37.9686H37.9714H37.9743H37.9772H37.98H37.9829H37.9858H37.9887H37.9915H37.9944H37.9972H38.0001H38.003H38.0058H38.0087H38.0116H38.0144H38.0173H38.0201H38.023H38.0259H38.0287H38.0316H38.0344H38.0373H38.0401H38.043H38.0458H38.0487H38.0515H38.0544H38.0572H38.0601H38.0629H38.0658H38.0686H38.0714H38.0743H38.0771H38.08H38.0828H38.0857H38.0885H38.0913H38.0942H38.097H38.0998H38.1027H38.1055H38.1083H38.1112H38.114H38.1168H38.1196H38.1225H38.1253H38.1281H38.1309H38.1338H38.1366H38.1394H38.1422H38.1451H38.1479H38.1507H38.1535H38.1563H38.1591H38.1619H38.1648H38.1676H38.1704H38.1732H38.176H38.1788H38.1816H38.1844H38.1872H38.19H38.1928H38.1956H38.1984H38.2012H38.204H38.2068H38.2096H38.2124H38.2152H38.218H38.2208H38.2236H38.2264H38.2291H38.2319H38.2347H38.2375H38.2403H38.2431H38.2458H38.2486H38.2514H38.2542H38.257H38.2597H38.2625H38.2653H38.268H38.2708H38.2736H38.2763H38.2791H38.2819H38.2846H38.2874H38.2902H38.2929H38.2957H38.2984H38.3012H38.304H38.3067H38.3095H38.3122H38.315H38.3177H38.3205H38.3232H38.326H38.3287H38.3314H38.3342H38.3369H38.3397H38.3424H38.3451H38.3479H38.3506H38.3533H38.3561H38.3588H38.3615H38.3642H38.367H38.3697H38.3724H38.3751H38.3779H38.3806H38.3833H38.386H38.3887H38.3914H38.3941H38.3969H38.3996H38.4023H38.405H38.4077H38.4104H38.4131H38.4158H38.4185H38.4212H38.4239H38.4266H38.4293H38.432H38.4346H38.4373H38.44H38.4427H38.4454H38.4481H38.4508H38.4534H38.4561H38.4588H38.4615H38.4641H38.4668H38.4695H38.4721H38.4748H38.4775H38.4801H38.4828H38.4855H38.4881H38.4908H38.4934H38.4961H38.4988H38.5014H38.5041H38.5067H38.5094H38.512H38.5146H38.5173H38.5199H38.5226H38.5252H38.5278H38.5305H38.5331H38.5357H38.5384H38.541H38.5436H38.5462H38.5489H38.5515H38.5541H38.5567H38.5593H38.562H38.5646H38.5672H38.5698H38.5724H38.575H38.5776H38.5802H38.5828H38.5854H38.588H38.5906H38.5932H38.5958H38.5984H38.601H38.6036H38.6061H38.6087H38.6113H38.6139H38.6165H38.619H38.6216H38.6242H38.6268H38.6293H38.6319H38.6345H38.637H38.6396H38.6422H38.6447H38.6473H38.6498H38.6524H38.6549H38.6575H38.66H38.6626H38.6651H38.6677H38.6702H38.6727H38.6753H38.6778H38.6803H38.6829H38.6854H38.6879H38.6904H38.693H38.6955H38.698H38.7005H38.703H38.7056H38.7081H38.7106H38.7131H38.7156H38.7181H38.7206H38.7231H38.7256H38.7281H38.7306H38.7331H38.7356H38.7381H38.7405H38.743H38.7455H38.748H38.7505H38.7529H38.7554H38.7579H38.7604H38.7628H38.7653H38.7678H38.7702H38.7727H38.7751H38.7776H38.78H38.7825H38.7849H38.7874H38.7898H38.7923H38.7947H38.7972H38.7996H38.802H38.8045H38.8069H38.8093H38.8118H38.8142H38.8166H38.819H38.8214H38.8239H38.8263H38.8287H38.8311H38.8335H38.8359H38.8383H38.8407H38.8431H38.8455H38.8479H38.8503H38.8527H38.8551H38.8574H38.8598H38.8622H38.8646H38.867H38.8693H38.8717H38.8741H38.8764H38.8788H38.8812H38.8835H38.8859H38.8883H38.8906H38.893H38.8953H38.8977H38.9C44.9861 1 49.5048 1.30076 52.4039 1.88058L52.4125 1.8823L52.4211 1.88387C55.6706 2.47468 58.3024 3.34232 60.1265 4.61923ZM44.4459 25.2634L44.4576 25.2535L44.469 25.2433C46.7176 23.2195 47.7935 20.5345 47.8996 16.9294L47.9 16.9147V16.9C47.9 14.9036 47.3338 13.1649 45.7251 11.9193C44.2749 10.719 42.2121 10.2 39.8 10.2H39H35.4H34.6391L34.4362 10.9333L30.0362 26.8333L29.6857 28.1H31H35.2L35.278 28.1C36.6067 28.1001 37.9124 28.1003 39.1342 27.7726C41.1635 27.341 43.01 26.4784 44.4459 25.2634Z" transform="translate(184.768 17.6001)" stroke="white" stroke-width="2"/>
	<path d="M61.0893 65H43.4734L44.2975 53.3707L44.3734 52.3H43.3H39.4H26.8H26.1619L25.8931 52.8787L20.2619 65H1.70703L37.5858 1H39.3H60.4106L61.0893 65ZM44.1 43H45.024L45.0969 42.0789L47.5969 10.4789L45.6922 9.98058L38.3922 25.7806L31.0922 41.5806L30.4364 43H32H39.3H44.1Z" transform="translate(114.968 17.6001)" stroke="white" stroke-width="2"/>
	<path d="M55.2225 5.21642L55.2292 5.22116L55.236 5.2258C59.0193 7.80947 60.9 11.6734 60.9 17C60.9 17.6701 60.8238 18.5021 60.7336 19.4861C60.7239 19.5921 60.7141 19.6999 60.7041 19.8095C60.6302 20.622 60.4398 21.5489 60.2104 22.6658C60.2012 22.7103 60.192 22.755 60.1828 22.8H43.2565C43.4189 22.0361 43.5516 21.3065 43.6816 20.5912L43.6839 20.5789L43.6918 20.535L43.6959 20.4905C43.7122 20.3108 43.7289 20.1339 43.7452 19.9598C43.8258 19.1027 43.9 18.314 43.9 17.6C43.9 15.731 43.3512 14.0097 41.9718 12.8579C40.724 11.6334 38.9433 11.1 36.9 11.1C34.0614 11.1 31.7817 12.0886 30.2672 13.7195L30.2556 13.7321L30.2443 13.7451C29.4821 14.6245 28.7075 16.0764 27.9224 18.0265C27.1283 19.9988 26.292 22.5623 25.4362 25.7335L20.5441 43.0055L20.4513 43.2838L20.4445 43.3044L20.4385 43.3253C19.734 45.7911 19.2281 47.8132 18.8973 49.3524C18.5736 50.8591 18.4 51.9805 18.4 52.6C18.4 54.2907 18.8602 55.7026 20.0356 56.7474C21.1865 57.7704 22.8643 58.2 24.6 58.2C27.7605 58.2 30.3828 57.3562 32.1399 55.3729C33.0128 54.4369 33.8647 52.905 34.6752 50.9296C35.4984 48.9229 36.3121 46.3746 37.0701 43.3425L37.3808 42.1H36.1H30.0031L32.4674 32.9H58.1859L48.839 66.7H37.2584L37.9893 61.746L38.5241 58.1216L36.2221 60.9717C34.2299 63.4382 31.77 65.235 28.9286 66.3715L28.9209 66.3746L28.9133 66.3778C25.9517 67.6197 22.4857 68.3 18.5 68.3C12.6647 68.3 8.43385 66.8436 5.47152 64.159C2.53098 61.4941 1.00001 57.6936 1.00001 52.4C1.00001 51.0512 1.09607 49.5008 1.38894 47.5483L1.39259 47.524L1.39504 47.4995C1.5875 45.5749 2.0709 43.4399 2.67439 40.8249L2.67638 40.8162L2.67823 40.8075C4.07081 34.2425 5.65919 28.5881 7.34038 23.9401L7.3436 23.9312L7.34666 23.9223C8.93619 19.253 10.6095 15.3279 12.3575 12.4145L12.3576 12.4145L12.363 12.4052C14.6555 8.48889 17.8938 5.63091 22.0042 3.81469L22.013 3.81079L22.0217 3.80672C26.1387 1.89183 31.4766 1 38 1C45.6914 1 51.3569 2.48222 55.2225 5.21642Z" transform="translate(256.568 16)" stroke="white" stroke-width="2"/>
	<path d="M35 11.6H34.2357L34.035 12.3375L30.6351 24.8375L30.2917 26.1H31.6H54.9844L52.0399 36.7H28H27.2396L27.0364 37.4327L22.7364 52.9327L22.3848 54.2H23.7H49.1799L46.1425 65H1.31307L18.9616 1H61.8H62.8946L60.8378 8.62736L59.954 11.6H35Z" transform="translate(319.168 17.6001)" stroke="white" stroke-width="2"/>
	<path d="M35.1 11.6H34.3357L34.1351 12.3375L30.7351 24.8375L30.3917 26.1H31.7H55.1743L52.1457 36.7H28.1H27.3349L27.1348 37.4385L22.9348 52.9385L22.593 54.2H23.9H49.1898L46.2367 65H1.30926L1.56324 64.0687L1.56478 64.0631L19.1592 1H61.8H63.0743L60.8385 8.82528L60.8348 8.83808L60.8315 8.85097L60.1246 11.6H35.1Z" transform="translate(513.668 17.6001)" stroke="white" stroke-width="2"/>
	<path d="M1.30798 64.9L3.46327 56.9684L3.46498 56.9622L19.0595 1H37.5H37.5029H37.5058H37.5088H37.5117H37.5146H37.5176H37.5205H37.5234H37.5263H37.5293H37.5322H37.5351H37.5381H37.541H37.5439H37.5468H37.5498H37.5527H37.5556H37.5586H37.5615H37.5644H37.5674H37.5703H37.5732H37.5761H37.5791H37.582H37.5849H37.5878H37.5908H37.5937H37.5966H37.5996H37.6025H37.6054H37.6083H37.6113H37.6142H37.6171H37.62H37.623H37.6259H37.6288H37.6317H37.6347H37.6376H37.6405H37.6434H37.6464H37.6493H37.6522H37.6551H37.6581H37.661H37.6639H37.6668H37.6698H37.6727H37.6756H37.6785H37.6814H37.6844H37.6873H37.6902H37.6931H37.696H37.699H37.7019H37.7048H37.7077H37.7106H37.7136H37.7165H37.7194H37.7223H37.7252H37.7281H37.7311H37.734H37.7369H37.7398H37.7427H37.7456H37.7485H37.7515H37.7544H37.7573H37.7602H37.7631H37.766H37.7689H37.7718H37.7747H37.7777H37.7806H37.7835H37.7864H37.7893H37.7922H37.7951H37.798H37.8009H37.8038H37.8067H37.8096H37.8125H37.8154H37.8184H37.8213H37.8242H37.8271H37.83H37.8329H37.8358H37.8387H37.8416H37.8445H37.8474H37.8503H37.8532H37.856H37.8589H37.8618H37.8647H37.8676H37.8705H37.8734H37.8763H37.8792H37.8821H37.885H37.8879H37.8908H37.8937H37.8965H37.8994H37.9023H37.9052H37.9081H37.911H37.9139H37.9167H37.9196H37.9225H37.9254H37.9283H37.9312H37.934H37.9369H37.9398H37.9427H37.9456H37.9484H37.9513H37.9542H37.9571H37.9599H37.9628H37.9657H37.9686H37.9714H37.9743H37.9772H37.98H37.9829H37.9858H37.9886H37.9915H37.9944H37.9972H38.0001H38.003H38.0058H38.0087H38.0115H38.0144H38.0173H38.0201H38.023H38.0258H38.0287H38.0316H38.0344H38.0373H38.0401H38.043H38.0458H38.0487H38.0515H38.0544H38.0572H38.0601H38.0629H38.0658H38.0686H38.0714H38.0743H38.0771H38.08H38.0828H38.0856H38.0885H38.0913H38.0942H38.097H38.0998H38.1027H38.1055H38.1083H38.1112H38.114H38.1168H38.1196H38.1225H38.1253H38.1281H38.1309H38.1338H38.1366H38.1394H38.1422H38.145H38.1479H38.1507H38.1535H38.1563H38.1591H38.1619H38.1647H38.1676H38.1704H38.1732H38.176H38.1788H38.1816H38.1844H38.1872H38.19H38.1928H38.1956H38.1984H38.2012H38.204H38.2068H38.2096H38.2124H38.2152H38.218H38.2208H38.2236H38.2263H38.2291H38.2319H38.2347H38.2375H38.2403H38.2431H38.2458H38.2486H38.2514H38.2542H38.2569H38.2597H38.2625H38.2653H38.268H38.2708H38.2736H38.2763H38.2791H38.2819H38.2846H38.2874H38.2902H38.2929H38.2957H38.2984H38.3012H38.3039H38.3067H38.3095H38.3122H38.315H38.3177H38.3205H38.3232H38.3259H38.3287H38.3314H38.3342H38.3369H38.3396H38.3424H38.3451H38.3479H38.3506H38.3533H38.3561H38.3588H38.3615H38.3642H38.367H38.3697H38.3724H38.3751H38.3778H38.3806H38.3833H38.386H38.3887H38.3914H38.3941H38.3969H38.3996H38.4023H38.405H38.4077H38.4104H38.4131H38.4158H38.4185H38.4212H38.4239H38.4266H38.4293H38.4319H38.4346H38.4373H38.44H38.4427H38.4454H38.4481H38.4507H38.4534H38.4561H38.4588H38.4615H38.4641H38.4668H38.4695H38.4721H38.4748H38.4775H38.4801H38.4828H38.4855H38.4881H38.4908H38.4934H38.4961H38.4988H38.5014H38.5041H38.5067H38.5093H38.512H38.5146H38.5173H38.5199H38.5226H38.5252H38.5278H38.5305H38.5331H38.5357H38.5384H38.541H38.5436H38.5462H38.5489H38.5515H38.5541H38.5567H38.5593H38.562H38.5646H38.5672H38.5698H38.5724H38.575H38.5776H38.5802H38.5828H38.5854H38.588H38.5906H38.5932H38.5958H38.5984H38.601H38.6036H38.6061H38.6087H38.6113H38.6139H38.6165H38.619H38.6216H38.6242H38.6268H38.6293H38.6319H38.6345H38.637H38.6396H38.6422H38.6447H38.6473H38.6498H38.6524H38.6549H38.6575H38.66H38.6626H38.6651H38.6677H38.6702H38.6727H38.6753H38.6778H38.6803H38.6829H38.6854H38.6879H38.6904H38.693H38.6955H38.698H38.7005H38.703H38.7056H38.7081H38.7106H38.7131H38.7156H38.7181H38.7206H38.7231H38.7256H38.7281H38.7306H38.7331H38.7356H38.7381H38.7405H38.743H38.7455H38.748H38.7505H38.7529H38.7554H38.7579H38.7604H38.7628H38.7653H38.7678H38.7702H38.7727H38.7751H38.7776H38.78H38.7825H38.7849H38.7874H38.7898H38.7923H38.7947H38.7972H38.7996H38.802H38.8045H38.8069H38.8093H38.8118H38.8142H38.8166H38.819H38.8214H38.8239H38.8263H38.8287H38.8311H38.8335H38.8359H38.8383H38.8407H38.8431H38.8455H38.8479H38.8503H38.8527H38.8551H38.8574H38.8598H38.8622H38.8646H38.867H38.8693H38.8717H38.8741H38.8764H38.8788H38.8812H38.8835H38.8859H38.8883H38.8906H38.893H38.8953H38.8977H38.9C45.0868 1 49.6051 1.30082 52.5039 1.88058L52.5125 1.8823L52.5211 1.88387C55.7705 2.47468 58.4024 3.34232 60.2266 4.61923L60.2446 4.63185L60.2631 4.64366C62.3286 5.95807 63.7063 7.435 64.7193 9.27373C65.638 11.0226 66.2 13.159 66.2 15.6C66.2 20.509 64.8579 24.3433 62.1697 27.2168L62.1632 27.2239L62.1567 27.231C59.6512 30.0149 55.781 31.944 50.4039 33.0194L50.4157 34.9829C53.5405 35.5688 55.5208 36.4207 56.8177 37.6311C58.0825 38.8116 58.7 40.3293 58.7 42.4C58.7 44.0535 58.234 46.6413 57.1376 50.5285L57.1352 50.537L57.1329 50.5455C56.1259 54.3722 55.6 57.4707 55.6 59.7C55.6 60.739 55.7013 61.835 55.9339 62.6587C56.1481 63.5047 56.5403 64.2333 56.9907 64.9H38.9H37.4697C37.3233 64.6061 37.2421 64.3235 37.1899 63.9586L37.1883 63.9471L37.1864 63.9356C37.0913 63.365 37 62.6244 37 61.9C37 59.9461 37.5665 56.8575 38.7616 52.6747L38.7661 52.6587L38.7702 52.6425C38.9042 52.1062 39.0399 51.5753 39.1724 51.0566C39.4294 50.0502 39.6748 49.0898 39.8744 48.2249L39.8766 48.2155L39.8786 48.206C40.2845 46.2777 40.5 44.7004 40.5 43.4C40.5 42.413 40.2479 41.5433 39.7682 40.7039L39.763 40.6946L39.7575 40.6855C39.3805 40.0572 38.8761 39.6569 38.4412 39.3119C38.4018 39.2805 38.3629 39.2497 38.3247 39.2191L38.2977 39.1975L38.2692 39.1778C36.7485 38.125 34.9269 37.7 32.7 37.7H27.6H26.8357L26.6351 38.4375L19.4357 64.9H2.49998H1.30798ZM44.446 25.1634L44.4508 25.1593C46.8316 23.1186 47.7943 20.4089 47.8996 16.8294L47.9 16.8147V16.8C47.9 14.8036 47.3338 13.0649 45.7251 11.8193C44.2749 10.619 42.2121 10.1 39.8 10.1H39H35.4H34.6391L34.4362 10.8333L30.0362 26.7333L29.6857 28H31H35.2L35.2779 28C36.6049 28.0001 37.9088 28.0003 39.1292 27.6739C41.2734 27.2398 43.0191 26.3707 44.446 25.1634Z" transform="translate(572.968 17.7)" stroke="white" stroke-width="2"/>
	<path d="M1.3206 65L2.96253 59.1711L2.96334 59.1682L19.1596 1H37.5H37.5029H37.5058H37.5088H37.5117H37.5146H37.5176H37.5205H37.5234H37.5264H37.5293H37.5322H37.5351H37.5381H37.541H37.5439H37.5469H37.5498H37.5527H37.5556H37.5586H37.5615H37.5644H37.5674H37.5703H37.5732H37.5761H37.5791H37.582H37.5849H37.5879H37.5908H37.5937H37.5966H37.5996H37.6025H37.6054H37.6083H37.6113H37.6142H37.6171H37.6201H37.623H37.6259H37.6288H37.6318H37.6347H37.6376H37.6405H37.6435H37.6464H37.6493H37.6522H37.6552H37.6581H37.661H37.6639H37.6668H37.6698H37.6727H37.6756H37.6785H37.6815H37.6844H37.6873H37.6902H37.6931H37.6961H37.699H37.7019H37.7048H37.7077H37.7106H37.7136H37.7165H37.7194H37.7223H37.7252H37.7282H37.7311H37.734H37.7369H37.7398H37.7427H37.7456H37.7486H37.7515H37.7544H37.7573H37.7602H37.7631H37.766H37.7689H37.7719H37.7748H37.7777H37.7806H37.7835H37.7864H37.7893H37.7922H37.7951H37.798H37.8009H37.8038H37.8067H37.8097H37.8126H37.8155H37.8184H37.8213H37.8242H37.8271H37.83H37.8329H37.8358H37.8387H37.8416H37.8445H37.8474H37.8503H37.8532H37.8561H37.859H37.8619H37.8647H37.8676H37.8705H37.8734H37.8763H37.8792H37.8821H37.885H37.8879H37.8908H37.8937H37.8966H37.8994H37.9023H37.9052H37.9081H37.911H37.9139H37.9168H37.9196H37.9225H37.9254H37.9283H37.9312H37.9341H37.9369H37.9398H37.9427H37.9456H37.9484H37.9513H37.9542H37.9571H37.9599H37.9628H37.9657H37.9686H37.9714H37.9743H37.9772H37.98H37.9829H37.9858H37.9887H37.9915H37.9944H37.9972H38.0001H38.003H38.0058H38.0087H38.0116H38.0144H38.0173H38.0201H38.023H38.0259H38.0287H38.0316H38.0344H38.0373H38.0401H38.043H38.0458H38.0487H38.0515H38.0544H38.0572H38.0601H38.0629H38.0658H38.0686H38.0714H38.0743H38.0771H38.08H38.0828H38.0857H38.0885H38.0913H38.0942H38.097H38.0998H38.1027H38.1055H38.1083H38.1112H38.114H38.1168H38.1196H38.1225H38.1253H38.1281H38.131H38.1338H38.1366H38.1394H38.1422H38.1451H38.1479H38.1507H38.1535H38.1563H38.1591H38.1619H38.1648H38.1676H38.1704H38.1732H38.176H38.1788H38.1816H38.1844H38.1872H38.19H38.1928H38.1956H38.1984H38.2012H38.204H38.2068H38.2096H38.2124H38.2152H38.218H38.2208H38.2236H38.2264H38.2291H38.2319H38.2347H38.2375H38.2403H38.2431H38.2458H38.2486H38.2514H38.2542H38.257H38.2597H38.2625H38.2653H38.268H38.2708H38.2736H38.2764H38.2791H38.2819H38.2846H38.2874H38.2902H38.2929H38.2957H38.2984H38.3012H38.304H38.3067H38.3095H38.3122H38.315H38.3177H38.3205H38.3232H38.326H38.3287H38.3314H38.3342H38.3369H38.3397H38.3424H38.3451H38.3479H38.3506H38.3533H38.3561H38.3588H38.3615H38.3642H38.367H38.3697H38.3724H38.3751H38.3779H38.3806H38.3833H38.386H38.3887H38.3914H38.3941H38.3969H38.3996H38.4023H38.405H38.4077H38.4104H38.4131H38.4158H38.4185H38.4212H38.4239H38.4266H38.4293H38.432H38.4347H38.4373H38.44H38.4427H38.4454H38.4481H38.4508H38.4534H38.4561H38.4588H38.4615H38.4641H38.4668H38.4695H38.4722H38.4748H38.4775H38.4802H38.4828H38.4855H38.4881H38.4908H38.4935H38.4961H38.4988H38.5014H38.5041H38.5067H38.5094H38.512H38.5147H38.5173H38.5199H38.5226H38.5252H38.5278H38.5305H38.5331H38.5357H38.5384H38.541H38.5436H38.5463H38.5489H38.5515H38.5541H38.5567H38.5594H38.562H38.5646H38.5672H38.5698H38.5724H38.575H38.5776H38.5802H38.5828H38.5854H38.588H38.5906H38.5932H38.5958H38.5984H38.601H38.6036H38.6062H38.6087H38.6113H38.6139H38.6165H38.6191H38.6216H38.6242H38.6268H38.6293H38.6319H38.6345H38.637H38.6396H38.6422H38.6447H38.6473H38.6498H38.6524H38.6549H38.6575H38.66H38.6626H38.6651H38.6677H38.6702H38.6727H38.6753H38.6778H38.6803H38.6829H38.6854H38.6879H38.6905H38.693H38.6955H38.698H38.7005H38.7031H38.7056H38.7081H38.7106H38.7131H38.7156H38.7181H38.7206H38.7231H38.7256H38.7281H38.7306H38.7331H38.7356H38.7381H38.7406H38.743H38.7455H38.748H38.7505H38.753H38.7554H38.7579H38.7604H38.7628H38.7653H38.7678H38.7702H38.7727H38.7751H38.7776H38.7801H38.7825H38.785H38.7874H38.7899H38.7923H38.7947H38.7972H38.7996H38.802H38.8045H38.8069H38.8093H38.8118H38.8142H38.8166H38.819H38.8214H38.8239H38.8263H38.8287H38.8311H38.8335H38.8359H38.8383H38.8407H38.8431H38.8455H38.8479H38.8503H38.8527H38.8551H38.8575H38.8598H38.8622H38.8646H38.867H38.8694H38.8717H38.8741H38.8765H38.8788H38.8812H38.8836H38.8859H38.8883H38.8906H38.893H38.8953H38.8977H38.9C44.9835 1 49.5063 1.30042 52.51 1.88178L52.51 1.88184L52.5211 1.88387C55.7608 2.47289 58.2976 3.33897 60.1265 4.61923L60.1446 4.63185L60.1631 4.64366C62.2156 5.94978 63.7013 7.6229 64.7238 9.48192L64.7372 9.50635L64.752 9.53C65.1821 10.2182 65.4511 10.9179 65.7416 11.7871C66.1133 13.1907 66.3 14.5955 66.3 16.2C66.3 17.9932 66.1128 19.6496 65.933 21.2402C65.891 21.6123 65.8493 21.9809 65.8106 22.3467C64.8496 27.0084 62.6716 30.5795 59.3824 33.2135C54.8169 36.7294 48.1626 38.7013 38.9893 38.9H38.9859H38.9824H38.9789H38.9754H38.9719H38.9683H38.9648H38.9613H38.9578H38.9543H38.9508H38.9473H38.9437H38.9402H38.9367H38.9332H38.9297H38.9262H38.9226H38.9191H38.9156H38.9121H38.9086H38.9051H38.9016H38.898H38.8945H38.891H38.8875H38.884H38.8805H38.8769H38.8734H38.8699H38.8664H38.8629H38.8594H38.8558H38.8523H38.8488H38.8453H38.8418H38.8383H38.8348H38.8312H38.8277H38.8242H38.8207H38.8172H38.8137H38.8101H38.8066H38.8031H38.7996H38.7961H38.7926H38.7891H38.7855H38.782H38.7785H38.775H38.7715H38.768H38.7644H38.7609H38.7574H38.7539H38.7504H38.7469H38.7433H38.7398H38.7363H38.7328H38.7293H38.7258H38.7223H38.7187H38.7152H38.7117H38.7082H38.7047H38.7012H38.6976H38.6941H38.6906H38.6871H38.6836H38.6801H38.6766H38.673H38.6695H38.666H38.6625H38.659H38.6555H38.6519H38.6484H38.6449H38.6414H38.6379H38.6344H38.6308H38.6273H38.6238H38.6203H38.6168H38.6133H38.6098H38.6062H38.6027H38.5992H38.5957H38.5922H38.5887H38.5851H38.5816H38.5781H38.5746H38.5711H38.5676H38.5641H38.5605H38.557H38.5535H38.55H38.5465H38.543H38.5394H38.5359H38.5324H38.5289H38.5254H38.5219H38.5183H38.5148H38.5113H38.5078H38.5043H38.5008H38.4973H38.4937H38.4902H38.4867H38.4832H38.4797H38.4762H38.4726H38.4691H38.4656H38.4621H38.4586H38.4551H38.4516H38.448H38.4445H38.441H38.4375H38.434H38.4305H38.4269H38.4234H38.4199H38.4164H38.4129H38.4094H38.4058H38.4023H38.3988H38.3953H38.3918H38.3883H38.3848H38.3812H38.3777H38.3742H38.3707H38.3672H38.3637H38.3601H38.3566H38.3531H38.3496H38.3461H38.3426H38.3391H38.3355H38.332H38.3285H38.325H38.3215H38.318H38.3144H38.3109H38.3074H38.3039H38.3004H38.2969H38.2934H38.2898H38.2863H38.2828H38.2793H38.2758H38.2723H38.2687H38.2652H38.2617H38.2582H38.2547H38.2512H38.2477H38.2441H38.2406H38.2371H38.2336H38.2301H38.2266H38.223H38.2195H38.216H38.2125H38.209H38.2055H38.2019H38.1984H38.1949H38.1914H38.1879H38.1844H38.1809H38.1773H38.1738H38.1703H38.1668H38.1633H38.1598H38.1562H38.1527H38.1492H38.1457H38.1422H38.1387H38.1352H38.1316H38.1281H38.1246H38.1211H38.1176H38.1141H38.1105H38.107H38.1035H38.1H38.0965H38.093H38.0894H38.0859H38.0824H38.0789H38.0754H38.0719H38.0684H38.0648H38.0613H38.0578H38.0543H38.0508H38.0473H38.0437H38.0402H38.0367H38.0332H38.0297H38.0262H38.0227H38.0191H38.0156H38.0121H38.0086H38.0051H38.0016H37.998H37.9945H37.991H37.9875H37.984H37.9805H37.9769H37.9734H37.9699H37.9664H37.9629H37.9594H37.9559H37.9523H37.9488H37.9453H37.9418H37.9383H37.9348H37.9312H37.9277H37.9242H37.9207H37.9172H37.9137H37.9102H37.9066H37.9031H37.8996H37.8961H37.8926H37.8891H37.8855H37.882H37.8785H37.875H37.8715H37.868H37.8644H37.8609H37.8574H37.8539H37.8504H37.8469H37.8434H37.8398H37.8363H37.8328H37.8293H37.8258H37.8223H37.8187H37.8152H37.8117H37.8082H37.8047H37.8012H37.7977H37.7941H37.7906H37.7871H37.7836H37.7801H37.7766H37.773H37.7695H37.766H37.7625H37.759H37.7555H37.7519H37.7484H37.7449H37.7414H37.7379H37.7344H37.7309H37.7273H37.7238H37.7203H37.7168H37.7133H37.7098H37.7062H37.7027H37.6992H37.6957H37.6922H37.6887H37.6852H37.6816H37.6781H37.6746H37.6711H37.6676H37.6641H37.6605H37.657H37.6535H37.65H37.6465H37.643H37.6395H37.6359H37.6324H37.6289H37.6254H37.6219H37.6184H37.6148H37.6113H37.6078H37.6043H37.6008H37.5973H37.5938H37.5902H37.5867H37.5832H37.5797H37.5762H37.5727H37.5691H37.5656H37.5621H37.5586H37.5551H37.5516H37.548H37.5445H37.541H37.5375H37.534H37.5305H37.527H37.5234H37.5199H37.5164H37.5129H37.5094H37.5059H37.5023H37.4988H37.4953H37.4918H37.4883H37.4848H37.4813H37.4777H37.4742H37.4707H37.4672H37.4637H37.4602H37.4566H37.4531H37.4496H37.4461H37.4426H37.4391H37.4355H37.432H37.4285H37.425H37.4215H37.418H37.4145H37.4109H37.4074H37.4039H37.4004H37.3969H37.3934H37.3898H37.3863H37.3828H37.3793H37.3758H37.3723H37.3688H37.3652H37.3617H37.3582H37.3547H37.3512H37.3477H37.3441H37.3406H37.3371H37.3336H37.3301H37.3266H37.323H37.3195H37.316H37.3125H37.309H37.3055H37.302H37.2984H37.2949H37.2914H37.2879H37.2844H37.2809H37.2773H37.2738H37.2703H37.2668H37.2633H37.2598H37.2563H37.2527H37.2492H37.2457H37.2422H37.2387H37.2352H37.2316H37.2281H37.2246H37.2211H37.2176H37.2141H37.2105H37.207H37.2035H37.2H27.6H26.8413L26.637 39.6306L19.5413 65H1.99999H1.3206ZM44.7804 26.5328L44.7805 26.5329L44.7896 26.5241C47.1314 24.2939 48.2033 21.3033 48.1 17.5856C48.097 15.3679 47.4154 13.5646 45.8459 12.2366L45.8282 12.2216L45.8097 12.2074C44.3097 11.0536 42.3866 10.4 39.9 10.4H38.8H35.4H34.6439L34.4379 11.1275L29.5378 28.4275L29.1774 29.7H30.5H35.4C36.761 29.7 37.8208 29.5944 38.9789 29.3839C41.366 28.9499 43.2402 27.9631 44.7804 26.5328Z" transform="translate(447.668 17.5)" stroke="white" stroke-width="2"/>
	<path d="M1.32572 65L3.56152 57.1747L3.56156 57.1747L3.56398 57.166L19.0615 1H37.956L41.6119 22.4546C41.6503 22.7247 41.7007 23.1188 41.7696 23.6582C41.886 24.5692 42.0553 25.8945 42.3094 27.7366C42.5456 29.4491 42.7807 31.4675 43.0583 33.8517C43.2497 35.4947 43.4613 37.3114 43.7074 39.3215L43.815 40.2H44.7H45.1H45.9411L46.0852 39.3713C46.8851 34.7719 47.585 30.7727 48.1848 27.3738C48.7769 24.0183 49.1731 21.9358 49.3735 20.9316L54.8609 1.1H71.2H71.9057L70.4345 6.73933L54.2404 64.9H35.4521L31.9894 43.3545C31.989 43.3523 31.9887 43.3501 31.9884 43.3479C31.8125 42.1523 31.6375 40.9988 31.4672 39.8763C31.1515 37.7959 30.8519 35.8218 30.5932 33.8823C30.4773 32.7634 30.349 31.6622 30.2234 30.5853C30.0182 28.824 29.8205 27.1274 29.6971 25.5233L29.626 24.6H28.7H27.8H26.9308L26.8098 25.4607C25.9764 31.3866 25.3149 35.6811 24.9041 38.3477C24.8729 38.5498 24.8433 38.7424 24.815 38.9258C24.7427 39.2878 24.6726 39.64 24.6046 39.9822C24.2 42.0168 23.8661 43.6959 23.5337 44.9423L23.5321 44.9487L18.3265 65H2.6H1.32572Z" transform="translate(378.268 17.5)" stroke="white" stroke-width="2"/>
</svg>
