<svg width="308" height="170" viewBox="0 0 308 170" fill="none" xmlns="http://www.w3.org/2000/svg">
<g filter="url(#filter0_d)">
<path d="M21.9253 18.6304C25.2151 7.7716 35.6598 0.700203 46.9638 1.67856L208.028 15.6186C218.267 16.5048 226.805 23.811 229.262 33.7894L234.844 56.4492C238.516 71.3587 227.436 85.8341 212.085 86.1828L33.1194 90.2477C16.7913 90.6186 4.86987 74.9258 9.60538 59.2952L21.9253 18.6304Z" transform="translate(32 19)" fill="#10327B"/>
</g>
<path d="M2.43077 39.246C2.2121 32.1393 2.10277 26.782 2.10277 23.174C2.10277 19.566 2.3351 15.712 2.79977 11.612L10.5078 12.227C11.4644 15.671 12.4758 20.4953 13.5418 26.7C15.0724 21.698 16.4254 16.286 17.6008 10.464L25.3498 11.161C25.5684 19.607 25.6778 25.7843 25.6778 29.693C25.6778 33.5743 25.5548 37.032 25.3088 40.066L19.6918 39.533C20.0471 36.089 20.3478 28.791 20.5938 17.639L20.2658 17.598C19.9924 18.664 19.5551 20.4953 18.9538 23.092C17.6964 28.4767 16.4801 33.0687 15.3048 36.868L11.5738 36.54C10.9178 33.916 10.1524 30.5267 9.27777 26.372C8.43043 22.19 7.77443 19.115 7.30977 17.147L6.98177 17.106C7.22777 26.2353 7.51477 33.7793 7.84277 39.738L2.43077 39.246ZM29.6298 19.443L34.3038 19.894V39.574L29.6298 39.123V19.443ZM29.9578 12.227L34.5498 12.76L34.1398 17.352L29.5478 16.778L29.9578 12.227ZM46.2072 26.085C46.2072 24.445 45.7972 23.625 44.9772 23.625C44.5672 23.625 44.1846 23.83 43.8292 24.24C43.5012 24.6227 43.3372 25.1557 43.3372 25.839C43.3372 26.495 43.4602 27.0417 43.7062 27.479C43.9796 27.9163 44.4579 28.3537 45.1412 28.791C45.8519 29.201 46.3986 29.5427 46.7812 29.816C47.1912 30.062 47.6696 30.4173 48.2162 30.882C49.3369 31.866 49.8972 33.137 49.8972 34.695C49.8972 36.2257 49.3096 37.4693 48.1342 38.426C46.9862 39.3827 45.6879 39.861 44.2392 39.861C42.7906 39.861 41.4786 39.4783 40.3032 38.713C39.1552 37.9203 38.2259 36.9363 37.5152 35.761L39.7292 33.26C40.8226 35.146 41.9706 36.089 43.1732 36.089C43.5832 36.089 43.9386 35.9797 44.2392 35.761C44.5399 35.515 44.6902 35.187 44.6902 34.777C44.6902 33.9023 44.0616 33.096 42.8042 32.358C41.4649 31.62 40.4126 30.8 39.6472 29.898C38.8819 28.996 38.4992 27.725 38.4992 26.085C38.4992 24.4177 39.1826 22.928 40.5492 21.616C41.9159 20.2767 43.3782 19.607 44.9362 19.607C46.5216 19.607 47.7652 20.1537 48.6672 21.247C49.5966 22.313 50.0612 23.7617 50.0612 25.593C50.0612 26.331 49.9792 27.1237 49.8152 27.971L46.0842 27.643C46.1662 27.0143 46.2072 26.495 46.2072 26.085ZM53.5331 19.443L58.2071 19.894V39.574L53.5331 39.123V19.443ZM53.8611 12.227L58.4531 12.76L58.0431 17.352L53.4511 16.778L53.8611 12.227ZM66.1746 31.62C66.1746 34.7087 66.8579 36.253 68.2246 36.253C68.8259 36.253 69.3316 35.392 69.7416 33.67C70.1516 31.9207 70.3566 30.2533 70.3566 28.668C70.3566 25.1693 69.7826 23.42 68.6346 23.42C67.8966 23.42 67.2952 24.363 66.8306 26.249C66.3932 28.1077 66.1746 29.898 66.1746 31.62ZM61.3776 31.251C61.3776 28.709 61.8969 26.2217 62.9356 23.789C63.4822 22.559 64.2476 21.5613 65.2316 20.796C66.2429 20.0033 67.3636 19.607 68.5936 19.607C69.8236 19.607 70.8759 19.894 71.7506 20.468C72.6526 21.0147 73.3359 21.7527 73.8006 22.682C74.7026 24.5133 75.1536 26.5087 75.1536 28.668C75.1536 31.6473 74.5386 34.2987 73.3086 36.622C72.1059 38.918 70.4112 40.066 68.2246 40.066C63.6599 40.066 61.3776 37.1277 61.3776 31.251ZM67.5276 17.885L65.6826 15.548C68.7712 13.5253 71.2859 12.0903 73.2266 11.243L75.4406 14.892C72.8439 15.5207 70.2062 16.5183 67.5276 17.885ZM86.0253 19.484C89.6333 19.484 91.4373 22.4907 91.4373 28.504C91.4373 31.6747 91.2596 35.0367 90.9043 38.59L86.1073 38.139C86.4079 35.023 86.5583 31.8797 86.5583 28.709C86.5583 25.511 86.1073 23.912 85.2053 23.912C84.7679 23.912 84.2076 25.019 83.5243 27.233C82.8409 29.4197 82.4173 31.5653 82.2533 33.67C82.3079 34.7907 82.4173 36.8133 82.5813 39.738L77.7843 39.287C77.4836 35.433 77.3333 32.0437 77.3333 29.119C77.3333 26.1943 77.4153 23.5703 77.5793 21.247L80.6133 21.575C80.6679 21.7937 80.8729 22.682 81.2283 24.24C82.8136 21.0693 84.4126 19.484 86.0253 19.484Z" transform="translate(107 40)" fill="#FDCC01"/>
<defs>
<filter id="filter0_d" x="0.557373" y="0.588379" width="306.994" height="168.666" filterUnits="userSpaceOnUse" color-interpolation-filters="sRGB">
<feFlood flood-opacity="0" result="BackgroundImageFix"/>
<feColorMatrix in="SourceAlpha" type="matrix" values="0 0 0 0 0 0 0 0 0 0 0 0 0 0 0 0 0 0 255 0"/>
<feOffset dy="20"/>
<feGaussianBlur stdDeviation="20"/>
<feColorMatrix type="matrix" values="0 0 0 0 0 0 0 0 0 0 0 0 0 0 0 0 0 0 0.1 0"/>
<feBlend mode="normal" in2="BackgroundImageFix" result="effect1_dropShadow"/>
<feBlend mode="normal" in="SourceGraphic" in2="effect1_dropShadow" result="shape"/>
</filter>
</defs>
</svg>
