<svg width="420" height="202" viewBox="0 0 420 202" fill="none" xmlns="http://www.w3.org/2000/svg">
<g filter="url(#filter0_d)">
<path d="M45.3505 28.1563C50.7111 17.3973 61.498 10.4042 73.508 9.90184L290.968 0.80511C302.86 0.307647 314.099 6.25264 320.379 16.3631L354.412 71.1498C368.125 93.2246 352.126 121.752 326.139 121.562L52.8769 119.563C28.4715 119.384 12.6975 93.6917 23.5816 71.847L45.3505 28.1563Z" transform="translate(20 20)" fill="#10327B"/>
</g>
<path d="M11.8658 42.496C9.07911 42.496 6.71778 41.2493 4.78178 38.756C2.87511 36.2333 1.92178 32.42 1.92178 27.316C1.92178 22.1827 2.96311 18.0027 5.04578 14.776C7.15778 11.5493 9.63645 9.936 12.4818 9.936C15.3271 9.936 17.6884 11.1973 19.5658 13.72C21.4724 16.2427 22.4258 20.0413 22.4258 25.116C22.4258 30.1907 21.3698 34.356 19.2578 37.612C17.1458 40.868 14.6818 42.496 11.8658 42.496ZM12.5258 15.172C11.2351 15.172 10.1204 16.316 9.18178 18.604C8.24311 20.8627 7.77378 23.7227 7.77378 27.184C7.77378 30.616 8.16978 33.168 8.96178 34.84C9.78311 36.4827 10.7951 37.304 11.9978 37.304C13.2004 37.304 14.2564 36.16 15.1658 33.872C16.1044 31.584 16.5738 28.724 16.5738 25.292C16.5738 21.8307 16.1778 19.2787 15.3858 17.636C14.6231 15.9933 13.6698 15.172 12.5258 15.172ZM26.5831 11.74C30.0151 10.684 33.1098 10.156 35.8671 10.156C38.6538 10.156 41.0151 10.904 42.9511 12.4C44.8871 13.8667 45.8551 15.6853 45.8551 17.856C45.8551 21.112 44.0364 23.6933 40.3991 25.6C43.8018 26.9787 45.5031 29.2813 45.5031 32.508C45.5031 34.884 44.2564 37.0107 41.7631 38.888C39.2698 40.736 36.6591 41.66 33.9311 41.66C33.5791 41.66 31.0711 41.4547 26.4071 41.044C26.8178 34.7373 27.0231 29.428 27.0231 25.116C27.0231 20.804 26.8764 16.3453 26.5831 11.74ZM39.9151 18.472C39.9151 17.592 39.4751 16.8587 38.5951 16.272C37.7444 15.656 36.8204 15.348 35.8231 15.348C34.8551 15.348 33.8138 15.524 32.6991 15.876C32.8164 19.396 32.8751 22.0507 32.8751 23.84C34.2244 23.7227 35.7351 23.1213 37.4071 22.036C39.0791 20.9213 39.9151 19.7333 39.9151 18.472ZM34.8991 36.292C35.8671 36.292 36.8938 35.9107 37.9791 35.148C39.0644 34.356 39.6071 33.4613 39.6071 32.464C39.6071 31.4373 38.9764 30.5427 37.7151 29.78C36.4538 29.0173 34.8258 28.548 32.8311 28.372C32.7724 31.8333 32.7138 34.4293 32.6551 36.16C33.1831 36.248 33.9311 36.292 34.8991 36.292ZM52.0343 30.924C51.917 31.5107 51.8583 32.2733 51.8583 33.212C51.8583 34.1213 52.049 34.972 52.4303 35.764C52.841 36.556 53.369 36.952 54.0143 36.952C54.8943 36.952 55.525 36.2773 55.9063 34.928C56.317 33.5493 56.5223 32.0533 56.5223 30.44C56.5223 23.6933 56.2583 16.932 55.7303 10.156L61.9343 10.684C62.345 15.964 62.5503 22.5493 62.5503 30.44C62.5503 33.08 61.9783 35.6027 60.8343 38.008C60.2477 39.2693 59.4117 40.296 58.3263 41.088C57.2703 41.9093 56.053 42.32 54.6743 42.32C52.2103 42.32 50.2303 41.4693 48.7343 39.768C47.2383 38.0373 46.4903 35.896 46.4903 33.344C46.4903 32.464 46.6077 31.4813 46.8423 30.396L52.0343 30.924ZM67.7492 41.176C67.6319 36.5413 67.5732 32.156 67.5732 28.02C67.5732 23.884 67.8079 18.5013 68.2772 11.872C73.2932 11.1093 78.1919 10.728 82.9732 10.728V16.14C79.6586 16.14 76.5786 16.2427 73.7332 16.448C73.6159 19.7333 73.5426 22.256 73.5132 24.016C75.7426 23.6933 78.3826 23.5027 81.4332 23.444L82.2692 28.284C80.3039 28.3133 77.3559 28.5333 73.4252 28.944C73.4252 32.464 73.4399 35.0013 73.4692 36.556C76.0212 36.3507 79.0719 35.9107 82.6212 35.236L83.3692 40.076C80.8759 41.22 77.9279 41.792 74.5252 41.792L67.7492 41.176ZM90.5089 41.088C90.2156 35.896 90.0689 31.3787 90.0689 27.536C90.0689 23.664 90.1569 19.6307 90.3329 15.436L84.9649 16.184L83.9969 11.08C86.8716 10.5813 89.7169 10.2147 92.5329 9.98L100.761 9.54L101.597 14.424C99.9836 14.512 98.1649 14.644 96.1409 14.82C95.9649 19.044 95.8769 22.916 95.8769 26.436C95.8769 29.956 95.9356 35.0013 96.0529 41.572L90.5089 41.088ZM111.397 10.552C111.133 15.1867 111.001 20.408 111.001 26.216C111.001 32.024 111.191 37.3187 111.573 42.1L105.633 41.572C105.251 35.588 105.061 30.1907 105.061 25.38C105.061 20.54 105.193 15.4213 105.457 10.024L111.397 10.552ZM114.787 11.08L120.463 11.608C121.578 18.912 122.971 25.9373 124.643 32.684L124.819 32.64C126.873 24.7493 128.53 17.0347 129.791 9.496L135.599 9.98C133.634 20.0707 130.715 30.4987 126.843 41.264L121.783 40.824C118.791 30.2347 116.459 20.32 114.787 11.08ZM146.186 42.496C143.399 42.496 141.038 41.2493 139.102 38.756C137.195 36.2333 136.242 32.42 136.242 27.316C136.242 22.1827 137.283 18.0027 139.366 14.776C141.478 11.5493 143.957 9.936 146.802 9.936C149.647 9.936 152.009 11.1973 153.886 13.72C155.793 16.2427 156.746 20.0413 156.746 25.116C156.746 30.1907 155.69 34.356 153.578 37.612C151.466 40.868 149.002 42.496 146.186 42.496ZM146.846 15.172C145.555 15.172 144.441 16.316 143.502 18.604C142.563 20.8627 142.094 23.7227 142.094 27.184C142.094 30.616 142.49 33.168 143.282 34.84C144.103 36.4827 145.115 37.304 146.318 37.304C147.521 37.304 148.577 36.16 149.486 33.872C150.425 31.584 150.894 28.724 150.894 25.292C150.894 21.8307 150.498 19.2787 149.706 17.636C148.943 15.9933 147.99 15.172 146.846 15.172ZM170.979 21.772C171.361 20.3347 171.551 19.132 171.551 18.164C171.551 17.196 171.287 16.404 170.759 15.788C170.231 15.1427 169.542 14.82 168.691 14.82C167.87 14.82 167.181 15.2307 166.623 16.052C166.066 16.8733 165.787 17.812 165.787 18.868C165.787 20.9213 166.961 22.6813 169.307 24.148C171.654 25.6733 173.253 26.7733 174.103 27.448C174.954 28.1227 175.555 28.7387 175.907 29.296C176.787 30.7333 177.227 32.2147 177.227 33.74C177.227 36.38 176.333 38.492 174.543 40.076C172.783 41.6307 170.789 42.408 168.559 42.408C165.919 42.408 163.705 41.2933 161.915 39.064C160.625 37.4507 159.437 35.4413 158.351 33.036L162.619 30.968C163.294 32.728 164.13 34.224 165.127 35.456C166.154 36.6587 167.239 37.26 168.383 37.26C169.117 37.26 169.777 37.0253 170.363 36.556C170.95 36.0867 171.243 35.3827 171.243 34.444C171.243 33.476 170.877 32.5813 170.143 31.76C169.41 30.9387 168.427 30.1027 167.195 29.252C165.963 28.4013 165.01 27.712 164.335 27.184C163.661 26.6267 162.913 25.9227 162.091 25.072C160.537 23.4293 159.759 21.332 159.759 18.78C159.759 16.1987 160.654 14.0427 162.443 12.312C164.233 10.552 166.359 9.672 168.823 9.672C171.287 9.672 173.355 10.6253 175.027 12.532C176.729 14.4387 177.579 16.404 177.579 18.428C177.579 20.4227 177.198 22.1387 176.435 23.576L170.979 21.772Z" transform="translate(122 59)" fill="#FDCC01"/>
<defs>
<filter id="filter0_d" x="0.0766602" y="0.776123" width="419.357" height="200.787" filterUnits="userSpaceOnUse" color-interpolation-filters="sRGB">
<feFlood flood-opacity="0" result="BackgroundImageFix"/>
<feColorMatrix in="SourceAlpha" type="matrix" values="0 0 0 0 0 0 0 0 0 0 0 0 0 0 0 0 0 0 255 0"/>
<feOffset dy="20"/>
<feGaussianBlur stdDeviation="20"/>
<feColorMatrix type="matrix" values="0 0 0 0 0 0 0 0 0 0 0 0 0 0 0 0 0 0 0.1 0"/>
<feBlend mode="normal" in2="BackgroundImageFix" result="effect1_dropShadow"/>
<feBlend mode="normal" in="SourceGraphic" in2="effect1_dropShadow" result="shape"/>
</filter>
</defs>
</svg>
