<svg width="316" height="154" viewBox="0 0 316 154" fill="none" xmlns="http://www.w3.org/2000/svg">
<g filter="url(#filter0_d)">
<path d="M40.2238 10.6688C44.4437 4.02481 51.768 0 59.6389 0H213.764C221.958 0 229.533 4.35953 233.65 11.4444L249.92 39.4444C258.83 54.7776 247.768 74 230.034 74H41.8551C23.715 74 12.7145 53.9814 22.4401 38.6688L40.2238 10.6688Z" transform="translate(22 20)" fill="#10327B"/>
</g>
<path d="M3.23912 41.748C3.12179 38.4333 3.06312 34.4587 3.06312 29.824C3.06312 25.16 3.20979 18.9413 3.50313 11.168C5.96712 10.2587 8.48979 9.804 11.0711 9.804C13.6818 9.804 15.9991 10.772 18.0231 12.708C20.0765 14.6147 21.1031 17.0347 21.1031 19.968C21.1031 22.872 19.9885 25.3947 17.7591 27.536C15.5591 29.648 12.6698 31.2027 9.09113 32.2C9.09113 35.4853 9.13513 38.8587 9.22312 42.32L3.23912 41.748ZM13.4471 24.412C14.5325 23.1507 15.0751 21.7427 15.0751 20.188C15.0751 18.6333 14.6645 17.372 13.8431 16.404C13.0511 15.436 12.1565 14.952 11.1591 14.952C10.8951 14.952 10.2938 15.0253 9.35513 15.172C9.20846 19.308 9.12046 23.312 9.09113 27.184C10.9391 26.5973 12.3911 25.6733 13.4471 24.412ZM34.8132 40.56L33.8013 34.444L27.2452 34.708L25.5733 42.98L19.4133 42.452L27.2892 10.552L35.4293 11.256L41.1932 41.088L34.8132 40.56ZM30.9412 16.316L28.1693 30L33.0973 29.824L30.9412 16.316ZM55.2567 21.772C55.6381 20.3347 55.8287 19.132 55.8287 18.164C55.8287 17.196 55.5647 16.404 55.0367 15.788C54.5088 15.1427 53.8194 14.82 52.9688 14.82C52.1474 14.82 51.4581 15.2307 50.9007 16.052C50.3434 16.8733 50.0648 17.812 50.0648 18.868C50.0648 20.9213 51.2381 22.6813 53.5847 24.148C55.9314 25.6733 57.5301 26.7733 58.3807 27.448C59.2314 28.1227 59.8328 28.7387 60.1848 29.296C61.0648 30.7333 61.5048 32.2147 61.5048 33.74C61.5048 36.38 60.6101 38.492 58.8207 40.076C57.0608 41.6307 55.0661 42.408 52.8367 42.408C50.1968 42.408 47.9821 41.2933 46.1928 39.064C44.9021 37.4507 43.7141 35.4413 42.6287 33.036L46.8968 30.968C47.5714 32.728 48.4074 34.224 49.4047 35.456C50.4314 36.6587 51.5167 37.26 52.6608 37.26C53.3941 37.26 54.0541 37.0253 54.6407 36.556C55.2274 36.0867 55.5207 35.3827 55.5207 34.444C55.5207 33.476 55.1541 32.5813 54.4207 31.76C53.6874 30.9387 52.7047 30.1027 51.4728 29.252C50.2407 28.4013 49.2874 27.712 48.6127 27.184C47.9381 26.6267 47.1901 25.9227 46.3688 25.072C44.8141 23.4293 44.0367 21.332 44.0367 18.78C44.0367 16.1987 44.9314 14.0427 46.7208 12.312C48.5101 10.552 50.6367 9.672 53.1007 9.672C55.5648 9.672 57.6328 10.6253 59.3047 12.532C61.0061 14.4387 61.8567 16.404 61.8567 18.428C61.8567 20.4227 61.4754 22.1387 60.7127 23.576L55.2567 21.772ZM74.2916 42.496C71.5049 42.496 69.1436 41.2493 67.2076 38.756C65.3009 36.2333 64.3476 32.42 64.3476 27.316C64.3476 22.1827 65.3889 18.0027 67.4716 14.776C69.5836 11.5493 72.0622 9.936 74.9076 9.936C77.7529 9.936 80.1142 11.1973 81.9916 13.72C83.8982 16.2427 84.8516 20.0413 84.8516 25.116C84.8516 30.1907 83.7956 34.356 81.6836 37.612C79.5716 40.868 77.1076 42.496 74.2916 42.496ZM74.9516 15.172C73.6609 15.172 72.5462 16.316 71.6076 18.604C70.6689 20.8627 70.1996 23.7227 70.1996 27.184C70.1996 30.616 70.5956 33.168 71.3876 34.84C72.2089 36.4827 73.2209 37.304 74.4236 37.304C75.6262 37.304 76.6822 36.16 77.5916 33.872C78.5302 31.584 78.9996 28.724 78.9996 25.292C78.9996 21.8307 78.6036 19.2787 77.8116 17.636C77.0489 15.9933 76.0956 15.172 74.9516 15.172Z" transform="translate(83 30)" fill="#FDCC01"/>
<circle cx="22.5" cy="22.5" r="22.5" transform="translate(183 34)" fill="#F5F7F9"/>
<path d="M16.4477 14.588C15.8611 19.3987 15.5677 24.312 15.5677 29.328C15.5677 34.3147 15.7731 38.8027 16.1838 42.792L10.2877 42.22C10.0824 38.788 9.97975 35.444 9.97975 32.188C9.97975 28.9027 10.0971 25.7933 10.3317 22.86L7.86775 26.16L4.52375 23.344C6.37175 20.6453 8.32242 17.3307 10.3758 13.4L16.4477 14.588Z" transform="translate(193 30)" fill="#E80E37"/>
<defs>
<filter id="filter0_d" x="0.817871" y="0" width="314.251" height="154" filterUnits="userSpaceOnUse" color-interpolation-filters="sRGB">
<feFlood flood-opacity="0" result="BackgroundImageFix"/>
<feColorMatrix in="SourceAlpha" type="matrix" values="0 0 0 0 0 0 0 0 0 0 0 0 0 0 0 0 0 0 255 0"/>
<feOffset dy="20"/>
<feGaussianBlur stdDeviation="20"/>
<feColorMatrix type="matrix" values="0 0 0 0 0 0 0 0 0 0 0 0 0 0 0 0 0 0 0.1 0"/>
<feBlend mode="normal" in2="BackgroundImageFix" result="effect1_dropShadow"/>
<feBlend mode="normal" in="SourceGraphic" in2="effect1_dropShadow" result="shape"/>
</filter>
</defs>
</svg>
