<svg width="420" height="202" viewBox="0 0 420 202" fill="none" xmlns="http://www.w3.org/2000/svg">
<g filter="url(#filter0_d)">
<path d="M45.3505 28.1563C50.7111 17.3973 61.498 10.4042 73.508 9.90184L290.968 0.80511C302.86 0.307647 314.099 6.25264 320.379 16.3631L354.412 71.1498C368.125 93.2246 352.126 121.752 326.139 121.562L52.8769 119.563C28.4715 119.384 12.6975 93.6917 23.5816 71.847L45.3505 28.1563Z" transform="translate(20 20)" fill="#10327B"/>
</g>
<path d="M15.6882 40.56L14.6763 34.444L8.12025 34.708L6.44825 42.98L0.28825 42.452L8.16425 10.552L16.3043 11.256L22.0682 41.088L15.6882 40.56ZM11.8162 16.316L9.04425 30L13.9723 29.824L11.8162 16.316ZM25.5717 41.396C25.9531 34.356 26.1438 28.0787 26.1438 22.564C26.1438 17.0493 26.1291 13.4267 26.0998 11.696C29.3264 10.1707 32.6851 9.408 36.1758 9.408C38.7571 9.408 40.9131 10.2293 42.6437 11.872C44.4037 13.5147 45.2837 15.832 45.2837 18.824C45.2837 22.2853 42.8344 25.6147 37.9357 28.812C40.6051 32.156 43.3331 35.8373 46.1197 39.856L41.8957 42.98C40.0478 40.1933 36.7331 35.6467 31.9518 29.34C31.8637 33.8573 31.7317 38.096 31.5557 42.056L25.5717 41.396ZM32.0837 26.348C34.2544 25.3213 36.1024 24.06 37.6277 22.564C39.1531 21.0387 39.9158 19.66 39.9158 18.428C39.9158 17.196 39.5491 16.2427 38.8158 15.568C38.1117 14.8933 37.1731 14.556 35.9997 14.556C34.8264 14.556 33.5358 14.8053 32.1277 15.304C32.1277 20.2613 32.1131 23.9427 32.0837 26.348ZM60.6129 23.532C60.7303 22.9453 60.7889 21.992 60.7889 20.672C60.7889 19.3227 60.5689 18.0907 60.1289 16.976C59.6889 15.832 59.0436 15.26 58.1929 15.26C57.1663 15.26 56.1689 16.5947 55.2009 19.264C54.2329 21.904 53.7489 24.7493 53.7489 27.8C53.7489 30.8213 54.0423 33.1973 54.6289 34.928C55.2156 36.6293 56.0809 37.48 57.2249 37.48C58.3689 37.48 59.2343 36.952 59.8209 35.896C60.4076 34.84 60.8476 33.2853 61.1409 31.232C60.0849 31.232 58.9556 31.3347 57.7529 31.54L56.8289 27.184C59.4983 27.008 62.8423 26.6853 66.8609 26.216C67.0369 27.7413 67.1249 29.1347 67.1249 30.396C67.1249 31.6573 66.7436 33.2267 65.9809 35.104C65.2476 36.9813 64.1329 38.6387 62.6369 40.076C61.1703 41.5133 59.5569 42.232 57.7969 42.232C54.7463 42.232 52.2969 41.044 50.4489 38.668C48.6303 36.292 47.7209 32.9333 47.7209 28.592C47.7209 25.3947 48.1169 22.4027 48.9089 19.616C49.7009 16.8293 50.8743 14.5413 52.4289 12.752C53.9836 10.9627 55.7583 10.068 57.7529 10.068C59.6889 10.068 61.5076 10.772 63.2089 12.18C64.0889 12.9133 64.7929 13.9693 65.3209 15.348C65.8783 16.6973 66.1569 18.12 66.1569 19.616C66.1569 21.112 66.0249 22.564 65.7609 23.972L60.6129 23.532ZM71.175 41.176C71.0577 36.5413 70.999 32.156 70.999 28.02C70.999 23.884 71.2337 18.5013 71.703 11.872C76.719 11.1093 81.6177 10.728 86.399 10.728V16.14C83.0843 16.14 80.0043 16.2427 77.159 16.448C77.0417 19.7333 76.9683 22.256 76.939 24.016C79.1683 23.6933 81.8083 23.5027 84.859 23.444L85.695 28.284C83.7297 28.3133 80.7817 28.5333 76.851 28.944C76.851 32.464 76.8657 35.0013 76.895 36.556C79.447 36.3507 82.4977 35.9107 86.047 35.236L86.795 40.076C84.3017 41.22 81.3537 41.792 77.951 41.792L71.175 41.176ZM109.555 10.024L109.599 30.484C109.599 33.8573 109.481 37.48 109.247 41.352L104.319 40.868C100.535 32.2733 97.44 25.8347 95.0347 21.552C95.064 25.8933 95.0787 32.816 95.0787 42.32L89.9307 41.748C89.8427 39.9293 89.7987 38.1693 89.7987 36.468C89.7987 29.3693 90.1947 21.0973 90.9867 11.652L96.8387 12.224C99.7427 20.232 102.353 26.3187 104.671 30.484C104.495 21.6253 104.289 14.644 104.055 9.54L109.555 10.024ZM117.868 41.088C117.575 35.896 117.428 31.3787 117.428 27.536C117.428 23.664 117.516 19.6307 117.692 15.436L112.324 16.184L111.356 11.08C114.231 10.5813 117.076 10.2147 119.892 9.98L128.12 9.54L128.956 14.424C127.343 14.512 125.524 14.644 123.5 14.82C123.324 19.044 123.236 22.916 123.236 26.436C123.236 29.956 123.295 35.0013 123.412 41.572L117.868 41.088ZM138.756 10.552C138.492 15.1867 138.36 20.408 138.36 26.216C138.36 32.024 138.551 37.3187 138.932 42.1L132.992 41.572C132.611 35.588 132.42 30.1907 132.42 25.38C132.42 20.54 132.552 15.4213 132.816 10.024L138.756 10.552ZM163.223 10.024L163.267 30.484C163.267 33.8573 163.149 37.48 162.915 41.352L157.987 40.868C154.203 32.2733 151.108 25.8347 148.703 21.552C148.732 25.8933 148.747 32.816 148.747 42.32L143.599 41.748C143.511 39.9293 143.467 38.1693 143.467 36.468C143.467 29.3693 143.863 21.0973 144.655 11.652L150.507 12.224C153.411 20.232 156.021 26.3187 158.339 30.484C158.163 21.6253 157.957 14.644 157.723 9.54L163.223 10.024ZM180.688 40.56L179.676 34.444L173.12 34.708L171.448 42.98L165.288 42.452L173.164 10.552L181.304 11.256L187.068 41.088L180.688 40.56ZM176.816 16.316L174.044 30L178.972 29.824L176.816 16.316Z" transform="translate(117 69)" fill="#FDCC01"/>
<path d="M2.40469 26.112C2.33002 23.1627 2.29269 20.372 2.29269 17.74C2.29269 15.108 2.44202 11.6827 2.74069 7.464C5.93269 6.97867 9.05002 6.736 12.0927 6.736V10.18C9.98335 10.18 8.02335 10.2453 6.21269 10.376C6.13802 12.4667 6.09135 14.072 6.07269 15.192C7.49135 14.9867 9.17135 14.8653 11.1127 14.828L11.6447 17.908C10.394 17.9267 8.51802 18.0667 6.01669 18.328C6.01669 20.568 6.02602 22.1827 6.04469 23.172C7.66869 23.0413 9.61002 22.7613 11.8687 22.332L12.3447 25.412C10.758 26.14 8.88202 26.504 6.71669 26.504L2.40469 26.112ZM20.0241 12.672C22.4881 12.672 23.7201 14.7253 23.7201 18.832C23.7201 20.9973 23.5988 23.2933 23.3561 25.72L20.0801 25.412C20.2855 23.284 20.3881 21.1373 20.3881 18.972C20.3881 16.788 20.0801 15.696 19.4641 15.696C19.1655 15.696 18.7828 16.452 18.3161 17.964C17.8495 19.4573 17.5601 20.9227 17.4481 22.36C17.4855 23.1253 17.5601 24.5067 17.6721 26.504L14.3961 26.196C14.1908 23.564 14.0881 21.2493 14.0881 19.252C14.0881 17.2547 14.1441 15.4627 14.2561 13.876L16.3281 14.1C16.3655 14.2493 16.5055 14.856 16.7481 15.92C17.8308 13.7547 18.9228 12.672 20.0241 12.672Z" transform="translate(154 48)" fill="white"/>
<defs>
<filter id="filter0_d" x="0.0766602" y="0.776123" width="419.357" height="200.787" filterUnits="userSpaceOnUse" color-interpolation-filters="sRGB">
<feFlood flood-opacity="0" result="BackgroundImageFix"/>
<feColorMatrix in="SourceAlpha" type="matrix" values="0 0 0 0 0 0 0 0 0 0 0 0 0 0 0 0 0 0 255 0"/>
<feOffset dy="20"/>
<feGaussianBlur stdDeviation="20"/>
<feColorMatrix type="matrix" values="0 0 0 0 0 0 0 0 0 0 0 0 0 0 0 0 0 0 0.1 0"/>
<feBlend mode="normal" in2="BackgroundImageFix" result="effect1_dropShadow"/>
<feBlend mode="normal" in="SourceGraphic" in2="effect1_dropShadow" result="shape"/>
</filter>
</defs>
</svg>
