<svg width="420" height="202" viewBox="0 0 420 202" fill="none" xmlns="http://www.w3.org/2000/svg">
<g filter="url(#filter0_d)">
<path d="M45.3505 28.1563C50.7111 17.3973 61.498 10.4042 73.508 9.90184L290.968 0.80511C302.86 0.307647 314.099 6.25264 320.379 16.3631L354.412 71.1498C368.125 93.2246 352.126 121.752 326.139 121.562L52.8769 119.563C28.4715 119.384 12.6975 93.6917 23.5816 71.847L45.3505 28.1563Z" transform="translate(20 20)" fill="#10327B"/>
</g>
<path d="M8.43487 9.088C8.21888 12.88 8.11088 17.152 8.11088 21.904C8.11088 26.656 8.26688 30.988 8.57888 34.9L3.71887 34.468C3.40688 29.572 3.25088 25.156 3.25088 21.22C3.25088 17.26 3.35888 13.072 3.57487 8.656L8.43487 9.088ZM28.4531 8.656L28.4891 25.396C28.4891 28.156 28.3931 31.12 28.2011 34.288L24.1691 33.892C21.0731 26.86 18.5411 21.592 16.5731 18.088C16.5971 21.64 16.6091 27.304 16.6091 35.08L12.3971 34.612C12.3251 33.124 12.2891 31.684 12.2891 30.292C12.2891 24.484 12.6131 17.716 13.2611 9.988L18.0491 10.456C20.4251 17.008 22.5611 21.988 24.4571 25.396C24.3131 18.148 24.1451 12.436 23.9531 8.26L28.4531 8.656ZM35.2552 34.072C35.0152 29.824 34.8952 26.128 34.8952 22.984C34.8952 19.816 34.9672 16.516 35.1112 13.084L30.7192 13.696L29.9272 9.52C32.2792 9.112 34.6072 8.812 36.9112 8.62L43.6432 8.26L44.3272 12.256C43.0072 12.328 41.5192 12.436 39.8632 12.58C39.7192 16.036 39.6472 19.204 39.6472 22.084C39.6472 24.964 39.6952 29.092 39.7912 34.468L35.2552 34.072ZM46.657 34.144C46.561 30.352 46.513 26.764 46.513 23.38C46.513 19.996 46.705 15.592 47.089 10.168C51.193 9.544 55.201 9.232 59.113 9.232V13.66C56.401 13.66 53.881 13.744 51.553 13.912C51.457 16.6 51.397 18.664 51.373 20.104C53.197 19.84 55.357 19.684 57.853 19.636L58.537 23.596C56.929 23.62 54.517 23.8 51.301 24.136C51.301 27.016 51.313 29.092 51.337 30.364C53.425 30.196 55.921 29.836 58.825 29.284L59.437 33.244C57.397 34.18 54.985 34.648 52.201 34.648L46.657 34.144ZM62.2906 34.324C62.6026 28.564 62.7586 23.428 62.7586 18.916C62.7586 14.404 62.7466 11.44 62.7226 10.024C65.3626 8.776 68.1106 8.152 70.9666 8.152C73.0786 8.152 74.8426 8.824 76.2586 10.168C77.6986 11.512 78.4186 13.408 78.4186 15.856C78.4186 18.688 76.4146 21.412 72.4066 24.028C74.5906 26.764 76.8226 29.776 79.1026 33.064L75.6466 35.62C74.1346 33.34 71.4226 29.62 67.5106 24.46C67.4386 28.156 67.3306 31.624 67.1866 34.864L62.2906 34.324ZM67.6186 22.012C69.3946 21.172 70.9066 20.14 72.1546 18.916C73.4026 17.668 74.0266 16.54 74.0266 15.532C74.0266 14.524 73.7266 13.744 73.1266 13.192C72.5506 12.64 71.7826 12.364 70.8226 12.364C69.8626 12.364 68.8066 12.568 67.6546 12.976C67.6546 17.032 67.6426 20.044 67.6186 22.012ZM96.9727 8.656L97.0087 25.396C97.0087 28.156 96.9127 31.12 96.7207 34.288L92.6887 33.892C89.5927 26.86 87.0607 21.592 85.0927 18.088C85.1167 21.64 85.1287 27.304 85.1287 35.08L80.9167 34.612C80.8447 33.124 80.8087 31.684 80.8087 30.292C80.8087 24.484 81.1327 17.716 81.7807 9.988L86.5687 10.456C88.9447 17.008 91.0807 21.988 92.9767 25.396C92.8327 18.148 92.6647 12.436 92.4727 8.26L96.9727 8.656ZM111.263 33.64L110.435 28.636L105.071 28.852L103.703 35.62L98.6627 35.188L105.107 9.088L111.767 9.664L116.483 34.072L111.263 33.64ZM108.095 13.804L105.827 25L109.859 24.856L108.095 13.804ZM126.801 13.3C125.745 13.3 124.821 14.608 124.029 17.224C123.237 19.816 122.841 22.12 122.841 24.136C122.841 28.36 123.945 30.472 126.153 30.472C126.777 30.472 127.317 30.208 127.773 29.68C128.253 29.128 128.589 28.564 128.781 27.988C128.997 27.412 129.249 26.62 129.537 25.612L134.109 25.972C133.485 28.924 132.549 31.18 131.301 32.74C130.077 34.3 128.361 35.08 126.153 35.08C123.561 35.08 121.557 34.108 120.141 32.164C118.749 30.196 118.053 27.7 118.053 24.676C118.053 21.148 118.749 17.716 120.141 14.38C120.813 12.724 121.749 11.368 122.949 10.312C124.173 9.232 125.565 8.692 127.125 8.692C129.045 8.692 130.437 9.328 131.301 10.6C131.733 11.224 132.081 11.86 132.345 12.508C132.633 13.156 132.837 13.984 132.957 14.992C133.173 16.6 133.305 18.328 133.353 20.176L128.709 19.744C128.709 16.648 128.421 14.704 127.845 13.912C127.581 13.504 127.233 13.3 126.801 13.3ZM142.872 9.088C142.656 12.88 142.548 17.152 142.548 21.904C142.548 26.656 142.704 30.988 143.016 34.9L138.156 34.468C137.844 29.572 137.688 25.156 137.688 21.22C137.688 17.26 137.796 13.072 138.012 8.656L142.872 9.088ZM154.251 35.224C151.971 35.224 150.039 34.204 148.455 32.164C146.895 30.1 146.115 26.98 146.115 22.804C146.115 18.604 146.967 15.184 148.671 12.544C150.399 9.904 152.427 8.584 154.755 8.584C157.083 8.584 159.015 9.616 160.551 11.68C162.111 13.744 162.891 16.852 162.891 21.004C162.891 25.156 162.027 28.564 160.299 31.228C158.571 33.892 156.555 35.224 154.251 35.224ZM154.791 12.868C153.735 12.868 152.823 13.804 152.055 15.676C151.287 17.524 150.903 19.864 150.903 22.696C150.903 25.504 151.227 27.592 151.875 28.96C152.547 30.304 153.375 30.976 154.359 30.976C155.343 30.976 156.207 30.04 156.951 28.168C157.719 26.296 158.103 23.956 158.103 21.148C158.103 18.316 157.779 16.228 157.131 14.884C156.507 13.54 155.727 12.868 154.791 12.868ZM181.664 8.656L181.7 25.396C181.7 28.156 181.604 31.12 181.412 34.288L177.38 33.892C174.284 26.86 171.752 21.592 169.784 18.088C169.808 21.64 169.82 27.304 169.82 35.08L165.608 34.612C165.536 33.124 165.5 31.684 165.5 30.292C165.5 24.484 165.824 17.716 166.472 9.988L171.26 10.456C173.636 17.008 175.772 21.988 177.668 25.396C177.524 18.148 177.356 12.436 177.164 8.26L181.664 8.656ZM195.954 33.64L195.126 28.636L189.762 28.852L188.394 35.62L183.354 35.188L189.798 9.088L196.458 9.664L201.174 34.072L195.954 33.64ZM192.786 13.804L190.518 25L194.55 24.856L192.786 13.804ZM204.869 33.784C204.557 28.84 204.401 24.316 204.401 20.212C204.401 16.084 204.533 12.34 204.797 8.98L209.585 9.412C209.225 13.54 209.045 17.488 209.045 21.256C209.045 25.024 209.105 27.796 209.225 29.572C210.089 29.452 212.213 29.212 215.597 28.852L216.317 33.028C214.517 33.244 211.973 33.604 208.685 34.108L204.869 33.784ZM218.466 34.144C218.37 30.352 218.322 26.764 218.322 23.38C218.322 19.996 218.514 15.592 218.898 10.168C223.002 9.544 227.01 9.232 230.922 9.232V13.66C228.21 13.66 225.69 13.744 223.362 13.912C223.266 16.6 223.206 18.664 223.182 20.104C225.006 19.84 227.166 19.684 229.662 19.636L230.346 23.596C228.738 23.62 226.326 23.8 223.11 24.136C223.11 27.016 223.122 29.092 223.146 30.364C225.234 30.196 227.73 29.836 230.634 29.284L231.246 33.244C229.206 34.18 226.794 34.648 224.01 34.648L218.466 34.144ZM242.739 18.268C243.051 17.092 243.207 16.108 243.207 15.316C243.207 14.524 242.991 13.876 242.559 13.372C242.127 12.844 241.563 12.58 240.867 12.58C240.195 12.58 239.631 12.916 239.175 13.588C238.719 14.26 238.491 15.028 238.491 15.892C238.491 17.572 239.451 19.012 241.371 20.212C243.291 21.46 244.599 22.36 245.295 22.912C245.991 23.464 246.483 23.968 246.771 24.424C247.491 25.6 247.851 26.812 247.851 28.06C247.851 30.22 247.119 31.948 245.655 33.244C244.215 34.516 242.583 35.152 240.759 35.152C238.599 35.152 236.787 34.24 235.323 32.416C234.267 31.096 233.295 29.452 232.407 27.484L235.899 25.792C236.451 27.232 237.135 28.456 237.951 29.464C238.791 30.448 239.679 30.94 240.615 30.94C241.215 30.94 241.755 30.748 242.235 30.364C242.715 29.98 242.955 29.404 242.955 28.636C242.955 27.844 242.655 27.112 242.055 26.44C241.455 25.768 240.651 25.084 239.643 24.388C238.635 23.692 237.855 23.128 237.303 22.696C236.751 22.24 236.139 21.664 235.467 20.968C234.195 19.624 233.559 17.908 233.559 15.82C233.559 13.708 234.291 11.944 235.755 10.528C237.219 9.088 238.959 8.368 240.975 8.368C242.991 8.368 244.683 9.148 246.051 10.708C247.443 12.268 248.139 13.876 248.139 15.532C248.139 17.164 247.827 18.568 247.203 19.744L242.739 18.268Z" transform="translate(87 77)" fill="#FDCC01"/>
<path d="M8.78217 13.764C9.02484 12.8493 9.14617 12.084 9.14617 11.468C9.14617 10.852 8.97817 10.348 8.64217 9.956C8.30617 9.54533 7.86751 9.34 7.32617 9.34C6.80351 9.34 6.36484 9.60133 6.01017 10.124C5.65551 10.6467 5.47817 11.244 5.47817 11.916C5.47817 13.2227 6.22484 14.3427 7.71817 15.276C9.21151 16.2467 10.2288 16.9467 10.7702 17.376C11.3115 17.8053 11.6942 18.1973 11.9182 18.552C12.4782 19.4667 12.7582 20.4093 12.7582 21.38C12.7582 23.06 12.1888 24.404 11.0502 25.412C9.93017 26.4013 8.66084 26.896 7.24217 26.896C5.56217 26.896 4.15284 26.1867 3.01417 24.768C2.19284 23.7413 1.43684 22.4627 0.746172 20.932L3.46217 19.616C3.89151 20.736 4.42351 21.688 5.05817 22.472C5.71151 23.2373 6.40217 23.62 7.13017 23.62C7.59684 23.62 8.01684 23.4707 8.39017 23.172C8.76351 22.8733 8.95017 22.4253 8.95017 21.828C8.95017 21.212 8.71684 20.6427 8.25017 20.12C7.7835 19.5973 7.15817 19.0653 6.37417 18.524C5.59017 17.9827 4.98351 17.544 4.55417 17.208C4.12484 16.8533 3.64884 16.4053 3.12617 15.864C2.13684 14.8187 1.64217 13.484 1.64217 11.86C1.64217 10.2173 2.21151 8.84533 3.35017 7.744C4.48884 6.624 5.84217 6.064 7.41017 6.064C8.97817 6.064 10.2942 6.67067 11.3582 7.884C12.4408 9.09733 12.9822 10.348 12.9822 11.636C12.9822 12.9053 12.7395 13.9973 12.2542 14.912L8.78217 13.764ZM24.1992 12.868L24.1432 17.292C24.1432 21.4547 24.2179 24.516 24.3672 26.476L21.5952 26.196C21.5392 25.412 21.4179 24.6187 21.2312 23.816C20.2046 25.328 19.1686 26.084 18.1232 26.084C17.0966 26.084 16.2752 25.7293 15.6592 25.02C15.0432 24.3107 14.7352 23.3307 14.7352 22.08C14.7352 19.6533 14.9126 16.76 15.2672 13.4L18.5152 13.708C18.1792 16.9 18.0112 19.5507 18.0112 21.66C18.0112 22.612 18.3099 23.088 18.9072 23.088C19.1872 23.088 19.5232 22.7053 19.9152 21.94C20.3259 21.1747 20.6526 20.2507 20.8952 19.168C20.8766 18.7573 20.8672 18.272 20.8672 17.712C20.8672 17.152 20.8952 15.444 20.9512 12.588L24.1992 12.868ZM31.869 18.832C31.9064 18.5707 31.925 18.2347 31.925 17.824C31.925 17.4133 31.841 16.9933 31.673 16.564C31.505 16.1347 31.2904 15.92 31.029 15.92C30.5064 15.92 30.1237 16.5267 29.881 17.74C29.657 18.9347 29.545 20.036 29.545 21.044C29.545 22.7427 29.8904 23.592 30.581 23.592C31.141 23.592 31.9344 22.612 32.961 20.652L35.033 22.136C34.529 23.4987 33.8944 24.5813 33.129 25.384C32.3824 26.1867 31.477 26.588 30.413 26.588C29.349 26.588 28.3877 26.168 27.529 25.328C26.689 24.488 26.269 23.2093 26.269 21.492C26.269 19.6627 26.5677 17.8427 27.165 16.032C27.501 15.0427 27.9957 14.2307 28.649 13.596C29.321 12.9613 30.1704 12.644 31.197 12.644C32.2237 12.644 33.073 13.1667 33.745 14.212C34.4357 15.2573 34.781 16.4147 34.781 17.684C34.781 18.2253 34.697 18.692 34.529 19.084L31.869 18.832ZM45.8555 12.868L45.7995 17.292C45.7995 21.4547 45.8742 24.516 46.0235 26.476L43.2515 26.196C43.1955 25.412 43.0742 24.6187 42.8875 23.816C41.8608 25.328 40.8248 26.084 39.7795 26.084C38.7528 26.084 37.9315 25.7293 37.3155 25.02C36.6995 24.3107 36.3915 23.3307 36.3915 22.08C36.3915 19.6533 36.5688 16.76 36.9235 13.4L40.1715 13.708C39.8355 16.9 39.6675 19.5507 39.6675 21.66C39.6675 22.612 39.9662 23.088 40.5635 23.088C40.8435 23.088 41.1795 22.7053 41.5715 21.94C41.9822 21.1747 42.3088 20.2507 42.5515 19.168C42.5328 18.7573 42.5235 18.272 42.5235 17.712C42.5235 17.152 42.5515 15.444 42.6075 12.588L45.8555 12.868ZM53.7213 15.892C52.9373 15.892 52.3493 16.8813 51.9573 18.86C51.9946 20.1667 52.0133 21.4173 52.0133 22.612C52.0133 23.8067 51.976 25.1507 51.9013 26.644L48.6533 26.364C48.7093 23.62 48.7373 22.108 48.7373 21.828C48.7373 18.3747 48.5693 15.7333 48.2333 13.904L50.3333 14.128C50.464 14.6693 50.6133 15.1453 50.7813 15.556C51.696 13.596 52.62 12.616 53.5533 12.616C54.3186 12.616 54.9906 12.952 55.5693 13.624L54.8413 16.2C54.5426 15.9947 54.1693 15.892 53.7213 15.892ZM62.0872 17.18C62.0872 16.06 61.8072 15.5 61.2472 15.5C60.9672 15.5 60.7058 15.64 60.4632 15.92C60.2392 16.1813 60.1272 16.5453 60.1272 17.012C60.1272 17.46 60.2112 17.8333 60.3792 18.132C60.5658 18.4307 60.8925 18.7293 61.3592 19.028C61.8445 19.308 62.2178 19.5413 62.4792 19.728C62.7592 19.896 63.0858 20.1387 63.4592 20.456C64.2245 21.128 64.6072 21.996 64.6072 23.06C64.6072 24.1053 64.2058 24.9547 63.4032 25.608C62.6192 26.2613 61.7325 26.588 60.7432 26.588C59.7538 26.588 58.8578 26.3267 58.0552 25.804C57.2712 25.2627 56.6365 24.5907 56.1512 23.788L57.6632 22.08C58.4098 23.368 59.1938 24.012 60.0152 24.012C60.2952 24.012 60.5378 23.9373 60.7432 23.788C60.9485 23.62 61.0512 23.396 61.0512 23.116C61.0512 22.5187 60.6218 21.968 59.7632 21.464C58.8485 20.96 58.1298 20.4 57.6072 19.784C57.0845 19.168 56.8232 18.3 56.8232 17.18C56.8232 16.0413 57.2898 15.024 58.2232 14.128C59.1565 13.2133 60.1552 12.756 61.2192 12.756C62.3018 12.756 63.1512 13.1293 63.7672 13.876C64.4018 14.604 64.7192 15.5933 64.7192 16.844C64.7192 17.348 64.6632 17.8893 64.5512 18.468L62.0032 18.244C62.0592 17.8147 62.0872 17.46 62.0872 17.18ZM66.4462 17.74C66.7262 16.284 67.2582 15.052 68.0422 14.044C68.8262 13.0173 69.8529 12.504 71.1222 12.504C72.3915 12.504 73.3249 13.036 73.9222 14.1C74.5382 15.1453 74.8462 16.6387 74.8462 18.58C74.8462 20.5213 74.7342 23.2 74.5102 26.616L72.1582 26.42L71.9342 25.524C71.0569 26.028 70.1609 26.28 69.2462 26.28C68.3315 26.28 67.5755 25.9813 66.9782 25.384C66.3809 24.768 66.0822 23.8907 66.0822 22.752C66.0822 21.6133 66.6422 20.6333 67.7622 19.812C68.9009 18.9907 70.2075 18.5613 71.6822 18.524V17.768C71.6822 16.2933 71.3275 15.556 70.6182 15.556C70.2635 15.556 69.9369 15.808 69.6382 16.312C69.3582 16.7973 69.1529 17.3573 69.0222 17.992L66.4462 17.74ZM68.9382 22.92C68.9382 23.5173 69.2929 23.816 70.0022 23.816C70.4875 23.816 71.0009 23.704 71.5422 23.48L71.5982 21.128C70.7209 21.2027 70.0582 21.4267 69.6102 21.8C69.1622 22.1547 68.9382 22.528 68.9382 22.92ZM81.5564 5.784C81.2764 10.5067 81.1364 14.7627 81.1364 18.552C81.1364 22.3413 81.183 25.0013 81.2764 26.532L77.9724 26.224C77.8977 24.2827 77.8604 21.5293 77.8604 17.964C77.8604 14.38 78.0004 10.236 78.2804 5.532L81.5564 5.784ZM87.8375 23.984C88.5469 23.984 89.3029 23.3027 90.1055 21.94L92.2335 23.2C91.8789 23.816 91.5335 24.3387 91.1975 24.768C90.8802 25.1973 90.3949 25.608 89.7415 26C89.0882 26.392 88.3602 26.588 87.5575 26.588C86.3815 26.588 85.3922 26.0933 84.5895 25.104C83.7869 24.096 83.3855 22.7427 83.3855 21.044C83.3855 19.1027 83.7309 17.292 84.4215 15.612C84.7949 14.7347 85.3269 14.0253 86.0175 13.484C86.7269 12.924 87.4455 12.644 88.1735 12.644C88.9202 12.644 89.5175 12.7653 89.9655 13.008C90.4135 13.232 90.7682 13.4933 91.0295 13.792C91.3095 14.072 91.5522 14.492 91.7575 15.052C91.9629 15.612 92.1029 16.0693 92.1775 16.424C92.2709 16.7787 92.3455 17.292 92.4015 17.964C92.4762 18.86 92.5135 19.672 92.5135 20.4C91.0202 20.8107 89.0882 21.184 86.7175 21.52C86.7735 22.2667 86.9042 22.864 87.1095 23.312C87.3149 23.76 87.5575 23.984 87.8375 23.984ZM88.4535 15.388C88.0429 15.388 87.6695 15.7987 87.3335 16.62C87.0162 17.4413 86.8295 18.3933 86.7735 19.476C87.7629 19.2707 88.6215 19.0747 89.3495 18.888C89.3495 16.5547 89.0509 15.388 88.4535 15.388ZM99.6028 17.18C99.6028 16.06 99.3228 15.5 98.7628 15.5C98.4828 15.5 98.2215 15.64 97.9788 15.92C97.7548 16.1813 97.6428 16.5453 97.6428 17.012C97.6428 17.46 97.7268 17.8333 97.8948 18.132C98.0815 18.4307 98.4081 18.7293 98.8748 19.028C99.3601 19.308 99.7335 19.5413 99.9948 19.728C100.275 19.896 100.601 20.1387 100.975 20.456C101.74 21.128 102.123 21.996 102.123 23.06C102.123 24.1053 101.721 24.9547 100.919 25.608C100.135 26.2613 99.2481 26.588 98.2588 26.588C97.2695 26.588 96.3735 26.3267 95.5708 25.804C94.7868 25.2627 94.1521 24.5907 93.6668 23.788L95.1788 22.08C95.9255 23.368 96.7095 24.012 97.5308 24.012C97.8108 24.012 98.0535 23.9373 98.2588 23.788C98.4641 23.62 98.5668 23.396 98.5668 23.116C98.5668 22.5187 98.1375 21.968 97.2788 21.464C96.3641 20.96 95.6455 20.4 95.1228 19.784C94.6001 19.168 94.3388 18.3 94.3388 17.18C94.3388 16.0413 94.8055 15.024 95.7388 14.128C96.6721 13.2133 97.6708 12.756 98.7348 12.756C99.8175 12.756 100.667 13.1293 101.283 13.876C101.917 14.604 102.235 15.5933 102.235 16.844C102.235 17.348 102.179 17.8893 102.067 18.468L99.5188 18.244C99.5748 17.8147 99.6028 17.46 99.6028 17.18Z" transform="translate(115 51)" fill="white"/>
<defs>
<filter id="filter0_d" x="0.0766602" y="0.776367" width="419.357" height="200.787" filterUnits="userSpaceOnUse" color-interpolation-filters="sRGB">
<feFlood flood-opacity="0" result="BackgroundImageFix"/>
<feColorMatrix in="SourceAlpha" type="matrix" values="0 0 0 0 0 0 0 0 0 0 0 0 0 0 0 0 0 0 255 0"/>
<feOffset dy="20"/>
<feGaussianBlur stdDeviation="20"/>
<feColorMatrix type="matrix" values="0 0 0 0 0 0 0 0 0 0 0 0 0 0 0 0 0 0 0.1 0"/>
<feBlend mode="normal" in2="BackgroundImageFix" result="effect1_dropShadow"/>
<feBlend mode="normal" in="SourceGraphic" in2="effect1_dropShadow" result="shape"/>
</filter>
</defs>
</svg>
