<svg width="398" height="227" viewBox="0 0 398 227" fill="none" xmlns="http://www.w3.org/2000/svg">
<g filter="url(#filter0_d)">
<path d="M41.4677 33.2255C46.0434 20.939 57.4585 12.5266 70.5488 11.794L258.934 1.25077C272.428 0.495592 285.018 8.04423 290.709 20.302L327.989 100.593C338.203 122.593 321.989 147.726 297.734 147.488L47.0089 145.034C24.1379 144.81 8.42446 121.953 16.4068 100.519L41.4677 33.2255Z" transform="translate(26 19)" fill="#10327B"/>
</g>
<path d="M1.01966 8.88L5.40566 9.288C6.267 14.932 7.34366 20.3607 8.63566 25.574L8.77166 25.54C10.3583 19.4427 11.639 13.4813 12.6137 7.656L17.1017 8.03C15.583 15.8273 13.3277 23.8853 10.3357 32.204L6.42566 31.864C4.11366 23.6813 2.31166 16.02 1.01966 8.88ZM16.7779 21.97C17.1179 20.202 17.7639 18.706 18.7159 17.482C19.6679 16.2353 20.9145 15.612 22.4559 15.612C23.9972 15.612 25.1305 16.258 25.8559 17.55C26.6039 18.8193 26.9779 20.6327 26.9779 22.99C26.9779 25.3473 26.8419 28.6 26.5699 32.748L23.7139 32.51L23.4419 31.422C22.3765 32.034 21.2885 32.34 20.1779 32.34C19.0672 32.34 18.1492 31.9773 17.4239 31.252C16.6985 30.504 16.3359 29.4387 16.3359 28.056C16.3359 26.6733 17.0159 25.4833 18.3759 24.486C19.7585 23.4887 21.3452 22.9673 23.1359 22.922V22.004C23.1359 20.2133 22.7052 19.318 21.8439 19.318C21.4132 19.318 21.0165 19.624 20.6539 20.236C20.3139 20.8253 20.0645 21.5053 19.9059 22.276L16.7779 21.97ZM19.8039 28.26C19.8039 28.9853 20.2345 29.348 21.0959 29.348C21.6852 29.348 22.3085 29.212 22.9659 28.94L23.0339 26.084C21.9685 26.1747 21.1639 26.4467 20.6199 26.9C20.0759 27.3307 19.8039 27.784 19.8039 28.26ZM35.1259 7.452C34.7859 13.1867 34.6159 18.3547 34.6159 22.956C34.6159 27.5573 34.6726 30.7873 34.7859 32.646L30.7739 32.272C30.6832 29.9147 30.6379 26.5713 30.6379 22.242C30.6379 17.89 30.8079 12.858 31.1479 7.146L35.1259 7.452ZM41.2911 25.88C41.2911 28.4413 41.8577 29.722 42.9911 29.722C43.4897 29.722 43.9091 29.008 44.2491 27.58C44.5891 26.1293 44.7591 24.7467 44.7591 23.432C44.7591 20.5307 44.2831 19.08 43.3311 19.08C42.7191 19.08 42.2204 19.862 41.8351 21.426C41.4724 22.9673 41.2911 24.452 41.2911 25.88ZM37.3131 25.574C37.3131 23.466 37.7437 21.4033 38.6051 19.386C39.0584 18.366 39.6931 17.5387 40.5091 16.904C41.3477 16.2467 42.2771 15.918 43.2971 15.918C44.3171 15.918 45.1897 16.156 45.9151 16.632C46.6631 17.0853 47.2297 17.6973 47.6151 18.468C48.3631 19.9867 48.7371 21.6413 48.7371 23.432C48.7371 25.9027 48.2271 28.1013 47.2071 30.028C46.2097 31.932 44.8044 32.884 42.9911 32.884C39.2057 32.884 37.3131 30.4473 37.3131 25.574ZM57.1406 19.726C56.1886 19.726 55.4746 20.9273 54.9986 23.33C55.044 24.9167 55.0666 26.4353 55.0666 27.886C55.0666 29.3367 55.0213 30.9687 54.9306 32.782L50.9866 32.442C51.0546 29.11 51.0886 27.274 51.0886 26.934C51.0886 22.7407 50.8846 19.5333 50.4766 17.312L53.0266 17.584C53.1853 18.2413 53.3666 18.8193 53.5706 19.318C54.6813 16.938 55.8033 15.748 56.9366 15.748C57.866 15.748 58.682 16.156 59.3846 16.972L58.5006 20.1C58.138 19.8507 57.6846 19.726 57.1406 19.726ZM65.4972 29.552C66.3585 29.552 67.2765 28.7247 68.2512 27.07L70.8352 28.6C70.4045 29.348 69.9852 29.9827 69.5772 30.504C69.1919 31.0253 68.6025 31.524 67.8092 32C67.0159 32.476 66.1319 32.714 65.1572 32.714C63.7292 32.714 62.5279 32.1133 61.5532 30.912C60.5785 29.688 60.0912 28.0447 60.0912 25.982C60.0912 23.6247 60.5105 21.426 61.3492 19.386C61.8025 18.3207 62.4485 17.4593 63.2872 16.802C64.1485 16.122 65.0212 15.782 65.9052 15.782C66.8119 15.782 67.5372 15.9293 68.0812 16.224C68.6252 16.496 69.0559 16.8133 69.3732 17.176C69.7132 17.516 70.0079 18.026 70.2572 18.706C70.5065 19.386 70.6765 19.9413 70.7672 20.372C70.8805 20.8027 70.9712 21.426 71.0392 22.242C71.1299 23.33 71.1752 24.316 71.1752 25.2C69.3619 25.6987 67.0159 26.152 64.1372 26.56C64.2052 27.4667 64.3639 28.192 64.6132 28.736C64.8625 29.28 65.1572 29.552 65.4972 29.552ZM66.2452 19.114C65.7465 19.114 65.2932 19.6127 64.8852 20.61C64.4999 21.6073 64.2732 22.7633 64.2052 24.078C65.4065 23.8287 66.4492 23.5907 67.3332 23.364C67.3332 20.5307 66.9705 19.114 66.2452 19.114ZM79.7836 21.29C79.7836 19.93 79.4436 19.25 78.7636 19.25C78.4236 19.25 78.1063 19.42 77.8116 19.76C77.5396 20.0773 77.4036 20.5193 77.4036 21.086C77.4036 21.63 77.5056 22.0833 77.7096 22.446C77.9363 22.8087 78.3329 23.1713 78.8996 23.534C79.4889 23.874 79.9423 24.1573 80.2596 24.384C80.5996 24.588 80.9963 24.8827 81.4496 25.268C82.3789 26.084 82.8436 27.138 82.8436 28.43C82.8436 29.6993 82.3563 30.7307 81.3816 31.524C80.4296 32.3173 79.3529 32.714 78.1516 32.714C76.9503 32.714 75.8623 32.3967 74.8876 31.762C73.9356 31.1047 73.1649 30.2887 72.5756 29.314L74.4116 27.24C75.3183 28.804 76.2703 29.586 77.2676 29.586C77.6076 29.586 77.9023 29.4953 78.1516 29.314C78.4009 29.11 78.5256 28.838 78.5256 28.498C78.5256 27.7727 78.0043 27.104 76.9616 26.492C75.8509 25.88 74.9783 25.2 74.3436 24.452C73.7089 23.704 73.3916 22.65 73.3916 21.29C73.3916 19.9073 73.9583 18.672 75.0916 17.584C76.2249 16.4733 77.4376 15.918 78.7296 15.918C80.0443 15.918 81.0756 16.3713 81.8236 17.278C82.5943 18.162 82.9796 19.3633 82.9796 20.882C82.9796 21.494 82.9116 22.1513 82.7756 22.854L79.6816 22.582C79.7496 22.0607 79.7836 21.63 79.7836 21.29ZM100.247 16.598L100.281 12.382C100.281 10.818 100.247 9.03867 100.179 7.044L104.157 7.384C104.202 8.99333 104.225 11.9173 104.225 16.156C104.225 20.372 104.044 25.812 103.681 32.476L100.655 32.204C100.587 31.2973 100.519 30.232 100.451 29.008C99.4764 30.9573 98.4224 31.932 97.2891 31.932C95.5437 31.932 94.3311 31.388 93.6511 30.3C92.9711 29.212 92.6311 27.6367 92.6311 25.574C92.6311 23.4887 93.0731 21.3353 93.9571 19.114C94.8637 16.8927 95.8837 15.782 97.0171 15.782C98.0371 15.782 99.1137 16.054 100.247 16.598ZM100.349 19.76C99.7824 19.3293 99.2157 19.114 98.6491 19.114C98.1051 19.114 97.6291 19.8507 97.2211 21.324C96.8131 22.7747 96.6091 24.2933 96.6091 25.88C96.6091 27.4667 96.9944 28.26 97.7651 28.26C98.0597 28.26 98.4564 27.7727 98.9551 26.798C99.4537 25.8007 99.9071 24.5427 100.315 23.024L100.349 19.76ZM111.948 29.552C112.81 29.552 113.728 28.7247 114.702 27.07L117.286 28.6C116.856 29.348 116.436 29.9827 116.028 30.504C115.643 31.0253 115.054 31.524 114.26 32C113.467 32.476 112.583 32.714 111.608 32.714C110.18 32.714 108.979 32.1133 108.004 30.912C107.03 29.688 106.542 28.0447 106.542 25.982C106.542 23.6247 106.962 21.426 107.8 19.386C108.254 18.3207 108.9 17.4593 109.738 16.802C110.6 16.122 111.472 15.782 112.356 15.782C113.263 15.782 113.988 15.9293 114.532 16.224C115.076 16.496 115.507 16.8133 115.824 17.176C116.164 17.516 116.459 18.026 116.708 18.706C116.958 19.386 117.128 19.9413 117.218 20.372C117.332 20.8027 117.422 21.426 117.49 22.242C117.581 23.33 117.626 24.316 117.626 25.2C115.813 25.6987 113.467 26.152 110.588 26.56C110.656 27.4667 110.815 28.192 111.064 28.736C111.314 29.28 111.608 29.552 111.948 29.552ZM112.696 19.114C112.198 19.114 111.744 19.6127 111.336 20.61C110.951 21.6073 110.724 22.7633 110.656 24.078C111.858 23.8287 112.9 23.5907 113.784 23.364C113.784 20.5307 113.422 19.114 112.696 19.114ZM133.075 7.452C132.735 13.1867 132.565 18.3547 132.565 22.956C132.565 27.5573 132.622 30.7873 132.735 32.646L128.723 32.272C128.632 29.9147 128.587 26.5713 128.587 22.242C128.587 17.89 128.757 12.858 129.097 7.146L133.075 7.452ZM136.01 21.97C136.35 20.202 136.996 18.706 137.948 17.482C138.9 16.2353 140.147 15.612 141.688 15.612C143.23 15.612 144.363 16.258 145.088 17.55C145.836 18.8193 146.21 20.6327 146.21 22.99C146.21 25.3473 146.074 28.6 145.802 32.748L142.946 32.51L142.674 31.422C141.609 32.034 140.521 32.34 139.41 32.34C138.3 32.34 137.382 31.9773 136.656 31.252C135.931 30.504 135.568 29.4387 135.568 28.056C135.568 26.6733 136.248 25.4833 137.608 24.486C138.991 23.4887 140.578 22.9673 142.368 22.922V22.004C142.368 20.2133 141.938 19.318 141.076 19.318C140.646 19.318 140.249 19.624 139.886 20.236C139.546 20.8253 139.297 21.5053 139.138 22.276L136.01 21.97ZM139.036 28.26C139.036 28.9853 139.467 29.348 140.328 29.348C140.918 29.348 141.541 29.212 142.198 28.94L142.266 26.084C141.201 26.1747 140.396 26.4467 139.852 26.9C139.308 27.3307 139.036 27.784 139.036 28.26Z" transform="translate(114 50)" fill="white"/>
<path d="M4.05215 50.212C3.91082 44.6293 3.84015 39.347 3.84015 34.365C3.84015 29.383 4.12282 22.8993 4.68815 14.914C10.7301 13.9953 16.6308 13.536 22.3901 13.536V20.055C18.3975 20.055 14.6875 20.1787 11.2601 20.426C11.1188 24.3833 11.0305 27.422 10.9951 29.542C13.6805 29.1533 16.8605 28.9237 20.5351 28.853L21.5421 34.683C19.1748 34.7183 15.6238 34.9833 10.8891 35.478C10.8891 39.718 10.9068 42.7743 10.9421 44.647C14.0161 44.3997 17.6908 43.8697 21.9661 43.057L22.8671 48.887C19.8638 50.265 16.3128 50.954 12.2141 50.954L4.05215 50.212ZM26.7502 50.318C26.4676 41.1313 26.3262 34.206 26.3262 29.542C26.3262 24.878 26.6266 19.896 27.2272 14.596L37.1912 15.391C38.4279 19.843 39.7352 26.0793 41.1132 34.1C43.0919 27.634 44.8409 20.638 46.3602 13.112L56.3772 14.013C56.6599 24.931 56.8012 32.9163 56.8012 37.969C56.8012 42.9863 56.6422 47.456 56.3242 51.378L49.0632 50.689C49.5226 46.237 49.9112 36.803 50.2292 22.387L49.8052 22.334C49.4519 23.712 48.8866 26.0793 48.1092 29.436C46.4839 36.3967 44.9116 42.3327 43.3922 47.244L38.5692 46.82C37.7212 43.428 36.7319 39.0467 35.6012 33.676C34.5059 28.27 33.6579 24.295 33.0572 21.751L32.6332 21.698C32.9512 33.4993 33.3222 43.2513 33.7462 50.954L26.7502 50.318ZM61.9099 50.901C61.7686 46.9083 61.6979 42.1207 61.6979 36.538C61.6979 30.92 61.8746 23.4293 62.2279 14.066C65.1959 12.9707 68.2346 12.423 71.3439 12.423C74.4886 12.423 77.2799 13.589 79.7179 15.921C82.1913 18.2177 83.4279 21.1327 83.4279 24.666C83.4279 28.164 82.0853 31.2027 79.3999 33.782C76.7499 36.326 73.2696 38.1987 68.9589 39.4C68.9589 43.3573 69.0119 47.4207 69.1179 51.59L61.9099 50.901ZM74.2059 30.019C75.5133 28.4997 76.1669 26.8037 76.1669 24.931C76.1669 23.0583 75.6723 21.539 74.6829 20.373C73.7289 19.207 72.6513 18.624 71.4499 18.624C71.1319 18.624 70.4076 18.7123 69.2769 18.889C69.1003 23.871 68.9943 28.694 68.9589 33.358C71.1849 32.6513 72.9339 31.5383 74.2059 30.019ZM86.1756 50.477C86.635 41.997 86.8646 34.4357 86.8646 27.793C86.8646 21.1503 86.847 16.7867 86.8116 14.702C90.6983 12.8647 94.744 11.946 98.9486 11.946C102.058 11.946 104.655 12.9353 106.74 14.914C108.86 16.8927 109.92 19.684 109.92 23.288C109.92 27.4573 106.969 31.4677 101.069 35.319C104.284 39.347 107.57 43.7813 110.927 48.622L105.839 52.385C103.613 49.0283 99.62 43.5517 93.8606 35.955C93.7546 41.3963 93.5956 46.502 93.3836 51.272L86.1756 50.477ZM94.0196 32.351C96.6343 31.1143 98.8603 29.595 100.698 27.793C102.535 25.9557 103.454 24.295 103.454 22.811C103.454 21.327 103.012 20.1787 102.129 19.366C101.281 18.5533 100.15 18.147 98.7366 18.147C97.3233 18.147 95.7686 18.4473 94.0726 19.048C94.0726 25.0193 94.055 29.4537 94.0196 32.351ZM114.71 50.212C114.569 44.6293 114.498 39.347 114.498 34.365C114.498 29.383 114.781 22.8993 115.346 14.914C121.388 13.9953 127.289 13.536 133.048 13.536V20.055C129.056 20.055 125.346 20.1787 121.918 20.426C121.777 24.3833 121.689 27.422 121.653 29.542C124.339 29.1533 127.519 28.9237 131.193 28.853L132.2 34.683C129.833 34.7183 126.282 34.9833 121.547 35.478C121.547 39.718 121.565 42.7743 121.6 44.647C124.674 44.3997 128.349 43.8697 132.624 43.057L133.525 48.887C130.522 50.265 126.971 50.954 122.872 50.954L114.71 50.212ZM150.446 26.839C150.906 25.1077 151.135 23.659 151.135 22.493C151.135 21.327 150.817 20.373 150.181 19.631C149.545 18.8537 148.715 18.465 147.69 18.465C146.701 18.465 145.871 18.9597 145.199 19.949C144.528 20.9383 144.192 22.069 144.192 23.341C144.192 25.8143 145.606 27.9343 148.432 29.701C151.259 31.5383 153.185 32.8633 154.209 33.676C155.234 34.4887 155.958 35.2307 156.382 35.902C157.442 37.6333 157.972 39.4177 157.972 41.255C157.972 44.435 156.895 46.979 154.739 48.887C152.619 50.7597 150.217 51.696 147.531 51.696C144.351 51.696 141.684 50.3533 139.528 47.668C137.974 45.7247 136.543 43.3043 135.235 40.407L140.376 37.916C141.189 40.036 142.196 41.838 143.397 43.322C144.634 44.7707 145.941 45.495 147.319 45.495C148.203 45.495 148.998 45.2123 149.704 44.647C150.411 44.0817 150.764 43.2337 150.764 42.103C150.764 40.937 150.323 39.8593 149.439 38.87C148.556 37.8807 147.372 36.8737 145.888 35.849C144.404 34.8243 143.256 33.994 142.443 33.358C141.631 32.6867 140.73 31.8387 139.74 30.814C137.868 28.8353 136.931 26.309 136.931 23.235C136.931 20.1257 138.009 17.5287 140.164 15.444C142.32 13.324 144.881 12.264 147.849 12.264C150.817 12.264 153.308 13.4123 155.322 15.709C157.372 18.0057 158.396 20.373 158.396 22.811C158.396 25.2137 157.937 27.2807 157.018 29.012L150.446 26.839ZM178.304 49.47L177.085 42.103L169.188 42.421L167.174 52.385L159.754 51.749L169.241 13.324L179.046 14.172L185.989 50.106L178.304 49.47ZM173.64 20.267L170.301 36.75L176.237 36.538L173.64 20.267Z" transform="translate(108 79)" fill="#FDCC01"/>
<defs>
<filter id="filter0_d" x="0.302979" y="0.19873" width="396.795" height="226.291" filterUnits="userSpaceOnUse" color-interpolation-filters="sRGB">
<feFlood flood-opacity="0" result="BackgroundImageFix"/>
<feColorMatrix in="SourceAlpha" type="matrix" values="0 0 0 0 0 0 0 0 0 0 0 0 0 0 0 0 0 0 255 0"/>
<feOffset dy="20"/>
<feGaussianBlur stdDeviation="20"/>
<feColorMatrix type="matrix" values="0 0 0 0 0 0 0 0 0 0 0 0 0 0 0 0 0 0 0.1 0"/>
<feBlend mode="normal" in2="BackgroundImageFix" result="effect1_dropShadow"/>
<feBlend mode="normal" in="SourceGraphic" in2="effect1_dropShadow" result="shape"/>
</filter>
</defs>
</svg>
