<svg width="308" height="170" viewBox="0 0 308 170" fill="none" xmlns="http://www.w3.org/2000/svg">
<g filter="url(#filter0_d)">
<path d="M21.9253 18.6304C25.2151 7.7716 35.6598 0.700203 46.9638 1.67856L208.028 15.6186C218.267 16.5048 226.805 23.811 229.262 33.7894L234.844 56.4492C238.516 71.3587 227.436 85.8341 212.085 86.1828L33.1194 90.2477C16.7913 90.6186 4.86987 74.9258 9.60538 59.2952L21.9253 18.6304Z" transform="translate(32 19)" fill="#10327B"/>
</g>
<path d="M1.09928 11.12L6.38828 11.612C7.42695 18.418 8.72528 24.9643 10.2833 31.251L10.4473 31.21C12.3606 23.8573 13.9049 16.6687 15.0803 9.644L20.4923 10.095C18.6609 19.4977 15.9413 29.2147 12.3333 39.246L7.61828 38.836C4.83028 28.9687 2.65728 19.73 1.09928 11.12ZM22.5263 19.443L27.2003 19.894V39.574L22.5263 39.123V19.443ZM22.8543 12.227L27.4463 12.76L27.0363 17.352L22.4443 16.778L22.8543 12.227ZM39.1037 26.085C39.1037 24.445 38.6937 23.625 37.8737 23.625C37.4637 23.625 37.0811 23.83 36.7257 24.24C36.3977 24.6227 36.2337 25.1557 36.2337 25.839C36.2337 26.495 36.3567 27.0417 36.6027 27.479C36.8761 27.9163 37.3544 28.3537 38.0377 28.791C38.7484 29.201 39.2951 29.5427 39.6777 29.816C40.0877 30.062 40.5661 30.4173 41.1127 30.882C42.2334 31.866 42.7937 33.137 42.7937 34.695C42.7937 36.2257 42.2061 37.4693 41.0307 38.426C39.8827 39.3827 38.5844 39.861 37.1357 39.861C35.6871 39.861 34.3751 39.4783 33.1997 38.713C32.0517 37.9203 31.1224 36.9363 30.4117 35.761L32.6257 33.26C33.7191 35.146 34.8671 36.089 36.0697 36.089C36.4797 36.089 36.8351 35.9797 37.1357 35.761C37.4364 35.515 37.5867 35.187 37.5867 34.777C37.5867 33.9023 36.9581 33.096 35.7007 32.358C34.3614 31.62 33.3091 30.8 32.5437 29.898C31.7784 28.996 31.3957 27.725 31.3957 26.085C31.3957 24.4177 32.0791 22.928 33.4457 21.616C34.8124 20.2767 36.2747 19.607 37.8327 19.607C39.4181 19.607 40.6617 20.1537 41.5637 21.247C42.4931 22.313 42.9577 23.7617 42.9577 25.593C42.9577 26.331 42.8757 27.1237 42.7117 27.971L38.9807 27.643C39.0627 27.0143 39.1037 26.495 39.1037 26.085ZM46.4296 19.443L51.1036 19.894V39.574L46.4296 39.123V19.443ZM46.7576 12.227L51.3496 12.76L50.9396 17.352L46.3476 16.778L46.7576 12.227ZM59.071 31.62C59.071 34.7087 59.7544 36.253 61.121 36.253C61.7224 36.253 62.228 35.392 62.638 33.67C63.048 31.9207 63.253 30.2533 63.253 28.668C63.253 25.1693 62.679 23.42 61.531 23.42C60.793 23.42 60.1917 24.363 59.727 26.249C59.2897 28.1077 59.071 29.898 59.071 31.62ZM54.274 31.251C54.274 28.709 54.7934 26.2217 55.832 23.789C56.3787 22.559 57.144 21.5613 58.128 20.796C59.1394 20.0033 60.26 19.607 61.49 19.607C62.72 19.607 63.7724 19.894 64.647 20.468C65.549 21.0147 66.2324 21.7527 66.697 22.682C67.599 24.5133 68.05 26.5087 68.05 28.668C68.05 31.6473 67.435 34.2987 66.205 36.622C65.0024 38.918 63.3077 40.066 61.121 40.066C56.5564 40.066 54.274 37.1277 54.274 31.251ZM60.424 17.885L58.579 15.548C61.6677 13.5253 64.1824 12.0903 66.123 11.243L68.337 14.892C65.7404 15.5207 63.1027 16.5183 60.424 17.885ZM78.9218 19.484C82.5298 19.484 84.3338 22.4907 84.3338 28.504C84.3338 31.6747 84.1561 35.0367 83.8008 38.59L79.0038 38.139C79.3044 35.023 79.4548 31.8797 79.4548 28.709C79.4548 25.511 79.0038 23.912 78.1018 23.912C77.6644 23.912 77.1041 25.019 76.4208 27.233C75.7374 29.4197 75.3138 31.5653 75.1498 33.67C75.2044 34.7907 75.3138 36.8133 75.4778 39.738L70.6808 39.287C70.3801 35.433 70.2298 32.0437 70.2298 29.119C70.2298 26.1943 70.3118 23.5703 70.4758 21.247L73.5098 21.575C73.5644 21.7937 73.7694 22.682 74.1248 24.24C75.7101 21.0693 77.3091 19.484 78.9218 19.484Z" transform="translate(110 40)" fill="#FDCC01"/>
<defs>
<filter id="filter0_d" x="0.557373" y="0.588379" width="306.994" height="168.666" filterUnits="userSpaceOnUse" color-interpolation-filters="sRGB">
<feFlood flood-opacity="0" result="BackgroundImageFix"/>
<feColorMatrix in="SourceAlpha" type="matrix" values="0 0 0 0 0 0 0 0 0 0 0 0 0 0 0 0 0 0 255 0"/>
<feOffset dy="20"/>
<feGaussianBlur stdDeviation="20"/>
<feColorMatrix type="matrix" values="0 0 0 0 0 0 0 0 0 0 0 0 0 0 0 0 0 0 0.1 0"/>
<feBlend mode="normal" in2="BackgroundImageFix" result="effect1_dropShadow"/>
<feBlend mode="normal" in="SourceGraphic" in2="effect1_dropShadow" result="shape"/>
</filter>
</defs>
</svg>
