<svg width="384" height="202" viewBox="0 0 384 202" fill="none" xmlns="http://www.w3.org/2000/svg">
<g filter="url(#filter0_d)">
<path d="M62.8937 49.3326C67.9608 37.9211 79.0345 30.3466 91.5067 29.7612L278.975 20.9616C291.52 20.3727 303.311 26.9552 309.394 37.9422L339.627 92.5541C351.861 114.654 335.744 141.743 310.485 141.536L73.3054 139.589C49.5471 139.394 33.7739 114.912 43.416 93.1977L62.8937 49.3326Z" fill="#10327B"/>
</g>
<path d="M119.642 90.772C120.023 89.3347 120.214 88.132 120.214 87.164C120.214 86.196 119.95 85.404 119.422 84.788C118.894 84.1427 118.204 83.82 117.354 83.82C116.532 83.82 115.843 84.2307 115.286 85.052C114.728 85.8733 114.45 86.812 114.45 87.868C114.45 89.9213 115.623 91.6813 117.97 93.148C120.316 94.6733 121.915 95.7733 122.766 96.448C123.616 97.1227 124.218 97.7387 124.57 98.296C125.45 99.7333 125.89 101.215 125.89 102.74C125.89 105.38 124.995 107.492 123.206 109.076C121.446 110.631 119.451 111.408 117.222 111.408C114.582 111.408 112.367 110.293 110.578 108.064C109.287 106.451 108.099 104.441 107.014 102.036L111.282 99.968C111.956 101.728 112.792 103.224 113.79 104.456C114.816 105.659 115.902 106.26 117.046 106.26C117.779 106.26 118.439 106.025 119.026 105.556C119.612 105.087 119.906 104.383 119.906 103.444C119.906 102.476 119.539 101.581 118.806 100.76C118.072 99.9387 117.09 99.1027 115.858 98.252C114.626 97.4013 113.672 96.712 112.998 96.184C112.323 95.6267 111.575 94.9227 110.754 94.072C109.199 92.4293 108.422 90.332 108.422 87.78C108.422 85.1987 109.316 83.0427 111.106 81.312C112.895 79.552 115.022 78.672 117.486 78.672C119.95 78.672 122.018 79.6253 123.69 81.532C125.391 83.4387 126.242 85.404 126.242 87.428C126.242 89.4227 125.86 91.1387 125.098 92.576L119.642 90.772ZM135.64 99.66C135.64 101.185 135.978 102.549 136.652 103.752C137.327 104.955 138.119 105.556 139.028 105.556C139.967 105.556 140.715 105.145 141.272 104.324C141.83 103.503 142.226 102.417 142.46 101.068C142.871 98.692 143.076 95.9493 143.076 92.84C143.076 89.7013 142.886 85.1107 142.504 79.068L148.488 79.684C148.899 85.7267 149.104 89.8333 149.104 92.004C149.104 94.1747 149.075 95.7 149.016 96.58C148.958 97.4307 148.84 98.428 148.664 99.572C148.488 100.716 148.254 101.787 147.96 102.784C147.667 103.781 147.271 104.779 146.772 105.776C146.274 106.773 145.687 107.624 145.012 108.328C143.516 109.941 141.478 110.748 138.896 110.748C136.344 110.748 134.159 109.604 132.34 107.316C130.522 105.028 129.612 102.476 129.612 99.66C129.612 93.4707 129.95 86.8707 130.624 79.86L136.608 80.432C135.963 86.856 135.64 93.2653 135.64 99.66ZM162.791 84.7C161.5 84.7 160.371 86.2987 159.403 89.496C158.435 92.664 157.951 95.48 157.951 97.944C157.951 103.107 159.3 105.688 161.999 105.688C162.762 105.688 163.422 105.365 163.979 104.72C164.566 104.045 164.976 103.356 165.211 102.652C165.475 101.948 165.783 100.98 166.135 99.748L171.723 100.188C170.96 103.796 169.816 106.553 168.291 108.46C166.795 110.367 164.698 111.32 161.999 111.32C158.831 111.32 156.382 110.132 154.651 107.756C152.95 105.351 152.099 102.3 152.099 98.604C152.099 94.292 152.95 90.0973 154.651 86.02C155.472 83.996 156.616 82.3387 158.083 81.048C159.579 79.728 161.28 79.068 163.187 79.068C165.534 79.068 167.235 79.8453 168.291 81.4C168.819 82.1627 169.244 82.94 169.567 83.732C169.919 84.524 170.168 85.536 170.315 86.768C170.579 88.7333 170.74 90.8453 170.799 93.104L165.123 92.576C165.123 88.792 164.771 86.416 164.067 85.448C163.744 84.9493 163.319 84.7 162.791 84.7ZM180.586 99.66C180.586 101.185 180.923 102.549 181.598 103.752C182.272 104.955 183.064 105.556 183.974 105.556C184.912 105.556 185.66 105.145 186.218 104.324C186.775 103.503 187.171 102.417 187.406 101.068C187.816 98.692 188.022 95.9493 188.022 92.84C188.022 89.7013 187.831 85.1107 187.45 79.068L193.434 79.684C193.844 85.7267 194.05 89.8333 194.05 92.004C194.05 94.1747 194.02 95.7 193.962 96.58C193.903 97.4307 193.786 98.428 193.61 99.572C193.434 100.716 193.199 101.787 192.906 102.784C192.612 103.781 192.216 104.779 191.718 105.776C191.219 106.773 190.632 107.624 189.958 108.328C188.462 109.941 186.423 110.748 183.842 110.748C181.29 110.748 179.104 109.604 177.286 107.316C175.467 105.028 174.558 102.476 174.558 99.66C174.558 93.4707 174.895 86.8707 175.57 79.86L181.554 80.432C180.908 86.856 180.586 93.2653 180.586 99.66ZM198.628 110.396C199.01 103.356 199.2 97.0787 199.2 91.564C199.2 86.0493 199.186 82.4267 199.156 80.696C202.383 79.1707 205.742 78.408 209.232 78.408C211.814 78.408 213.97 79.2293 215.7 80.872C217.46 82.5147 218.34 84.832 218.34 87.824C218.34 91.2853 215.891 94.6147 210.992 97.812C213.662 101.156 216.39 104.837 219.176 108.856L214.952 111.98C213.104 109.193 209.79 104.647 205.008 98.34C204.92 102.857 204.788 107.096 204.612 111.056L198.628 110.396ZM205.14 95.348C207.311 94.3213 209.159 93.06 210.684 91.564C212.21 90.0387 212.972 88.66 212.972 87.428C212.972 86.196 212.606 85.2427 211.872 84.568C211.168 83.8933 210.23 83.556 209.056 83.556C207.883 83.556 206.592 83.8053 205.184 84.304C205.184 89.2613 205.17 92.9427 205.14 95.348ZM232.306 90.772C232.687 89.3347 232.878 88.132 232.878 87.164C232.878 86.196 232.614 85.404 232.086 84.788C231.558 84.1427 230.868 83.82 230.018 83.82C229.196 83.82 228.507 84.2307 227.95 85.052C227.392 85.8733 227.114 86.812 227.114 87.868C227.114 89.9213 228.287 91.6813 230.634 93.148C232.98 94.6733 234.579 95.7733 235.43 96.448C236.28 97.1227 236.882 97.7387 237.234 98.296C238.114 99.7333 238.554 101.215 238.554 102.74C238.554 105.38 237.659 107.492 235.87 109.076C234.11 110.631 232.115 111.408 229.886 111.408C227.246 111.408 225.031 110.293 223.242 108.064C221.951 106.451 220.763 104.441 219.678 102.036L223.946 99.968C224.62 101.728 225.456 103.224 226.454 104.456C227.48 105.659 228.566 106.26 229.71 106.26C230.443 106.26 231.103 106.025 231.69 105.556C232.276 105.087 232.57 104.383 232.57 103.444C232.57 102.476 232.203 101.581 231.47 100.76C230.736 99.9387 229.754 99.1027 228.522 98.252C227.29 97.4013 226.336 96.712 225.662 96.184C224.987 95.6267 224.239 94.9227 223.418 94.072C221.863 92.4293 221.086 90.332 221.086 87.78C221.086 85.1987 221.98 83.0427 223.77 81.312C225.559 79.552 227.686 78.672 230.15 78.672C232.614 78.672 234.682 79.6253 236.354 81.532C238.055 83.4387 238.906 85.404 238.906 87.428C238.906 89.4227 238.524 91.1387 237.762 92.576L232.306 90.772ZM255.432 109.56L254.42 103.444L247.864 103.708L246.192 111.98L240.032 111.452L247.908 79.552L256.048 80.256L261.812 110.088L255.432 109.56ZM251.56 85.316L248.788 99L253.716 98.824L251.56 85.316ZM266.328 109.736C265.947 103.693 265.756 98.164 265.756 93.148C265.756 88.1027 265.917 83.5267 266.24 79.42L272.092 79.948C271.652 84.9933 271.432 89.8187 271.432 94.424C271.432 99.0293 271.505 102.417 271.652 104.588C272.708 104.441 275.304 104.148 279.44 103.708L280.32 108.812C278.12 109.076 275.011 109.516 270.992 110.132L266.328 109.736Z" fill="#FDCC01"/>
<path d="M117.368 55.38C119.552 54.708 121.522 54.372 123.276 54.372C125.05 54.372 126.552 54.848 127.784 55.8C129.016 56.7333 129.632 57.8907 129.632 59.272C129.632 61.344 128.475 62.9867 126.16 64.2C128.326 65.0773 129.408 66.5427 129.408 68.596C129.408 70.108 128.615 71.4613 127.028 72.656C125.442 73.832 123.78 74.42 122.044 74.42C121.82 74.42 120.224 74.2893 117.256 74.028C117.518 70.0147 117.648 66.636 117.648 63.892C117.648 61.148 117.555 58.3107 117.368 55.38ZM125.852 59.664C125.852 59.104 125.572 58.6373 125.012 58.264C124.471 57.872 123.883 57.676 123.248 57.676C122.632 57.676 121.97 57.788 121.26 58.012C121.335 60.252 121.372 61.9413 121.372 63.08C122.231 63.0053 123.192 62.6227 124.256 61.932C125.32 61.2227 125.852 60.4667 125.852 59.664ZM122.66 71.004C123.276 71.004 123.93 70.7613 124.62 70.276C125.311 69.772 125.656 69.2027 125.656 68.568C125.656 67.9147 125.255 67.3453 124.452 66.86C123.65 66.3747 122.614 66.076 121.344 65.964C121.307 68.1667 121.27 69.8187 121.232 70.92C121.568 70.976 122.044 71.004 122.66 71.004ZM140.564 60.868L140.508 65.292C140.508 69.4547 140.583 72.516 140.732 74.476L137.96 74.196C137.904 73.412 137.783 72.6187 137.596 71.816C136.57 73.328 135.534 74.084 134.488 74.084C133.462 74.084 132.64 73.7293 132.024 73.02C131.408 72.3107 131.1 71.3307 131.1 70.08C131.1 67.6533 131.278 64.76 131.632 61.4L134.88 61.708C134.544 64.9 134.376 67.5507 134.376 69.66C134.376 70.612 134.675 71.088 135.272 71.088C135.552 71.088 135.888 70.7053 136.28 69.94C136.691 69.1747 137.018 68.2507 137.26 67.168C137.242 66.7573 137.232 66.272 137.232 65.712C137.232 65.152 137.26 63.444 137.316 60.588L140.564 60.868ZM148.374 65.18C148.374 64.06 148.094 63.5 147.534 63.5C147.254 63.5 146.993 63.64 146.75 63.92C146.526 64.1813 146.414 64.5453 146.414 65.012C146.414 65.46 146.498 65.8333 146.666 66.132C146.853 66.4307 147.18 66.7293 147.646 67.028C148.132 67.308 148.505 67.5413 148.766 67.728C149.046 67.896 149.373 68.1387 149.746 68.456C150.512 69.128 150.894 69.996 150.894 71.06C150.894 72.1053 150.493 72.9547 149.69 73.608C148.906 74.2613 148.02 74.588 147.03 74.588C146.041 74.588 145.145 74.3267 144.342 73.804C143.558 73.2627 142.924 72.5907 142.438 71.788L143.95 70.08C144.697 71.368 145.481 72.012 146.302 72.012C146.582 72.012 146.825 71.9373 147.03 71.788C147.236 71.62 147.338 71.396 147.338 71.116C147.338 70.5187 146.909 69.968 146.05 69.464C145.136 68.96 144.417 68.4 143.894 67.784C143.372 67.168 143.11 66.3 143.11 65.18C143.11 64.0413 143.577 63.024 144.51 62.128C145.444 61.2133 146.442 60.756 147.506 60.756C148.589 60.756 149.438 61.1293 150.054 61.876C150.689 62.604 151.006 63.5933 151.006 64.844C151.006 65.348 150.95 65.8893 150.838 66.468L148.29 66.244C148.346 65.8147 148.374 65.46 148.374 65.18ZM157.941 66.832C157.979 66.5707 157.997 66.2347 157.997 65.824C157.997 65.4133 157.913 64.9933 157.745 64.564C157.577 64.1347 157.363 63.92 157.101 63.92C156.579 63.92 156.196 64.5267 155.953 65.74C155.729 66.9347 155.617 68.036 155.617 69.044C155.617 70.7427 155.963 71.592 156.653 71.592C157.213 71.592 158.007 70.612 159.033 68.652L161.105 70.136C160.601 71.4987 159.967 72.5813 159.201 73.384C158.455 74.1867 157.549 74.588 156.485 74.588C155.421 74.588 154.46 74.168 153.601 73.328C152.761 72.488 152.341 71.2093 152.341 69.492C152.341 67.6627 152.64 65.8427 153.237 64.032C153.573 63.0427 154.068 62.2307 154.721 61.596C155.393 60.9613 156.243 60.644 157.269 60.644C158.296 60.644 159.145 61.1667 159.817 62.212C160.508 63.2573 160.853 64.4147 160.853 65.684C160.853 66.2253 160.769 66.692 160.601 67.084L157.941 66.832ZM162.632 65.74C162.912 64.284 163.444 63.052 164.228 62.044C165.012 61.0173 166.038 60.504 167.308 60.504C168.577 60.504 169.51 61.036 170.108 62.1C170.724 63.1453 171.032 64.6387 171.032 66.58C171.032 68.5213 170.92 71.2 170.696 74.616L168.344 74.42L168.12 73.524C167.242 74.028 166.346 74.28 165.432 74.28C164.517 74.28 163.761 73.9813 163.164 73.384C162.566 72.768 162.268 71.8907 162.268 70.752C162.268 69.6133 162.828 68.6333 163.948 67.812C165.086 66.9907 166.393 66.5613 167.868 66.524V65.768C167.868 64.2933 167.513 63.556 166.804 63.556C166.449 63.556 166.122 63.808 165.824 64.312C165.544 64.7973 165.338 65.3573 165.208 65.992L162.632 65.74ZM165.124 70.92C165.124 71.5173 165.478 71.816 166.188 71.816C166.673 71.816 167.186 71.704 167.728 71.48L167.784 69.128C166.906 69.2027 166.244 69.4267 165.796 69.8C165.348 70.1547 165.124 70.528 165.124 70.92ZM178.946 63.892C178.162 63.892 177.574 64.8813 177.182 66.86C177.219 68.1667 177.238 69.4173 177.238 70.612C177.238 71.8067 177.201 73.1507 177.126 74.644L173.878 74.364C173.934 71.62 173.962 70.108 173.962 69.828C173.962 66.3747 173.794 63.7333 173.458 61.904L175.558 62.128C175.689 62.6693 175.838 63.1453 176.006 63.556C176.921 61.596 177.845 60.616 178.778 60.616C179.543 60.616 180.215 60.952 180.794 61.624L180.066 64.2C179.767 63.9947 179.394 63.892 178.946 63.892Z" fill="white"/>
<defs>
<filter id="filter0_d" x="0.540039" y="0.92511" width="383.264" height="200.612" filterUnits="userSpaceOnUse" color-interpolation-filters="sRGB">
<feFlood flood-opacity="0" result="BackgroundImageFix"/>
<feColorMatrix in="SourceAlpha" type="matrix" values="0 0 0 0 0 0 0 0 0 0 0 0 0 0 0 0 0 0 127 0"/>
<feOffset dy="20"/>
<feGaussianBlur stdDeviation="20"/>
<feColorMatrix type="matrix" values="0 0 0 0 0 0 0 0 0 0 0 0 0 0 0 0 0 0 0.1 0"/>
<feBlend mode="normal" in2="BackgroundImageFix" result="effect1_dropShadow"/>
<feBlend mode="normal" in="SourceGraphic" in2="effect1_dropShadow" result="shape"/>
</filter>
</defs>
</svg>
