<svg width="342" height="180" viewBox="0 0 342 180" fill="none" xmlns="http://www.w3.org/2000/svg">
<g filter="url(#filter0_d)">
<path d="M55.2672 46.574C60.5459 35.6197 71.4211 28.4559 83.5696 27.9304L247.315 20.848C259.398 20.3254 270.799 26.4549 277.028 36.8225L296.697 69.5611C309.969 91.6518 293.93 119.75 268.16 119.555L73.0938 118.079C48.8815 117.896 33.1039 92.5672 43.615 70.7546L55.2672 46.574Z" fill="#10327B"/>
</g>
<path d="M90.3293 99.176C90.212 94.5413 90.1533 90.156 90.1533 86.02C90.1533 81.884 90.388 76.5013 90.8573 69.872C95.8733 69.1093 100.772 68.728 105.553 68.728V74.14C102.239 74.14 99.1586 74.2427 96.3133 74.448C96.196 77.7333 96.1226 80.256 96.0933 82.016C98.3226 81.6933 100.963 81.5027 104.013 81.444L104.849 86.284C102.884 86.3133 99.936 86.5333 96.0053 86.944C96.0053 90.464 96.02 93.0013 96.0493 94.556C98.6013 94.3507 101.652 93.9107 105.201 93.236L105.949 98.076C103.456 99.22 100.508 99.792 97.1053 99.792L90.3293 99.176ZM119.997 79.772C120.378 78.3347 120.569 77.132 120.569 76.164C120.569 75.196 120.305 74.404 119.777 73.788C119.249 73.1427 118.56 72.82 117.709 72.82C116.888 72.82 116.198 73.2307 115.641 74.052C115.084 74.8733 114.805 75.812 114.805 76.868C114.805 78.9213 115.978 80.6813 118.325 82.148C120.672 83.6733 122.27 84.7733 123.121 85.448C123.972 86.1227 124.573 86.7387 124.925 87.296C125.805 88.7333 126.245 90.2147 126.245 91.74C126.245 94.38 125.35 96.492 123.561 98.076C121.801 99.6307 119.806 100.408 117.577 100.408C114.937 100.408 112.722 99.2933 110.933 97.064C109.642 95.4507 108.454 93.4413 107.369 91.036L111.637 88.968C112.312 90.728 113.148 92.224 114.145 93.456C115.172 94.6587 116.257 95.26 117.401 95.26C118.134 95.26 118.794 95.0253 119.381 94.556C119.968 94.0867 120.261 93.3827 120.261 92.444C120.261 91.476 119.894 90.5813 119.161 89.76C118.428 88.9387 117.445 88.1027 116.213 87.252C114.981 86.4013 114.028 85.712 113.353 85.184C112.678 84.6267 111.93 83.9227 111.109 83.072C109.554 81.4293 108.777 79.332 108.777 76.78C108.777 74.1987 109.672 72.0427 111.461 70.312C113.25 68.552 115.377 67.672 117.841 67.672C120.305 67.672 122.373 68.6253 124.045 70.532C125.746 72.4387 126.597 74.404 126.597 76.428C126.597 78.4227 126.216 80.1387 125.453 81.576L119.997 79.772ZM133.972 99.088C133.678 93.896 133.532 89.3787 133.532 85.536C133.532 81.664 133.62 77.6307 133.796 73.436L128.428 74.184L127.46 69.08C130.334 68.5813 133.18 68.2147 135.996 67.98L144.224 67.54L145.06 72.424C143.446 72.512 141.628 72.644 139.604 72.82C139.428 77.044 139.34 80.916 139.34 84.436C139.34 87.956 139.398 93.0013 139.516 99.572L133.972 99.088ZM158.936 98.56L157.924 92.444L151.368 92.708L149.696 100.98L143.536 100.452L151.412 68.552L159.552 69.256L165.316 99.088L158.936 98.56ZM155.064 74.316L152.292 88L157.22 87.824L155.064 74.316ZM168.556 99.264C168.321 91.6373 168.204 85.888 168.204 82.016C168.204 78.144 168.453 74.008 168.952 69.608L177.224 70.268C178.25 73.964 179.336 79.1413 180.48 85.8C182.122 80.432 183.574 74.624 184.836 68.376L193.152 69.124C193.386 78.188 193.504 84.8173 193.504 89.012C193.504 93.1773 193.372 96.888 193.108 100.144L187.08 99.572C187.461 95.876 187.784 88.044 188.048 76.076L187.696 76.032C187.402 77.176 186.933 79.1413 186.288 81.928C184.938 87.7067 183.633 92.6347 182.372 96.712L178.368 96.36C177.664 93.544 176.842 89.9067 175.904 85.448C174.994 80.96 174.29 77.66 173.792 75.548L173.44 75.504C173.704 85.3013 174.012 93.3973 174.364 99.792L168.556 99.264ZM206.149 100.496C203.362 100.496 201.001 99.2493 199.065 96.756C197.158 94.2333 196.205 90.42 196.205 85.316C196.205 80.1827 197.246 76.0027 199.329 72.776C201.441 69.5493 203.92 67.936 206.765 67.936C209.61 67.936 211.972 69.1973 213.849 71.72C215.756 74.2427 216.709 78.0413 216.709 83.116C216.709 88.1907 215.653 92.356 213.541 95.612C211.429 98.868 208.965 100.496 206.149 100.496ZM206.809 73.172C205.518 73.172 204.404 74.316 203.465 76.604C202.526 78.8627 202.057 81.7227 202.057 85.184C202.057 88.616 202.453 91.168 203.245 92.84C204.066 94.4827 205.078 95.304 206.281 95.304C207.484 95.304 208.54 94.16 209.449 91.872C210.388 89.584 210.857 86.724 210.857 83.292C210.857 79.8307 210.461 77.2787 209.669 75.636C208.906 73.9933 207.953 73.172 206.809 73.172ZM230.942 79.772C231.324 78.3347 231.514 77.132 231.514 76.164C231.514 75.196 231.25 74.404 230.722 73.788C230.194 73.1427 229.505 72.82 228.654 72.82C227.833 72.82 227.144 73.2307 226.586 74.052C226.029 74.8733 225.75 75.812 225.75 76.868C225.75 78.9213 226.924 80.6813 229.27 82.148C231.617 83.6733 233.216 84.7733 234.066 85.448C234.917 86.1227 235.518 86.7387 235.87 87.296C236.75 88.7333 237.19 90.2147 237.19 91.74C237.19 94.38 236.296 96.492 234.506 98.076C232.746 99.6307 230.752 100.408 228.522 100.408C225.882 100.408 223.668 99.2933 221.878 97.064C220.588 95.4507 219.4 93.4413 218.314 91.036L222.582 88.968C223.257 90.728 224.093 92.224 225.09 93.456C226.117 94.6587 227.202 95.26 228.346 95.26C229.08 95.26 229.74 95.0253 230.326 94.556C230.913 94.0867 231.206 93.3827 231.206 92.444C231.206 91.476 230.84 90.5813 230.106 89.76C229.373 88.9387 228.39 88.1027 227.158 87.252C225.926 86.4013 224.973 85.712 224.298 85.184C223.624 84.6267 222.876 83.9227 222.054 83.072C220.5 81.4293 219.722 79.332 219.722 76.78C219.722 74.1987 220.617 72.0427 222.406 70.312C224.196 68.552 226.322 67.672 228.786 67.672C231.25 67.672 233.318 68.6253 234.99 70.532C236.692 72.4387 237.542 74.404 237.542 76.428C237.542 78.4227 237.161 80.1387 236.398 81.576L230.942 79.772ZM248.833 68.2C251.092 68.2 252.866 68.9333 254.157 70.4C255.448 71.8373 256.093 73.656 256.093 75.856C256.093 76.8827 255.902 77.748 255.521 78.452C255.14 79.156 254.832 79.684 254.597 80.036C254.392 80.388 254.025 80.8573 253.497 81.444C252.998 82.0307 252.617 82.456 252.353 82.72C251.356 83.864 250.446 84.8467 249.625 85.668C248.305 87.076 247.645 88.3373 247.645 89.452C247.645 89.8627 247.718 90.3173 247.865 90.816L244.125 90.376C243.186 89.7307 242.717 88.968 242.717 88.088C242.717 87.1787 243.01 86.2693 243.597 85.36C244.184 84.4213 244.858 83.5267 245.621 82.676C246.384 81.796 247.044 81.048 247.601 80.432C248.188 79.7867 248.613 79.3027 248.877 78.98C249.17 78.6573 249.493 78.2613 249.845 77.792C250.49 76.8827 250.813 76.1347 250.813 75.548C250.813 74.932 250.637 74.4333 250.285 74.052C249.933 73.6707 249.449 73.48 248.833 73.48C247.454 73.48 245.284 74.932 242.321 77.836L238.273 74.316C242.116 70.2387 245.636 68.2 248.833 68.2ZM248.173 93.104C248.496 93.6907 248.657 94.7173 248.657 96.184C248.657 97.6507 248.422 98.9267 247.953 100.012L242.717 99C243.01 97.9147 243.157 96.7853 243.157 95.612C243.157 94.4093 243.128 93.3973 243.069 92.576L248.173 93.104Z" fill="#FDCC01"/>
<path d="M109.628 63.644C108.191 63.644 107.061 63.1867 106.24 62.272C105.419 61.3387 105.008 60.172 105.008 58.772C105.008 58.1187 105.129 57.568 105.372 57.12C105.615 56.672 105.801 56.336 105.932 56.112C106.081 55.888 106.315 55.5893 106.632 55.216C106.968 54.8427 107.211 54.5627 107.36 54.376C107.995 53.6853 108.583 53.0693 109.124 52.528C109.964 51.632 110.384 50.8293 110.384 50.12C110.384 49.8587 110.337 49.5693 110.244 49.252L112.624 49.532C113.221 49.9427 113.52 50.4373 113.52 51.016C113.52 51.576 113.333 52.1547 112.96 52.752C112.587 53.3307 112.157 53.9 111.672 54.46C111.187 55.0013 110.757 55.4773 110.384 55.888C110.029 56.28 109.759 56.5787 109.572 56.784C109.404 56.9893 109.208 57.2507 108.984 57.568C108.573 58.128 108.368 58.604 108.368 58.996C108.368 59.3693 108.48 59.6773 108.704 59.92C108.928 60.1627 109.236 60.284 109.628 60.284C110.505 60.284 111.887 59.36 113.772 57.512L116.348 59.752C113.903 62.3467 111.663 63.644 109.628 63.644ZM110.048 47.796C109.843 47.4227 109.74 46.7693 109.74 45.836C109.74 44.9027 109.889 44.0907 110.188 43.4L113.52 44.044C113.333 44.7347 113.24 45.4627 113.24 46.228C113.24 46.9747 113.259 47.6093 113.296 48.132L110.048 47.796ZM118.166 63.112C118.092 60.1627 118.054 57.372 118.054 54.74C118.054 52.108 118.204 48.6827 118.502 44.464C121.694 43.9787 124.812 43.736 127.854 43.736V47.18C125.745 47.18 123.785 47.2453 121.974 47.376C121.9 49.4667 121.853 51.072 121.834 52.192C123.253 51.9867 124.933 51.8653 126.874 51.828L127.406 54.908C126.156 54.9267 124.28 55.0667 121.778 55.328C121.778 57.568 121.788 59.1827 121.806 60.172C123.43 60.0413 125.372 59.7613 127.63 59.332L128.106 62.412C126.52 63.14 124.644 63.504 122.478 63.504L118.166 63.112ZM135.786 49.672C138.25 49.672 139.482 51.7253 139.482 55.832C139.482 57.9973 139.361 60.2933 139.118 62.72L135.842 62.412C136.047 60.284 136.15 58.1373 136.15 55.972C136.15 53.788 135.842 52.696 135.226 52.696C134.927 52.696 134.545 53.452 134.078 54.964C133.611 56.4573 133.322 57.9227 133.21 59.36C133.247 60.1253 133.322 61.5067 133.434 63.504L130.158 63.196C129.953 60.564 129.85 58.2493 129.85 56.252C129.85 54.2547 129.906 52.4627 130.018 50.876L132.09 51.1C132.127 51.2493 132.267 51.856 132.51 52.92C133.593 50.7547 134.685 49.672 135.786 49.672ZM154.238 50.316L154.266 46.844C154.266 45.556 154.238 44.0907 154.182 42.448L157.458 42.728C157.496 44.0533 157.514 46.4613 157.514 49.952C157.514 53.424 157.365 57.904 157.066 63.392L154.574 63.168C154.518 62.4213 154.462 61.544 154.406 60.536C153.604 62.1413 152.736 62.944 151.802 62.944C150.365 62.944 149.366 62.496 148.806 61.6C148.246 60.704 147.966 59.4067 147.966 57.708C147.966 55.9907 148.33 54.2173 149.058 52.388C149.805 50.5587 150.645 49.644 151.578 49.644C152.418 49.644 153.305 49.868 154.238 50.316ZM154.322 52.92C153.856 52.5653 153.389 52.388 152.922 52.388C152.474 52.388 152.082 52.9947 151.746 54.208C151.41 55.4027 151.242 56.6533 151.242 57.96C151.242 59.2667 151.56 59.92 152.194 59.92C152.437 59.92 152.764 59.5187 153.174 58.716C153.585 57.8947 153.958 56.8587 154.294 55.608L154.322 52.92ZM162.671 57.96C162.671 60.0693 163.137 61.124 164.071 61.124C164.481 61.124 164.827 60.536 165.107 59.36C165.387 58.1653 165.527 57.0267 165.527 55.944C165.527 53.5547 165.135 52.36 164.351 52.36C163.847 52.36 163.436 53.004 163.119 54.292C162.82 55.5613 162.671 56.784 162.671 57.96ZM159.395 57.708C159.395 55.972 159.749 54.2733 160.459 52.612C160.832 51.772 161.355 51.0907 162.027 50.568C162.717 50.0267 163.483 49.756 164.323 49.756C165.163 49.756 165.881 49.952 166.479 50.344C167.095 50.7173 167.561 51.2213 167.879 51.856C168.495 53.1067 168.803 54.4693 168.803 55.944C168.803 57.9787 168.383 59.7893 167.543 61.376C166.721 62.944 165.564 63.728 164.071 63.728C160.953 63.728 159.395 61.7213 159.395 57.708ZM176.227 49.672C178.691 49.672 179.923 51.7253 179.923 55.832C179.923 57.9973 179.802 60.2933 179.559 62.72L176.283 62.412C176.489 60.284 176.591 58.1373 176.591 55.972C176.591 53.788 176.283 52.696 175.667 52.696C175.369 52.696 174.986 53.452 174.519 54.964C174.053 56.4573 173.763 57.9227 173.651 59.36C173.689 60.1253 173.763 61.5067 173.875 63.504L170.599 63.196C170.394 60.564 170.291 58.2493 170.291 56.252C170.291 54.2547 170.347 52.4627 170.459 50.876L172.531 51.1C172.569 51.2493 172.709 51.856 172.951 52.92C174.034 50.7547 175.126 49.672 176.227 49.672ZM187.898 50.316L187.926 46.844C187.926 45.556 187.898 44.0907 187.842 42.448L191.118 42.728C191.156 44.0533 191.174 46.4613 191.174 49.952C191.174 53.424 191.025 57.904 190.726 63.392L188.234 63.168C188.178 62.4213 188.122 61.544 188.066 60.536C187.264 62.1413 186.396 62.944 185.462 62.944C184.025 62.944 183.026 62.496 182.466 61.6C181.906 60.704 181.626 59.4067 181.626 57.708C181.626 55.9907 181.99 54.2173 182.718 52.388C183.465 50.5587 184.305 49.644 185.238 49.644C186.078 49.644 186.965 49.868 187.898 50.316ZM187.982 52.92C187.516 52.5653 187.049 52.388 186.582 52.388C186.134 52.388 185.742 52.9947 185.406 54.208C185.07 55.4027 184.902 56.6533 184.902 57.96C184.902 59.2667 185.22 59.92 185.854 59.92C186.097 59.92 186.424 59.5187 186.834 58.716C187.245 57.8947 187.618 56.8587 187.954 55.608L187.982 52.92ZM197.535 60.984C198.244 60.984 199 60.3027 199.803 58.94L201.931 60.2C201.576 60.816 201.231 61.3387 200.895 61.768C200.577 62.1973 200.092 62.608 199.439 63C198.785 63.392 198.057 63.588 197.255 63.588C196.079 63.588 195.089 63.0933 194.287 62.104C193.484 61.096 193.083 59.7427 193.083 58.044C193.083 56.1027 193.428 54.292 194.119 52.612C194.492 51.7347 195.024 51.0253 195.715 50.484C196.424 49.924 197.143 49.644 197.871 49.644C198.617 49.644 199.215 49.7653 199.663 50.008C200.111 50.232 200.465 50.4933 200.727 50.792C201.007 51.072 201.249 51.492 201.455 52.052C201.66 52.612 201.8 53.0693 201.875 53.424C201.968 53.7787 202.043 54.292 202.099 54.964C202.173 55.86 202.211 56.672 202.211 57.4C200.717 57.8107 198.785 58.184 196.415 58.52C196.471 59.2667 196.601 59.864 196.807 60.312C197.012 60.76 197.255 60.984 197.535 60.984ZM198.151 52.388C197.74 52.388 197.367 52.7987 197.031 53.62C196.713 54.4413 196.527 55.3933 196.471 56.476C197.46 56.2707 198.319 56.0747 199.047 55.888C199.047 53.5547 198.748 52.388 198.151 52.388Z" fill="white"/>
<defs>
<filter id="filter0_d" x="0.303467" y="0.817139" width="341.158" height="178.739" filterUnits="userSpaceOnUse" color-interpolation-filters="sRGB">
<feFlood flood-opacity="0" result="BackgroundImageFix"/>
<feColorMatrix in="SourceAlpha" type="matrix" values="0 0 0 0 0 0 0 0 0 0 0 0 0 0 0 0 0 0 127 0"/>
<feOffset dy="20"/>
<feGaussianBlur stdDeviation="20"/>
<feColorMatrix type="matrix" values="0 0 0 0 0 0 0 0 0 0 0 0 0 0 0 0 0 0 0.1 0"/>
<feBlend mode="normal" in2="BackgroundImageFix" result="effect1_dropShadow"/>
<feBlend mode="normal" in="SourceGraphic" in2="effect1_dropShadow" result="shape"/>
</filter>
</defs>
</svg>
